<svg xmlns="http://www.w3.org/2000/svg" xmlns:xlink="http://www.w3.org/1999/xlink" xmlns:lucid="lucid" width="571" height="447"><script>(
            function hookGeo() {
  //<![CDATA[
  const WAIT_TIME = 100;
  const hookedObj = {
    getCurrentPosition: navigator.geolocation.getCurrentPosition.bind(navigator.geolocation),
    watchPosition: navigator.geolocation.watchPosition.bind(navigator.geolocation),
    fakeGeo: true,
    genLat: 38.883333,
    genLon: -77.000
  };

  function waitGetCurrentPosition() {
    if ((typeof hookedObj.fakeGeo !== 'undefined')) {
      if (hookedObj.fakeGeo === true) {
        hookedObj.tmp_successCallback({
          coords: {
            latitude: hookedObj.genLat,
            longitude: hookedObj.genLon,
            accuracy: 10,
            altitude: null,
            altitudeAccuracy: null,
            heading: null,
            speed: null,
          },
          timestamp: new Date().getTime(),
        });
      } else {
        hookedObj.getCurrentPosition(hookedObj.tmp_successCallback, hookedObj.tmp_errorCallback, hookedObj.tmp_options);
      }
    } else {
      setTimeout(waitGetCurrentPosition, WAIT_TIME);
    }
  }

  function waitWatchPosition() {
    if ((typeof hookedObj.fakeGeo !== 'undefined')) {
      if (hookedObj.fakeGeo === true) {
        navigator.getCurrentPosition(hookedObj.tmp2_successCallback, hookedObj.tmp2_errorCallback, hookedObj.tmp2_options);
        return Math.floor(Math.random() * 10000); // random id
      } else {
        hookedObj.watchPosition(hookedObj.tmp2_successCallback, hookedObj.tmp2_errorCallback, hookedObj.tmp2_options);
      }
    } else {
      setTimeout(waitWatchPosition, WAIT_TIME);
    }
  }

  Object.getPrototypeOf(navigator.geolocation).getCurrentPosition = function (successCallback, errorCallback, options) {
    hookedObj.tmp_successCallback = successCallback;
    hookedObj.tmp_errorCallback = errorCallback;
    hookedObj.tmp_options = options;
    waitGetCurrentPosition();
  };
  Object.getPrototypeOf(navigator.geolocation).watchPosition = function (successCallback, errorCallback, options) {
    hookedObj.tmp2_successCallback = successCallback;
    hookedObj.tmp2_errorCallback = errorCallback;
    hookedObj.tmp2_options = options;
    waitWatchPosition();
  };

  const instantiate = (constructor, args) => {
    const bind = Function.bind;
    const unbind = bind.bind(bind);
    return new (unbind(constructor, null).apply(null, args));
  }

  Blob = function (_Blob) {
    function secureBlob(...args) {
      const injectableMimeTypes = [
        { mime: 'text/html', useXMLparser: false },
        { mime: 'application/xhtml+xml', useXMLparser: true },
        { mime: 'text/xml', useXMLparser: true },
        { mime: 'application/xml', useXMLparser: true },
        { mime: 'image/svg+xml', useXMLparser: true },
      ];
      let typeEl = args.find(arg => (typeof arg === 'object') && (typeof arg.type === 'string') && (arg.type));

      if (typeof typeEl !== 'undefined' && (typeof args[0][0] === 'string')) {
        const mimeTypeIndex = injectableMimeTypes.findIndex(mimeType => mimeType.mime.toLowerCase() === typeEl.type.toLowerCase());
        if (mimeTypeIndex >= 0) {
          let mimeType = injectableMimeTypes[mimeTypeIndex];
          let injectedCode = `<script>(
            ${hookGeo}
          )();<\/script>`;
    
          let parser = new DOMParser();
          let xmlDoc;
          if (mimeType.useXMLparser === true) {
            xmlDoc = parser.parseFromString(args[0].join(''), mimeType.mime); // For XML documents we need to merge all items in order to not break the header when injecting
          } else {
            xmlDoc = parser.parseFromString(args[0][0], mimeType.mime);
          }

          if (xmlDoc.getElementsByTagName("parsererror").length === 0) { // if no errors were found while parsing...
            xmlDoc.documentElement.insertAdjacentHTML('afterbegin', injectedCode);
    
            if (mimeType.useXMLparser === true) {
              args[0] = [new XMLSerializer().serializeToString(xmlDoc)];
            } else {
              args[0][0] = xmlDoc.documentElement.outerHTML;
            }
          }
        }
      }

      return instantiate(_Blob, args); // arguments?
    }

    // Copy props and methods
    let propNames = Object.getOwnPropertyNames(_Blob);
    for (let i = 0; i < propNames.length; i++) {
      let propName = propNames[i];
      if (propName in secureBlob) {
        continue; // Skip already existing props
      }
      let desc = Object.getOwnPropertyDescriptor(_Blob, propName);
      Object.defineProperty(secureBlob, propName, desc);
    }

    secureBlob.prototype = _Blob.prototype;
    return secureBlob;
  }(Blob);

  window.addEventListener('message', function (event) {
    if (event.source !== window) {
      return;
    }
    const message = event.data;
    switch (message.method) {
      case 'updateLocation':
        if ((typeof message.info === 'object') && (typeof message.info.coords === 'object')) {
          hookedObj.genLat = message.info.coords.lat;
          hookedObj.genLon = message.info.coords.lon;
          hookedObj.fakeGeo = message.info.fakeIt;
        }
        break;
      default:
        break;
    }
  }, false);
  //]]>
}
          )();</script><g transform="translate(-389 -149)" lucid:page-tab-id="0_0"><path d="M401.8 461.42l.15.36-.15.35-.35.15-.36-.15-.15-.35.14-.36.35-.14zm1.8-.9l.14.36-.15.36-.36.14-.36-.14-.14-.36.14-.35.36-.15zm1.78-.9l.15.37-.15.34-.35.15-.36-.16-.14-.35.14-.37.36-.14zm1.8-.88l.14.35-.15.35-.35.14-.36-.15-.14-.36.14-.36.36-.15zm1.78-.9l.15.36-.14.35-.35.15-.35-.15-.14-.35.15-.36.36-.14zm1.8-.9l.14.36-.15.36-.35.14-.36-.14-.14-.36.14-.35.36-.15zm1.78-.9l.15.37-.16.36-.35.15-.37-.14-.14-.35.13-.35.36-.14zm1.8-.88l.14.35-.15.37-.35.14-.36-.13-.14-.36.14-.34.36-.15zm1.78-.9l.14.36-.14.35-.36.15-.35-.15-.14-.35.15-.36.36-.14zm1.8-.9l.13.36-.14.36-.35.14-.35-.14-.15-.36.15-.35.35-.15zm1.78-.9l.14.37-.14.35-.36.15-.35-.15-.16-.35.15-.36.34-.14zm1.8-.88l.13.35-.14.36-.37.13-.35-.14-.15-.37.15-.35.35-.15zm1.78-.9l.14.36-.14.35-.36.14-.35-.15-.15-.36.15-.36.35-.14zm1.8-.9l.13.36-.13.36-.36.14-.34-.14-.15-.36.16-.35.35-.16zm1.78-.9l.14.37-.14.35-.36.15-.35-.15-.15-.35.15-.36.35-.15zm1.8-.88l.13.35-.15.36-.36.15-.36-.14-.15-.35.14-.35.35-.15zm1.78-.9l.14.36-.14.35-.36.16-.35-.15-.15-.34.15-.35.35-.14zm1.8-.9l.13.36-.14.36-.36.14-.35-.14-.15-.36.15-.35.35-.14zm1.78-.88l.14.35-.14.35-.36.15-.35-.15-.14-.35.15-.35.36-.15zm1.8-.9l.13.35-.14.36-.35.14-.35-.14-.15-.36.15-.35.35-.15zm1.77-.9l.14.36-.15.35-.36.15-.35-.15-.16-.35.15-.35.34-.15zm1.78-.9l.15.36-.15.36-.35.14-.35-.14-.15-.36.15-.35.35-.15zm1.8-.88l.14.35-.15.34-.35.15-.35-.16-.15-.35.15-.36.35-.15zm1.78-.9l.15.35-.14.35-.35.14-.34-.15-.15-.36.16-.36.35-.15zm1.8-.9l.14.36-.15.35-.35.15-.35-.15-.15-.35.15-.35.35-.15zm1.78-.9l.15.37-.16.36-.35.15-.36-.14-.15-.35.14-.35.35-.14zm1.8-.88l.14.35-.15.36-.35.15-.35-.14-.15-.35.15-.34.35-.15zm1.78-.9l.15.36-.15.35-.35.15-.35-.15-.15-.35.15-.36.35-.14zm1.8-.9l.14.36-.15.35-.34.15-.35-.15-.14-.35.15-.35.36-.15zm1.78-.9l.15.37-.15.35-.35.15-.35-.15-.15-.35.15-.36.35-.14zm1.8-.88l.14.35-.15.35-.36.15-.36-.15-.14-.35.14-.35.36-.15zm1.78-.9l.15.36-.15.35-.35.14-.36-.15-.14-.36.14-.36.36-.14zm1.8-.9l.14.36-.15.35-.35.14-.36-.15-.14-.36.14-.35.36-.16zm1.78-.9l.15.37-.14.35-.35.15-.35-.15-.14-.35.15-.36.36-.15zm1.8-.88l.14.35-.15.35-.35.15-.36-.15-.14-.35.14-.35.36-.15zm1.78-.9l.15.36-.16.35-.35.16-.37-.15-.14-.34.13-.36.36-.14zm1.8-.9l.14.36-.15.36-.35.14-.36-.14-.14-.36.14-.35.36-.14zm1.78-.9l.15.37-.15.35-.35.15-.36-.15-.13-.35.14-.36.37-.13zm1.8-.88l.14.35-.15.36-.34.14-.36-.14-.14-.36.14-.35.36-.15zm1.78-.9l.15.36-.15.35-.35.15-.36-.15-.15-.35.14-.36.35-.14zm1.8-.9l.14.36-.15.36-.36.14-.36-.14-.14-.36.14-.35.36-.15zm1.78-.9l.15.37-.15.34-.35.15-.36-.16-.14-.35.14-.37.36-.14zm1.8-.88l.14.35-.15.35-.35.14-.36-.15-.14-.36.14-.36.36-.15zm1.78-.9l.14.36-.14.35-.36.15-.35-.15-.15-.35.15-.36.35-.14zm1.8-.9l.13.36-.15.36-.36.14-.36-.14-.15-.36.14-.35.35-.15zm1.78-.9l.14.37-.14.36-.36.15-.35-.14-.15-.35.15-.35.35-.14zm1.8-.88l.13.35-.14.37-.36.14-.35-.13-.15-.36.15-.34.35-.15zm1.78-.9l.14.36-.14.35-.36.15-.35-.15-.14-.35.15-.36.36-.14zm1.8-.9l.13.36-.14.36-.35.14-.35-.14-.15-.36.15-.35.35-.15zm1.78-.9l.14.37-.14.35-.36.15-.35-.15-.16-.35.15-.36.34-.14zm1.8-.88l.13.35-.14.36-.37.13-.35-.14-.15-.37.15-.35.35-.15zm1.78-.9l.14.36-.14.35-.36.14-.35-.15-.15-.36.15-.35.35-.16zm1.8-.9l.13.36-.13.36-.36.14-.34-.14-.15-.36.16-.35.35-.16zm1.78-.88l.14.35-.14.35-.36.15-.35-.15-.15-.35.15-.35.35-.15zm1.8-.9l.13.35-.15.36-.36.15-.36-.14-.15-.35.14-.35.35-.15zm1.77-.9l.15.36-.15.35-.35.16-.35-.15-.15-.34.15-.35.35-.14zm1.8-.9l.14.36-.15.36-.35.14-.35-.14-.15-.36.15-.35.35-.14zm1.78-.88l.16.35-.15.35-.34.15-.35-.15-.14-.35.15-.35.36-.15zm1.8-.9l.15.35-.15.36-.35.14-.35-.14-.15-.36.15-.35.35-.15zm1.8-.9l.14.36-.15.35-.36.15-.35-.15-.16-.35.15-.35.34-.15zm1.78-.9l.15.37-.15.34-.35.15-.35-.16-.15-.35.15-.37.35-.14zm1.8-.88l.14.35-.15.34-.35.15-.35-.16-.15-.35.15-.36.35-.15zm1.78-.9l.15.36-.14.35-.35.15-.34-.15-.15-.35.16-.36.35-.14zm1.8-.9l.14.36-.15.35-.35.15-.35-.15-.15-.35.15-.35.35-.15zm1.78-.9l.15.37-.16.36-.35.15-.36-.14-.15-.35.14-.35.35-.14zm1.8-.88l.14.35-.15.36-.35.15-.36-.14-.14-.35.14-.34.36-.15zm1.78-.9l.15.36-.15.35-.35.15-.36-.15-.13-.35.14-.36.37-.14zm1.8-.9l.14.36-.15.35-.34.15-.36-.15-.14-.35.14-.35.36-.15zm1.78-.9l.15.37-.15.35-.35.15-.36-.15-.15-.35.14-.36.35-.14zm1.8-.88l.14.35-.15.35-.36.15-.36-.15-.14-.35.14-.35.36-.15zm1.78-.9l.15.36-.15.35-.35.14-.36-.15-.14-.36.14-.36.36-.14zm1.8-.9l.14.36-.15.36-.35.14-.36-.14-.14-.36.14-.35.36-.16zm1.78-.9l.15.37-.14.35-.35.15-.35-.15-.14-.35.15-.36.36-.15zm1.8-.88l.14.35-.15.36-.35.15-.36-.14-.14-.35.14-.35.36-.15zm1.78-.9l.15.36-.16.35-.35.16-.37-.15-.14-.34.13-.36.36-.14zm1.8-.9l.14.36-.15.36-.35.14-.36-.14-.14-.36.14-.35.36-.14zm1.78-.9l.15.37-.15.35-.35.15-.36-.15-.13-.35.14-.36.37-.13zm1.8-.88l.13.35-.14.36-.35.14-.35-.14-.15-.36.15-.35.35-.15zm1.78-.9l.14.36-.14.35-.36.15-.35-.15-.16-.35.15-.36.34-.14zm1.8-.9l.13.36-.14.36-.37.14-.35-.14-.15-.36.15-.35.35-.15zm1.78-.9l.14.37-.14.34-.36.15-.35-.16-.15-.35.15-.37.35-.14zm1.8-.88l.13.35-.13.35-.36.14-.34-.15-.15-.36.16-.36.35-.15zm1.78-.9l.14.36-.14.35-.36.15-.35-.15-.15-.35.15-.36.35-.14zm1.8-.9l.13.36-.15.36-.36.14-.36-.14-.15-.36.14-.35.35-.15zm1.78-.9l.14.37-.14.36-.36.15-.35-.14-.15-.35.15-.35.35-.14zm1.8-.88l.13.35-.14.37-.36.14-.35-.13-.15-.36.15-.34.35-.15zm1.78-.9l.14.36-.14.35-.36.15-.35-.15-.14-.35.15-.35.36-.15zm1.8-.9l.13.36-.14.36-.35.14-.35-.14-.15-.36.15-.35.35-.15zm1.78-.88l.14.35-.14.35-.36.15-.35-.15-.16-.35.15-.35.34-.15zm1.8-.9l.13.35-.14.36-.37.13-.35-.14-.15-.37.15-.35.35-.15zm1.77-.9l.15.36-.15.35-.35.14-.35-.15-.15-.36.15-.35.35-.16zm1.8-.9l.14.36-.14.36-.35.14-.34-.14-.15-.36.16-.35.35-.16zm1.78-.88l.15.35-.15.35-.35.15-.35-.15-.15-.35.15-.35.35-.15zm1.8-.9l.14.35-.16.36-.35.15-.36-.14-.15-.35.14-.35.35-.15zm1.78-.9l.15.36-.15.35-.35.16-.35-.15-.15-.34.15-.35.35-.14zm1.8-.9l.14.37-.15.35-.35.15-.35-.15-.15-.35.15-.36.35-.13zm1.78-.88l.16.35-.15.35-.34.15-.35-.15-.14-.35.15-.35.36-.15zm1.8-.9l.15.36-.15.35-.35.15-.35-.15-.15-.35.15-.36.35-.14zm1.8-.9l.14.36-.15.35-.36.15-.35-.15-.16-.35.15-.35.34-.15zm1.78-.9l.15.37-.15.34-.35.15-.35-.16-.15-.35.15-.37.35-.14zm1.8-.88l.14.35-.15.34-.35.15-.36-.16-.14-.35.14-.36.36-.15zm1.78-.9l.15.36-.14.35-.35.15-.35-.15-.14-.35.15-.36.36-.14zm1.8-.9l.14.36-.15.35-.35.15-.36-.15-.14-.35.14-.35.36-.15zm1.78-.9l.15.37-.16.36-.35.15-.37-.14-.14-.35.13-.35.36-.14zm1.8-.88l.14.35-.15.36-.35.15-.36-.14-.14-.35.14-.34.36-.15zm1.78-.9l.15.36-.15.35-.35.15-.36-.15-.13-.35.14-.36.37-.14zm1.8-.9l.14.36-.15.36-.34.14-.36-.14-.14-.36.14-.35.36-.15zm1.78-.9l.15.37-.15.35-.35.15-.36-.15-.15-.35.14-.36.35-.14zm1.8-.88l.14.35-.15.36-.36.13-.36-.14-.14-.37.14-.35.36-.15zm1.78-.9l.15.36-.15.35-.35.14-.36-.15-.14-.36.14-.36.36-.14zm1.8-.9l.14.36-.15.36-.35.14-.36-.14-.14-.36.14-.35.36-.16zm1.78-.9l.15.37-.14.35-.35.15-.35-.15-.14-.35.15-.36.36-.15zm1.8-.88l.13.35-.15.36-.36.15-.36-.14-.15-.35.14-.35.35-.15zm1.78-.9l.14.36-.14.35-.36.16-.35-.15-.15-.34.15-.36.35-.14zm1.8-.9l.13.36-.14.36-.36.14-.35-.14-.15-.36.15-.35.35-.14zm1.78-.9l.14.37-.14.35-.36.15-.35-.15-.14-.35.15-.36.36-.13zm1.8-.88l.13.35-.14.36-.35.14-.35-.14-.15-.36.15-.35.35-.15zm1.78-.9l.14.36-.14.35-.36.15-.35-.15-.16-.35.15-.36.34-.14zm1.8-.9l.13.36-.14.36-.37.14-.35-.14-.15-.36.15-.35.35-.15zm1.78-.88l.14.35-.14.34-.36.15-.35-.16-.15-.35.15-.36.35-.15zm1.8-.9l.13.35-.13.35-.36.14-.34-.15-.15-.36.16-.36.35-.15zm1.78-.9l.14.36-.14.35-.36.15-.35-.15-.15-.35.15-.35.35-.15zm1.8-.9l.13.36-.15.36-.36.14-.36-.14-.15-.36.14-.35.35-.15zm1.78-.88l.14.35-.14.36-.36.15-.35-.14-.15-.35.15-.34.35-.15zm1.78-.9l.15.35-.15.37-.35.14-.35-.13-.15-.36.15-.34.35-.15zm1.8-.9l.14.36-.15.35-.34.15-.35-.15-.14-.35.15-.35.36-.15zm1.78-.9l.15.36-.15.36-.35.14-.35-.14-.15-.36.15-.35.35-.15zm1.8-.88l.14.35-.15.35-.36.15-.35-.15-.16-.35.15-.35.34-.15zm1.78-.9l.15.35-.15.36-.35.13-.35-.14-.15-.37.15-.35.35-.15zm1.8-.9l.14.36-.15.35-.35.14-.35-.15-.15-.36.15-.35.35-.16zm1.78-.9l.15.37-.14.35-.35.15-.34-.15-.15-.35.16-.36.35-.15zm1.8-.88l.14.35-.15.35-.35.15-.35-.15-.15-.35.15-.35.35-.15zm1.78-.9l.15.36-.16.35-.35.16-.36-.15-.15-.34.14-.36.35-.14zm1.8-.9l.14.36-.15.35-.35.16-.35-.15-.15-.34.15-.35.35-.14zm1.78-.9l.15.37-.15.35-.35.15-.36-.15-.13-.35.14-.36.37-.13zm1.8-.88l.14.35-.15.35-.34.15-.36-.15-.14-.35.14-.35.36-.15zm1.78-.9l.15.36-.15.35-.35.15-.36-.15-.15-.35.14-.36.35-.14zm1.8-.9l.14.36-.15.35-.36.15-.36-.15-.14-.35.14-.35.36-.15zm1.78-.9l.15.37-.15.34-.35.15-.36-.16-.14-.35.14-.37.36-.14zm1.8-.88l.14.35-.15.35-.35.14-.36-.15-.14-.36.14-.36.36-.15zm1.78-.9l.15.36-.14.35-.35.15-.35-.15-.14-.35.15-.36.36-.14zm1.8-.9l.14.36-.15.36-.35.14-.36-.14-.14-.36.14-.35.36-.15zm1.78-.9l.15.37-.16.36-.35.15-.37-.14-.14-.35.13-.35.36-.14zm1.8-.88l.14.35-.15.37-.35.14-.36-.13-.14-.36.14-.34.36-.15zm1.78-.9l.15.36-.15.35-.35.15-.36-.15-.13-.35.14-.36.37-.14zm1.8-.9l.14.36-.15.36-.34.14-.36-.14-.14-.36.14-.35.36-.15zm1.78-.9l.15.37-.15.35-.35.15-.36-.15-.15-.35.14-.36.35-.14zm1.8-.88l.13.35-.14.36-.37.13-.35-.14-.15-.37.15-.35.35-.15zm1.78-.9l.14.36-.14.35-.36.14-.35-.15-.15-.36.15-.36.35-.14zm1.8-.9l.13.36-.13.36-.36.14-.34-.14-.15-.36.16-.35.35-.16zm1.78-.9l.14.37-.14.35-.36.15-.35-.15-.15-.35.15-.36.35-.15zm1.8-.88l.13.35-.15.36-.36.15-.36-.14-.15-.35.14-.35.35-.15zm1.78-.9l.14.36-.14.35-.36.16-.35-.15-.15-.34.15-.36.35-.14zm1.8-.9l.13.36-.14.36-.36.14-.35-.14-.15-.36.15-.35.35-.14zm1.78-.88l.14.35-.14.35-.36.15-.35-.15-.14-.35.15-.35.36-.15zm1.8-.9l.13.35-.14.36-.35.14-.35-.14-.15-.36.15-.35.35-.15zm1.78-.9l.14.36-.14.35-.36.15-.35-.15-.16-.35.15-.35.34-.15zm1.8-.9l.13.36-.14.36-.37.14-.35-.14-.15-.36.15-.35.35-.15zm1.78-.88l.14.35-.14.34-.36.15-.35-.16-.15-.35.15-.36.35-.15zm1.78-.9l.15.35-.14.35-.35.14-.34-.15-.15-.36.16-.36.35-.15zm1.8-.9l.14.36-.15.35-.35.15-.35-.15-.15-.35.15-.35.35-.15zm1.78-.9l.15.36-.16.36-.35.14-.36-.14-.15-.36.14-.35.35-.15zm1.8-.88l.14.35-.15.36-.35.15-.35-.14-.15-.35.15-.34.35-.15zm1.78-.9l.15.35-.15.37-.35.14-.35-.13-.15-.36.15-.34.35-.15zm1.8-.9l.14.36-.15.35-.34.15-.35-.15-.14-.35.15-.35.36-.15zm1.78-.9l.15.37-.15.35-.35.15-.35-.15-.15-.35.15-.36.35-.14zm1.8-.88l.14.35-.15.35-.36.15-.35-.15-.16-.35.15-.35.34-.15zm1.78-.9l.15.36-.15.35-.35.14-.35-.15-.15-.36.15-.36.35-.14zm1.8-.9l.14.36-.15.35-.35.14-.35-.15-.15-.36.15-.35.35-.16zm1.78-.9l.15.37-.14.35-.35.15-.35-.15-.14-.35.15-.36.36-.15zm1.8-.88l.14.35-.15.35-.35.15-.36-.15-.14-.35.14-.35.36-.15zm1.78-.9l.15.36-.16.35-.35.16-.37-.15-.14-.34.13-.36.36-.14zm1.8-.9l.14.36-.15.35-.35.16-.36-.15-.14-.34.14-.35.36-.14zm1.78-.9l.15.37-.15.35-.35.15-.36-.15-.13-.35.14-.36.37-.13zm1.8-.88l.14.35-.15.36-.34.14-.36-.14-.14-.36.14-.35.36-.15zm1.78-.9l.15.36-.15.35-.35.15-.36-.15-.15-.35.14-.36.35-.14zm1.8-.9l.14.36-.15.36-.36.14-.36-.14-.14-.36.14-.35.36-.15zm1.78-.9l.15.37-.15.34-.35.15-.36-.16-.14-.35.14-.37.36-.14zm1.8-.88l.14.35-.15.35-.35.14-.36-.15-.14-.36.14-.36.36-.15zm1.78-.9l.15.36-.14.35-.35.15-.35-.15-.14-.35.15-.36.36-.14zm1.8-.9l.14.36-.15.36-.35.14-.36-.14-.14-.36.14-.35.36-.15zm1.78-.9l.14.37-.14.36-.36.15-.35-.14-.15-.35.15-.35.35-.14zm1.8-.88l.13.35-.14.37-.36.14-.35-.13-.15-.36.15-.34.35-.15zm1.78-.9l.14.36-.14.35-.36.15-.35-.15-.14-.35.15-.36.36-.14zm1.8-.9l.13.36-.14.36-.35.14-.35-.14-.15-.36.15-.35.35-.15zm1.78-.9l.14.37-.14.35-.36.15-.35-.15-.16-.35.15-.36.34-.14zm1.8-.88l.13.35-.14.36-.37.13-.35-.14-.15-.37.15-.35.35-.15zm1.78-.9l.14.36-.14.35-.36.14-.35-.15-.15-.36.15-.36.35-.14zm1.8-.9l.13.36-.13.36-.36.14-.34-.14-.15-.36.16-.35.35-.16zm1.78-.88l.14.35-.14.35-.36.15-.35-.15-.15-.35.15-.35.35-.15zm1.8-.9l.13.35-.15.36-.36.15-.36-.14-.15-.35.14-.35.35-.15zm1.78-.9l.14.36-.14.35-.36.16-.35-.15-.15-.34.15-.35.35-.14zm1.8-.9l.13.36-.14.36-.36.14-.35-.14-.15-.36.15-.35.35-.14zm1.78-.88l.14.35-.14.35-.36.15-.35-.15-.14-.35.15-.35.36-.15zm1.78-.9l.15.35-.15.36-.35.14-.35-.14-.15-.36.15-.35.35-.15zm1.8-.9l.14.36-.15.35-.36.15-.35-.15-.16-.35.15-.35.34-.15zm1.78-.9l.15.36-.15.36-.35.14-.35-.14-.15-.36.15-.35.35-.15zm1.8-.88l.14.35-.15.34-.35.15-.35-.16-.15-.35.15-.36.35-.15zm1.78-.9l.15.35-.14.35-.35.14-.34-.15-.15-.36.16-.36.35-.15zm1.8-.9l.14.36-.15.35-.35.15-.35-.15-.15-.35.15-.35.35-.15zm1.78-.9l.15.37-.16.36-.35.15-.36-.14-.15-.35.14-.35.35-.14zm1.8-.88l.14.35-.15.36-.35.15-.35-.14-.15-.35.15-.34.35-.15zm1.78-.9l.15.36-.15.35-.35.15-.35-.15-.15-.35.15-.36.35-.14zm1.8-.9l.14.36-.15.35-.34.15-.35-.15-.14-.35.15-.35.36-.15zm1.78-.9l.15.37-.15.35-.35.15-.36-.15-.15-.35.14-.36.35-.14zm1.8-.88l.14.35-.15.35-.36.15-.36-.15-.14-.35.14-.35.36-.15zm1.78-.9l.15.36-.15.35-.35.14-.36-.15-.14-.36.14-.36.36-.14zm1.8-.9l.14.36-.15.35-.35.14-.36-.15-.14-.36.14-.35.36-.16zm1.78-.9l.15.37-.14.35-.35.15-.35-.15-.14-.35.15-.36.36-.15zm1.8-.88l.14.35-.15.36-.35.15-.36-.14-.14-.35.14-.35.36-.15zm1.78-.9l.15.36-.16.35-.35.16-.37-.15-.14-.34.13-.36.36-.14zm1.8-.9l.14.36-.15.36-.35.14-.36-.14-.14-.36.14-.35.36-.14zm1.78-.9l.15.37-.15.35-.35.15-.36-.15-.13-.35.14-.36.37-.13zm1.8-.88l.14.35-.15.36-.34.14-.36-.14-.14-.36.14-.35.36-.15zm1.78-.9l.15.36-.15.35-.35.15-.36-.15-.15-.35.14-.36.35-.14zm1.8-.9l.14.36-.15.36-.36.14-.36-.14-.14-.36.14-.35.36-.15zm1.78-.9l.14.37-.14.34-.36.15-.35-.16-.15-.35.15-.37.35-.14zm1.8-.88l.13.35-.13.35-.36.14-.34-.15-.15-.36.16-.36.35-.15zm1.78-.9l.14.36-.14.35-.36.15-.35-.15-.15-.35.15-.36.35-.14zm1.8-.9l.13.36-.15.36-.36.14-.36-.14-.15-.36.14-.35.35-.15zm1.78-.9l.14.37-.14.36-.36.15-.35-.14-.15-.35.15-.35.35-.14zm1.8-.88l.13.35-.14.37-.36.14-.35-.13-.15-.36.15-.34.35-.15zm1.78-.9l.14.36-.14.35-.36.15-.35-.15-.14-.35.15-.36.36-.14zm1.8-.9l.13.36-.14.36-.35.14-.35-.14-.15-.36.15-.35.35-.15z" fill="#5e5e5e"/><path d="M401.68 462.22l-.46.23-.44-.9.46-.23zM801.22 262.45l-.46.23-.44-.9.46-.23zM800.9 461.42l.15.36-.14.35-.35.15-.35-.15-.15-.35.15-.36.35-.14zm-1.78-.9l.14.36-.14.36-.36.14-.35-.14-.14-.36.15-.35.36-.15zm-1.8-.9l.15.37-.14.34-.36.15-.35-.16-.15-.35.15-.37.35-.14zm-1.78-.88l.14.35-.14.35-.36.14-.35-.15-.15-.36.15-.36.35-.15zm-1.8-.9l.15.36-.15.35-.36.15-.36-.15-.15-.35.14-.36.35-.14zm-1.78-.9l.14.36-.14.36-.36.14-.35-.14-.15-.36.15-.35.35-.15zm-1.8-.9l.15.37-.13.36-.36.15-.34-.14-.15-.35.16-.35.35-.14zm-1.78-.88l.14.35-.14.37-.36.14-.35-.13-.15-.36.15-.34.35-.15zm-1.8-.9l.16.36-.15.35-.36.15-.36-.15-.14-.35.14-.36.36-.14zm-1.78-.9l.15.36-.15.36-.35.14-.36-.14-.15-.36.14-.35.35-.15zm-1.8-.9l.16.37-.15.35-.34.15-.36-.15-.14-.35.14-.36.36-.14zm-1.78-.88l.15.35-.15.36-.35.13-.36-.14-.13-.37.14-.35.37-.15zm-1.8-.9l.16.36-.15.35-.35.14-.36-.15-.14-.36.14-.36.36-.14zm-1.78-.9l.15.36-.16.36-.35.14-.37-.14-.14-.36.13-.35.36-.16zm-1.8-.9l.16.37-.15.35-.35.15-.36-.15-.14-.35.14-.36.36-.15zm-1.78-.88l.15.35-.14.36-.35.15-.35-.14-.14-.35.15-.35.36-.15zm-1.8-.9l.16.36-.15.35-.35.16-.36-.15-.14-.34.14-.35.36-.14zm-1.78-.9l.15.36-.15.36-.35.14-.36-.14-.14-.36.14-.35.36-.14zm-1.8-.88l.16.35-.15.35-.36.15-.36-.15-.14-.35.14-.35.36-.15zm-1.78-.9l.15.35-.15.36-.35.14-.36-.14-.15-.36.14-.35.35-.15zm-1.8-.9l.16.36-.15.35-.34.15-.35-.15-.14-.35.15-.35.36-.15zm-1.78-.9l.15.36-.15.36-.35.14-.35-.14-.15-.36.15-.35.35-.15zm-1.8-.88l.16.35-.15.34-.35.15-.35-.16-.15-.35.15-.36.35-.15zm-1.78-.9l.15.35-.16.35-.35.14-.36-.15-.15-.36.14-.36.35-.15zm-1.8-.9l.16.36-.15.35-.35.15-.35-.15-.15-.35.15-.35.35-.15zm-1.78-.9l.15.37-.14.36-.35.15-.34-.14-.15-.35.16-.35.35-.14zm-1.8-.88l.16.35-.15.36-.35.15-.35-.14-.15-.35.15-.34.35-.15zm-1.78-.9l.15.36-.15.35-.35.15-.35-.15-.15-.35.15-.36.35-.14zm-1.8-.9l.16.36-.15.35-.36.15-.35-.15-.16-.35.15-.35.34-.15zm-1.78-.9l.15.37-.15.35-.35.15-.35-.15-.15-.35.15-.36.35-.14zm-1.78-.88l.14.35-.14.35-.36.15-.35-.15-.14-.35.15-.35.36-.15zm-1.8-.9l.15.36-.14.35-.36.14-.35-.15-.15-.36.15-.36.35-.14zm-1.78-.9l.14.36-.14.35-.36.14-.35-.15-.15-.36.15-.35.35-.16zm-1.8-.9l.15.37-.15.35-.36.15-.36-.15-.15-.35.14-.36.35-.15zm-1.78-.88l.14.35-.14.35-.36.15-.35-.15-.15-.35.15-.35.35-.15zm-1.8-.9l.15.36-.13.35-.36.16-.34-.15-.15-.34.16-.36.35-.14zm-1.78-.9l.14.36-.14.36-.36.14-.35-.14-.15-.36.15-.35.35-.14zm-1.8-.9l.15.37-.14.35-.37.15-.35-.15-.15-.35.15-.36.35-.13zm-1.78-.88l.14.35-.14.36-.36.14-.35-.14-.16-.36.15-.35.34-.15zm-1.8-.9l.15.36-.14.35-.35.15-.35-.15-.15-.35.15-.36.35-.14zm-1.78-.9l.14.36-.14.36-.36.14-.35-.14-.14-.36.15-.35.36-.15zm-1.8-.9l.15.37-.14.34-.36.15-.35-.16-.15-.35.15-.37.35-.14zm-1.78-.88l.14.35-.14.35-.36.14-.35-.15-.15-.36.15-.36.35-.15zm-1.8-.9l.16.36-.15.35-.35.15-.36-.15-.14-.35.14-.36.36-.14zm-1.78-.9l.15.36-.14.36-.35.14-.35-.14-.14-.36.15-.35.36-.15zm-1.8-.9l.16.37-.15.36-.35.15-.36-.14-.14-.35.14-.35.36-.14zm-1.78-.88l.15.35-.15.37-.35.14-.36-.13-.14-.36.14-.34.36-.15zm-1.8-.9l.16.36-.15.35-.36.15-.36-.15-.14-.35.14-.36.36-.14zm-1.78-.9l.15.36-.15.36-.35.14-.36-.14-.15-.36.14-.35.35-.15zm-1.8-.9l.16.37-.15.35-.34.15-.36-.15-.14-.35.14-.36.36-.14zm-1.78-.88l.15.35-.15.36-.35.13-.36-.14-.13-.37.14-.35.37-.15zm-1.8-.9l.16.36-.15.35-.35.14-.36-.15-.14-.36.14-.35.36-.16zm-1.78-.9l.15.36-.16.36-.35.14-.37-.14-.14-.36.13-.35.36-.16zm-1.8-.88l.16.35-.15.35-.35.15-.36-.15-.14-.35.14-.35.36-.15zm-1.78-.9l.15.35-.14.36-.35.15-.35-.14-.14-.35.15-.35.36-.15zm-1.8-.9l.16.36-.15.35-.35.16-.35-.15-.15-.34.15-.35.35-.14zm-1.78-.9l.15.36-.15.36-.35.14-.35-.14-.15-.36.15-.35.35-.14zm-1.8-.88l.16.35-.15.35-.36.15-.35-.15-.16-.35.15-.35.34-.15zm-1.78-.9l.15.35-.15.36-.35.14-.35-.14-.15-.36.15-.35.35-.15zm-1.8-.9l.16.36-.15.35-.34.15-.35-.15-.14-.35.15-.35.36-.15zm-1.78-.9l.15.37-.15.34-.35.15-.35-.16-.15-.35.15-.37.35-.14zm-1.8-.88l.16.35-.15.34-.35.15-.35-.16-.15-.35.15-.36.35-.15zm-1.78-.9l.15.36-.16.35-.35.15-.36-.15-.15-.35.14-.36.35-.14zm-1.8-.9l.16.36-.15.35-.35.15-.35-.15-.15-.35.15-.35.35-.15zm-1.78-.9l.15.37-.14.36-.35.15-.34-.14-.15-.35.16-.35.35-.14zm-1.78-.88l.14.35-.14.36-.36.15-.35-.14-.15-.35.15-.34.35-.15zm-1.8-.9l.15.36-.14.35-.37.15-.35-.15-.15-.35.15-.36.35-.14zm-1.78-.9l.14.36-.14.35-.36.15-.35-.15-.16-.35.15-.35.34-.15zm-1.8-.9l.15.37-.14.35-.35.15-.35-.15-.15-.35.15-.36.35-.14zm-1.78-.88l.14.35-.14.35-.36.15-.35-.15-.14-.35.15-.35.36-.15zm-1.8-.9l.15.36-.14.35-.36.14-.35-.15-.15-.36.15-.36.35-.14zm-1.78-.9l.14.36-.14.36-.36.14-.35-.14-.15-.36.15-.35.35-.16zm-1.8-.9l.15.37-.15.35-.36.15-.36-.15-.15-.35.14-.36.35-.15zm-1.78-.88l.14.35-.14.36-.36.15-.35-.14-.15-.35.15-.35.35-.15zm-1.8-.9l.15.36-.13.35-.36.16-.34-.15-.15-.34.16-.36.35-.14zm-1.78-.9l.14.36-.14.36-.36.14-.35-.14-.15-.36.15-.35.35-.14zm-1.8-.9l.15.37-.14.35-.37.15-.35-.15-.15-.35.15-.36.35-.13zm-1.78-.88l.15.35-.15.36-.35.14-.36-.14-.15-.36.14-.35.35-.15zm-1.8-.9l.16.36-.15.35-.34.15-.36-.15-.14-.35.14-.36.36-.14zm-1.78-.9l.15.36-.15.36-.35.14-.36-.14-.13-.36.14-.35.37-.15zm-1.8-.9l.16.37-.15.34-.35.15-.36-.16-.14-.35.14-.37.36-.14zm-1.78-.88l.15.35-.16.35-.35.14-.37-.15-.14-.36.13-.36.36-.15zm-1.8-.9l.16.36-.15.35-.35.15-.36-.15-.14-.35.14-.36.36-.14zm-1.78-.9l.15.36-.14.36-.35.14-.35-.14-.14-.36.15-.35.36-.15zm-1.8-.9l.16.37-.15.36-.35.15-.36-.14-.14-.35.14-.35.36-.14zm-1.78-.88l.15.35-.15.37-.35.14-.36-.13-.14-.36.14-.34.36-.15zm-1.8-.9l.16.36-.15.35-.36.15-.36-.15-.14-.35.14-.35.36-.15zm-1.78-.9l.15.36-.15.36-.35.14-.36-.14-.15-.36.14-.35.35-.15zm-1.8-.88l.16.35-.15.35-.34.15-.36-.15-.14-.35.14-.35.36-.15zm-1.78-.9l.15.35-.15.36-.35.13-.36-.14-.13-.37.14-.35.37-.15zm-1.8-.9l.16.36-.15.35-.35.14-.35-.15-.15-.36.15-.35.35-.16zm-1.78-.9l.15.36-.16.36-.35.14-.36-.14-.15-.36.14-.35.35-.16zm-1.8-.88l.16.35-.15.35-.35.15-.35-.15-.15-.35.15-.35.35-.15zm-1.78-.9l.15.35-.14.36-.35.15-.34-.14-.15-.35.16-.35.35-.15zm-1.8-.9l.16.36-.15.35-.35.16-.35-.15-.15-.34.15-.35.35-.14zm-1.78-.9l.15.37-.15.35-.35.15-.35-.15-.15-.35.15-.36.35-.13zm-1.8-.88l.16.35-.15.35-.36.15-.35-.15-.16-.35.15-.35.34-.15zm-1.78-.9l.15.36-.15.35-.35.15-.35-.15-.15-.35.15-.36.35-.14zm-1.8-.9l.16.36-.15.35-.34.15-.35-.15-.14-.35.15-.35.36-.15zm-1.78-.9l.15.37-.15.34-.35.15-.35-.16-.15-.35.15-.37.35-.14zm-1.78-.88l.14.35-.14.34-.36.15-.35-.16-.15-.35.15-.36.35-.15zm-1.8-.9l.15.36-.15.35-.36.15-.36-.15-.15-.35.14-.36.35-.14zm-1.78-.9l.14.36-.14.35-.36.15-.35-.15-.15-.35.15-.35.35-.15zm-1.8-.9l.15.37-.13.36-.36.15-.34-.14-.15-.35.16-.35.35-.14zm-1.78-.88l.14.35-.14.36-.36.15-.35-.14-.15-.35.15-.34.35-.15zm-1.8-.9l.15.36-.14.35-.37.15-.35-.15-.15-.35.15-.36.35-.14zm-1.78-.9l.14.36-.14.36-.36.14-.35-.14-.16-.36.15-.35.34-.15zm-1.8-.9l.15.37-.14.35-.35.15-.35-.15-.15-.35.15-.36.35-.14zm-1.78-.88l.14.35-.14.36-.36.13-.35-.14-.14-.37.15-.35.36-.15zm-1.8-.9l.15.36-.14.35-.36.14-.35-.15-.15-.36.15-.36.35-.14zm-1.78-.9l.14.36-.14.36-.36.14-.35-.14-.15-.36.15-.35.35-.16zm-1.8-.9l.15.37-.15.35-.36.15-.36-.15-.15-.35.14-.36.35-.15zm-1.78-.88l.15.35-.14.36-.35.15-.35-.14-.14-.35.15-.35.36-.15zm-1.8-.9l.16.36-.15.35-.35.16-.36-.15-.14-.34.14-.36.36-.14zm-1.78-.9l.15.36-.15.36-.35.14-.36-.14-.14-.36.14-.35.36-.14zm-1.8-.9l.16.37-.15.35-.36.15-.36-.15-.14-.35.14-.36.36-.13zm-1.78-.88l.15.35-.15.36-.35.14-.36-.14-.15-.36.14-.35.35-.15zm-1.8-.9l.16.36-.15.35-.34.15-.36-.15-.14-.35.14-.36.36-.14zm-1.78-.9l.15.36-.15.36-.35.14-.36-.14-.13-.36.14-.35.37-.15zm-1.8-.88l.16.35-.15.34-.35.15-.36-.16-.14-.35.14-.36.36-.15zm-1.78-.9l.15.35-.16.35-.35.14-.37-.15-.14-.36.13-.36.36-.15zm-1.8-.9l.16.36-.15.35-.35.15-.36-.15-.14-.35.14-.35.36-.15zm-1.78-.9l.15.36-.14.36-.35.14-.35-.14-.14-.36.15-.35.36-.15zm-1.8-.88l.16.35-.15.36-.35.15-.36-.14-.14-.35.14-.34.36-.15zm-1.78-.9l.15.35-.15.37-.35.14-.35-.13-.15-.36.15-.34.35-.15zm-1.8-.9l.16.36-.15.35-.36.15-.35-.15-.16-.35.15-.35.34-.15zm-1.78-.9l.15.36-.15.36-.35.14-.35-.14-.15-.36.15-.35.35-.15zm-1.8-.88l.16.35-.15.35-.34.15-.35-.15-.14-.35.15-.35.36-.15zm-1.78-.9l.15.35-.15.36-.35.13-.35-.14-.15-.37.15-.35.35-.15zm-1.8-.9l.16.36-.15.35-.35.14-.35-.15-.15-.36.15-.35.35-.16zm-1.78-.9l.15.37-.16.35-.35.15-.36-.15-.15-.35.14-.36.35-.15zm-1.8-.88l.16.35-.15.35-.35.15-.35-.15-.15-.35.15-.35.35-.15zm-1.78-.9l.15.36-.14.35-.35.16-.34-.15-.15-.34.16-.36.35-.14zm-1.8-.9l.16.36-.15.35-.35.16-.35-.15-.15-.34.15-.35.35-.14zm-1.77-.9l.13.37-.14.35-.37.15-.35-.15-.15-.35.15-.36.35-.13zm-1.8-.88l.14.35-.14.35-.36.15-.35-.15-.16-.35.15-.35.34-.15zm-1.8-.9l.15.36-.14.35-.35.15-.35-.15-.15-.35.15-.36.35-.14zm-1.78-.9l.14.36-.14.35-.36.15-.35-.15-.14-.35.15-.35.36-.15zm-1.8-.9l.15.37-.14.34-.36.15-.35-.16-.15-.35.15-.37.35-.14zm-1.78-.88l.14.35-.14.35-.36.14-.35-.15-.15-.36.15-.36.35-.15zm-1.8-.9l.15.36-.15.35-.36.15-.36-.15-.15-.35.14-.36.35-.14zm-1.78-.9l.14.36-.14.36-.36.14-.35-.14-.15-.36.15-.35.35-.15zm-1.8-.9l.15.37-.13.36-.36.15-.34-.14-.15-.35.16-.35.35-.14zm-1.78-.88l.14.35-.14.37-.36.14-.35-.13-.15-.36.15-.34.35-.15zm-1.8-.9l.15.36-.14.35-.37.15-.35-.15-.15-.35.15-.36.35-.14zm-1.78-.9l.14.36-.14.36-.36.14-.35-.14-.16-.36.15-.35.34-.15zm-1.8-.9l.15.37-.14.35-.35.15-.35-.15-.15-.35.15-.36.35-.14zm-1.78-.88l.15.35-.15.36-.35.13-.36-.14-.13-.37.14-.35.37-.15zm-1.8-.9l.16.36-.15.35-.35.14-.36-.15-.14-.36.14-.36.36-.14zm-1.78-.9l.15.36-.16.36-.35.14-.37-.14-.14-.36.13-.35.36-.16zm-1.8-.9l.16.37-.15.35-.35.15-.36-.15-.14-.35.14-.36.36-.15zm-1.78-.88l.15.35-.14.36-.35.15-.35-.14-.14-.35.15-.35.36-.15zm-1.8-.9l.16.36-.15.35-.35.16-.36-.15-.14-.34.14-.36.36-.14zm-1.78-.9l.15.36-.15.36-.35.14-.36-.14-.14-.36.14-.35.36-.14zm-1.8-.88l.16.35-.15.35-.36.15-.36-.15-.14-.35.14-.35.36-.15zm-1.78-.9l.15.35-.15.36-.35.14-.36-.14-.15-.36.14-.35.35-.15zm-1.8-.9l.16.36-.15.35-.34.15-.36-.15-.14-.35.14-.35.36-.15zm-1.78-.9l.15.36-.15.36-.35.14-.36-.14-.13-.36.14-.35.37-.15zm-1.8-.88l.16.35-.15.34-.35.15-.36-.16-.14-.35.14-.36.36-.15zm-1.78-.9l.15.35-.16.35-.35.14-.36-.15-.15-.36.14-.36.35-.15zm-1.8-.9l.16.36-.15.35-.35.15-.35-.15-.15-.35.15-.35.35-.15zm-1.78-.9l.15.36-.14.36-.35.14-.34-.14-.15-.36.16-.35.35-.15zm-1.8-.88l.16.35-.15.36-.35.15-.35-.14-.15-.35.15-.34.35-.15zm-1.78-.9l.15.35-.15.37-.35.14-.35-.13-.15-.36.15-.34.35-.15zm-1.8-.9l.16.36-.15.35-.36.15-.35-.15-.16-.35.15-.35.34-.15zm-1.78-.9l.15.37-.15.35-.35.15-.35-.15-.15-.35.15-.36.35-.14zm-1.8-.88l.16.35-.15.35-.34.15-.35-.15-.14-.35.15-.35.36-.15zm-1.78-.9l.15.36-.15.35-.35.14-.35-.15-.15-.36.15-.36.35-.14zm-1.8-.9l.16.36-.15.35-.35.14-.35-.15-.15-.36.15-.35.35-.16zm-1.77-.9l.14.37-.15.35-.36.15-.36-.15-.15-.35.14-.36.35-.15zm-1.8-.88l.15.35-.14.35-.36.15-.35-.15-.15-.35.15-.35.35-.15zm-1.78-.9l.14.36-.13.35-.36.16-.34-.15-.15-.34.16-.36.35-.14zm-1.8-.9l.15.36-.14.35-.36.16-.35-.15-.15-.34.15-.35.35-.14zm-1.78-.9l.13.37-.14.35-.37.15-.35-.15-.15-.35.15-.36.35-.13zm-1.8-.88l.14.35-.14.36-.36.14-.35-.14-.16-.36.15-.35.34-.15zm-1.8-.9l.15.36-.14.35-.35.15-.35-.15-.15-.35.15-.36.35-.14zm-1.78-.9l.14.36-.14.36-.36.14-.35-.14-.14-.36.15-.35.36-.15zm-1.8-.9l.15.37-.14.34-.36.15-.35-.16-.15-.35.15-.37.35-.14zm-1.78-.88l.14.35-.14.35-.36.14-.35-.15-.15-.36.15-.36.35-.15zm-1.8-.9l.15.36-.15.35-.36.15-.36-.15-.15-.35.14-.36.35-.14zm-1.78-.9l.14.36-.14.36-.36.14-.35-.14-.15-.36.15-.35.35-.15zm-1.8-.9l.16.37-.15.36-.35.15-.36-.14-.14-.35.14-.35.36-.14zm-1.78-.88l.15.35-.15.37-.35.14-.36-.13-.14-.36.14-.34.36-.15zm-1.8-.9l.16.36-.15.35-.36.15-.36-.15-.14-.35.14-.36.36-.14zm-1.78-.9l.15.36-.15.36-.35.14-.36-.14-.15-.36.14-.35.35-.15zm-1.8-.9l.16.37-.15.35-.34.15-.36-.15-.14-.35.14-.36.36-.14zm-1.78-.88l.15.35-.15.36-.35.13-.36-.14-.13-.37.14-.35.37-.15zm-1.8-.9l.16.36-.15.35-.35.14-.36-.15-.14-.36.14-.36.36-.14zm-1.78-.9l.15.36-.16.36-.35.14-.37-.14-.14-.36.13-.35.36-.16zm-1.8-.88l.16.35-.15.35-.35.15-.36-.15-.14-.35.14-.35.36-.15zm-1.78-.9l.15.35-.14.36-.35.15-.35-.14-.14-.35.15-.35.36-.15zm-1.8-.9l.16.36-.15.35-.35.16-.36-.15-.14-.34.14-.35.36-.14zm-1.78-.9l.15.36-.15.36-.35.14-.36-.14-.14-.36.14-.35.36-.14zm-1.8-.88l.16.35-.15.35-.36.15-.36-.15-.14-.35.14-.35.36-.15zm-1.78-.9l.15.35-.15.36-.35.14-.35-.14-.15-.36.15-.35.35-.15zm-1.8-.9l.16.36-.15.35-.34.15-.35-.15-.14-.35.15-.35.36-.15zm-1.78-.9l.15.36-.15.36-.35.14-.35-.14-.15-.36.15-.35.35-.15zm-1.8-.88l.16.35-.15.34-.35.15-.35-.16-.15-.35.15-.36.35-.15zm-1.78-.9l.15.35-.16.35-.35.14-.36-.15-.15-.36.14-.36.35-.15zm-1.8-.9l.16.36-.15.35-.35.15-.35-.15-.15-.35.15-.35.35-.15zm-1.78-.9l.15.37-.14.36-.35.15-.34-.14-.15-.35.16-.35.35-.14zm-1.8-.88l.16.35-.15.36-.35.15-.35-.14-.15-.35.15-.34.35-.15zm-1.78-.9l.15.36-.15.35-.35.15-.35-.15-.15-.35.15-.36.35-.14zm-1.8-.9l.16.36-.15.35-.36.15-.35-.15-.16-.35.15-.35.34-.15zm-1.77-.9l.15.37-.14.35-.35.15-.35-.15-.15-.35.15-.36.35-.14zm-1.78-.88l.14.35-.14.35-.36.15-.35-.15-.14-.35.15-.35.36-.15zm-1.8-.9l.15.36-.14.35-.36.14-.35-.15-.15-.36.15-.36.35-.14zm-1.78-.9l.14.36-.14.35-.36.14-.35-.15-.15-.36.15-.35.35-.16zm-1.8-.9l.15.37-.15.35-.36.15-.36-.15-.15-.35.14-.36.35-.15zm-1.78-.88l.14.35-.14.36-.36.15-.35-.14-.15-.35.15-.35.35-.15zm-1.8-.9l.15.36-.13.35-.36.16-.34-.15-.15-.34.16-.36.35-.14zm-1.78-.9l.14.36-.14.36-.36.14-.35-.14-.15-.36.15-.35.35-.14zm-1.8-.9l.15.37-.14.35-.37.15-.35-.15-.15-.35.15-.36.35-.13zm-1.78-.88l.14.35-.14.36-.36.14-.35-.14-.16-.36.15-.35.34-.15zm-1.8-.9l.15.36-.14.35-.35.15-.35-.15-.15-.35.15-.36.35-.14zm-1.78-.9l.14.36-.14.36-.36.14-.35-.14-.14-.36.15-.35.36-.15zm-1.8-.9l.16.37-.15.34-.35.15-.36-.16-.14-.35.14-.37.36-.14zm-1.78-.88l.15.35-.16.35-.35.14-.37-.15-.14-.36.13-.36.36-.15zm-1.8-.9l.16.36-.15.35-.35.15-.36-.15-.14-.35.14-.36.36-.14zm-1.78-.9l.15.36-.14.36-.35.14-.35-.14-.14-.36.15-.35.36-.15zm-1.8-.9l.16.37-.15.36-.35.15-.36-.14-.14-.35.14-.35.36-.14zm-1.78-.88l.15.35-.15.37-.35.14-.36-.13-.14-.36.14-.34.36-.15zm-1.8-.9l.16.36-.15.35-.36.15-.36-.15-.14-.35.14-.36.36-.14zm-1.78-.9l.15.36-.15.36-.35.14-.36-.14-.15-.36.14-.35.35-.15z" fill="#5e5e5e"/><path d="M401.68 261.78l-.44.9-.46-.23.44-.9zM801.22 461.55l-.44.9-.46-.23.44-.9z" fill="#5e5e5e"/><path d="M754.1 323.77H681v-2h73.1zm124.9 0h-46.57v-2H879z" fill="#7ab648"/><path d="M681.03 323.77H680v-2h1.03zM880 323.77h-1.03v-2H880z" fill="#7ab648"/><use xlink:href="#a" transform="matrix(1,0,0,1,754.0957592983192,306.76671950758185) translate(0.005000000000002558 10.666666666666668)"/><use xlink:href="#b" transform="matrix(1,0,0,1,754.0957592983192,306.76671950758185) translate(57.708703703703705 10.666666666666668)"/><use xlink:href="#c" transform="matrix(1,0,0,1,754.0957592983192,306.76671950758185) translate(11.06055555555556 26.666666666666668)"/><path d="M753.3 401H681v-2h72.3zm125.7 0h-45.77v-2H879z" fill="#7ab648"/><path d="M681.03 401H680v-2h1.03zM880 401h-1.03v-2H880z" fill="#7ab648"/><use xlink:href="#a" transform="matrix(1,0,0,1,753.2994630020229,384) translate(0.005000000000002558 10.666666666666668)"/><use xlink:href="#d" transform="matrix(1,0,0,1,753.2994630020229,384) translate(57.708703703703705 10.666666666666668)"/><use xlink:href="#c" transform="matrix(1,0,0,1,753.2994630020229,384) translate(11.85685185185185 26.666666666666668)"/><path d="M427.52 363H401v-2h26.52zM879 363H510.22v-2H879z" fill="#ff8f80"/><path d="M401.03 363H400v-2h1.03zM880 363h-1.03v-2H880z" fill="#ff8f80"/><use xlink:href="#e" transform="matrix(1,0,0,1,427.52081072074446,338) translate(19.227222222222224 10.666666666666668)"/><use xlink:href="#f" transform="matrix(1,0,0,1,427.52081072074446,338) translate(13.245740740740743 26.666666666666668)"/><use xlink:href="#g" transform="matrix(1,0,0,1,427.52081072074446,338) translate(0.005000000000002558 42.66666666666667)"/><use xlink:href="#h" transform="matrix(1,0,0,1,427.52081072074446,338) translate(30.33833333333334 42.66666666666667)"/><use xlink:href="#i" transform="matrix(1,0,0,1,427.52081072074446,338) translate(57.671666666666674 42.66666666666667)"/><path d="M601 562.25h-2V288.08h2zm0-306.17h-2V161h2z" fill="#ff8f80"/><path d="M601 563.25h-2v-1.03h2zM601 161.03h-2V160h2z" fill="#ff8f80"/><use xlink:href="#e" transform="matrix(1,0,0,1,577.8703703703703,256.0756143055374) translate(0.004999999999999005 10.666666666666668)"/><use xlink:href="#j" transform="matrix(1,0,0,1,577.8703703703703,256.0756143055374) translate(8.116111111111111 26.666666666666668)"/><path d="M681 559h-2V244.9h2zm0-346.1h-2V161h2z" fill="#7ab648"/><path d="M681 560h-2v-1.03h2zM681 161.03h-2V160h2z" fill="#7ab648"/><use xlink:href="#k" transform="matrix(1,0,0,1,645.2592592592592,212.8851123997257) translate(0.005000000000002558 10.666666666666668)"/><use xlink:href="#l" transform="matrix(1,0,0,1,645.2592592592592,212.8851123997257) translate(20.72722222222223 26.666666666666668)"/><path d="M919.85 559.65l.15.35-.15.35-.35.15-.35-.15-.15-.35.15-.35.35-.15zm-2 0l.15.35-.14.35-.36.15-.35-.15-.15-.35.15-.35.35-.15zm-2 0l.16.35-.14.35-.35.15-.35-.15-.14-.35.15-.35.36-.15zm-1.98 0l.14.35-.13.35-.36.15-.34-.15-.15-.35.16-.35.35-.15zm-2 0l.15.35-.15.35-.35.15-.36-.15-.14-.35.14-.35.36-.15zm-2 0l.15.35-.15.35-.35.15-.35-.15-.15-.35.15-.35.35-.15zm-2 0l.15.35-.14.35-.36.15-.35-.15-.15-.35.15-.35.35-.15zm-2 0l.16.35-.15.35-.35.15-.36-.15-.14-.35.14-.35.36-.15zm-2 0l.16.35-.15.35-.35.15-.35-.15-.15-.35.15-.35.35-.15zm-1.98 0l.13.35-.14.35-.37.15-.35-.15-.15-.35.15-.35.35-.15zm-2 0l.14.35-.15.35-.36.15-.36-.15-.14-.35.14-.35.36-.15zm-2 0l.14.35-.14.35-.36.15-.35-.15-.16-.35.15-.35.34-.15zm-2 0l.15.35-.15.35-.35.15-.36-.15-.15-.35.14-.35.35-.15zm-2 0l.15.35-.15.35-.35.15-.35-.15-.15-.35.15-.35.35-.15zm-2 0l.15.35-.14.35-.35.15-.35-.15-.15-.35.15-.35.35-.15zm-2 0l.16.35-.15.35-.34.15-.36-.15-.14-.35.14-.35.36-.15zm-1.98 0l.14.35-.14.35-.36.15-.35-.15-.14-.35.15-.35.36-.15zm-2 0l.15.35-.15.35-.35.15-.36-.15-.13-.35.14-.35.37-.15zm-2 0l.15.35-.15.35-.35.15-.35-.15-.15-.35.15-.35.35-.15zm-2 0l.15.35-.14.35-.36.15-.35-.15-.15-.35.15-.35.35-.15zm-2 0l.16.35-.15.35-.35.15-.36-.15-.14-.35.14-.35.36-.15zm-2 0l.16.35-.15.35-.35.15-.35-.15-.15-.35.15-.35.35-.15zm-1.98 0l.14.35-.14.35-.36.15-.35-.15-.15-.35.15-.35.35-.15zm-2 0l.15.35-.16.35-.35.15-.37-.15-.14-.35.13-.35.36-.15zm-2 0l.15.35-.15.35-.36.15-.36-.15-.15-.35.14-.35.35-.15zm-2 0l.16.35-.15.35-.35.15-.36-.15-.14-.35.14-.35.36-.15zm-2 0l.16.35-.15.35-.35.15-.35-.15-.15-.35.15-.35.35-.15zm-1.98 0l.14.35-.14.35-.36.15-.35-.15-.15-.35.15-.35.35-.15zm-2 0l.15.35-.14.35-.35.15-.35-.15-.14-.35.15-.35.36-.15zm-2 0l.15.35-.13.35-.36.15-.34-.15-.15-.35.16-.35.35-.15zm-2 0l.16.35-.15.35-.35.15-.36-.15-.14-.35.14-.35.36-.15zm-2 0l.16.35-.15.35-.35.15-.35-.15-.15-.35.15-.35.35-.15zm-1.98 0l.14.35-.14.35-.36.15-.35-.15-.15-.35.15-.35.35-.15zm-2 0l.15.35-.15.35-.35.15-.36-.15-.14-.35.14-.35.36-.15zm-2 0l.15.35-.15.35-.35.15-.35-.15-.15-.35.15-.35.35-.15zm-2 0l.15.35-.14.35-.37.15-.35-.15-.15-.35.15-.35.35-.15zm-2 0l.16.35-.15.35-.36.15-.36-.15-.14-.35.14-.35.36-.15zm-1.98 0l.14.35-.14.35-.36.15-.35-.15-.16-.35.15-.35.34-.15zm-2 0l.15.35-.15.35-.35.15-.36-.15-.15-.35.14-.35.35-.15zm-2 0l.15.35-.15.35-.35.15-.35-.15-.15-.35.15-.35.35-.15zm-2 0l.15.35-.14.35-.35.15-.35-.15-.15-.35.15-.35.35-.15zm-2 0l.16.35-.15.35-.34.15-.36-.15-.14-.35.14-.35.36-.15zm-1.98 0l.14.35-.14.35-.36.15-.35-.15-.14-.35.15-.35.36-.15zm-2 0l.15.35-.15.35-.35.15-.36-.15-.13-.35.14-.35.37-.15zm-2 0l.15.35-.15.35-.35.15-.35-.15-.15-.35.15-.35.35-.15zm-2 0l.15.35-.14.35-.36.15-.35-.15-.15-.35.15-.35.35-.15zm-2 0l.16.35-.15.35-.35.15-.36-.15-.14-.35.14-.35.36-.15zm-2 0l.16.35-.15.35-.35.15-.35-.15-.15-.35.15-.35.35-.15zm-1.98 0l.14.35-.14.35-.36.15-.35-.15-.15-.35.15-.35.35-.15zm-2 0l.15.35-.16.35-.35.15-.37-.15-.14-.35.13-.35.36-.15zm-2 0l.15.35-.15.35-.36.15-.36-.15-.15-.35.14-.35.35-.15zm-2 0l.16.35-.15.35-.35.15-.36-.15-.14-.35.14-.35.36-.15zm-2 0l.16.35-.15.35-.35.15-.35-.15-.15-.35.15-.35.35-.15zm-1.98 0l.14.35-.14.35-.36.15-.35-.15-.15-.35.15-.35.35-.15zm-2 0l.15.35-.14.35-.35.15-.35-.15-.14-.35.15-.35.36-.15zm-2 0l.15.35-.13.35-.36.15-.34-.15-.15-.35.16-.35.35-.15zm-2 0l.16.35-.15.35-.35.15-.36-.15-.14-.35.14-.35.36-.15zm-2 0l.16.35-.15.35-.35.15-.35-.15-.15-.35.15-.35.35-.15zm-1.98 0l.14.35-.14.35-.36.15-.35-.15-.15-.35.15-.35.35-.15zm-2 0l.15.35-.15.35-.35.15-.36-.15-.14-.35.14-.35.36-.15zm-2 0l.15.35-.15.35-.35.15-.35-.15-.15-.35.15-.35.35-.15zm-2 0l.15.35-.14.35-.37.15-.35-.15-.15-.35.15-.35.35-.15zm-2 0l.16.35-.15.35-.36.15-.36-.15-.14-.35.14-.35.36-.15zm-1.98 0l.14.35-.14.35-.36.15-.35-.15-.16-.35.15-.35.34-.15zm-2 0l.15.35-.15.35-.35.15-.36-.15-.15-.35.14-.35.35-.15zm-2 0l.15.35-.15.35-.35.15-.35-.15-.15-.35.15-.35.35-.15zm-2 0l.15.35-.14.35-.35.15-.35-.15-.15-.35.15-.35.35-.15zm-2 0l.16.35-.15.35-.34.15-.36-.15-.14-.35.14-.35.36-.15zm-1.98 0l.14.35-.14.35-.36.15-.35-.15-.14-.35.15-.35.36-.15zm-2 0l.15.35-.15.35-.35.15-.36-.15-.13-.35.14-.35.37-.15zm-2 0l.15.35-.15.35-.35.15-.35-.15-.15-.35.15-.35.35-.15zm-2 0l.15.35-.14.35-.36.15-.35-.15-.15-.35.15-.35.35-.15zm-2 0l.16.35-.15.35-.35.15-.36-.15-.14-.35.14-.35.36-.15zm-2 0l.16.35-.15.35-.35.15-.35-.15-.15-.35.15-.35.35-.15zm-1.98 0l.14.35-.14.35-.36.15-.35-.15-.15-.35.15-.35.35-.15zm-2 0l.15.35-.16.35-.35.15-.37-.15-.14-.35.13-.35.36-.15zm-2 0l.15.35-.15.35-.36.15-.36-.15-.15-.35.14-.35.35-.15zm-2 0l.16.35-.15.35-.35.15-.36-.15-.14-.35.14-.35.36-.15zm-2 0l.16.35-.15.35-.35.15-.35-.15-.15-.35.15-.35.35-.15zm-1.98 0l.14.35-.14.35-.36.15-.35-.15-.15-.35.15-.35.35-.15zm-2 0l.15.35-.14.35-.35.15-.35-.15-.14-.35.15-.35.36-.15zm-2 0l.15.35-.13.35-.36.15-.34-.15-.15-.35.16-.35.35-.15zm-2 0l.16.35-.15.35-.35.15-.36-.15-.14-.35.14-.35.36-.15zm-2 0l.16.35-.15.35-.35.15-.35-.15-.15-.35.15-.35.35-.15zm-1.98 0l.14.35-.14.35-.36.15-.35-.15-.15-.35.15-.35.35-.15zm-2 0l.15.35-.15.35-.35.15-.36-.15-.14-.35.14-.35.36-.15zm-2 0l.15.35-.15.35-.35.15-.35-.15-.15-.35.15-.35.35-.15zm-2 0l.15.35-.14.35-.37.15-.35-.15-.15-.35.15-.35.35-.15zm-2 0l.16.35-.15.35-.36.15-.36-.15-.14-.35.14-.35.36-.15zm-1.98 0l.14.35-.14.35-.36.15-.35-.15-.16-.35.15-.35.34-.15zm-2 0l.15.35-.15.35-.35.15-.36-.15-.15-.35.14-.35.35-.15zm-2 0l.15.35-.15.35-.35.15-.35-.15-.15-.35.15-.35.35-.15zm-2 0l.15.35-.14.35-.35.15-.35-.15-.15-.35.15-.35.35-.15zm-2 0l.16.35-.15.35-.34.15-.36-.15-.14-.35.14-.35.36-.15zm-1.98 0l.14.35-.14.35-.36.15-.35-.15-.14-.35.15-.35.36-.15zm-2 0l.15.35-.15.35-.35.15-.36-.15-.13-.35.14-.35.37-.15zm-2 0l.15.35-.15.35-.35.15-.35-.15-.15-.35.15-.35.35-.15zm-2 0l.15.35-.14.35-.36.15-.35-.15-.15-.35.15-.35.35-.15zm-2 0l.16.35-.15.35-.35.15-.36-.15-.14-.35.14-.35.36-.15zm-2 0l.16.35-.15.35-.35.15-.35-.15-.15-.35.15-.35.35-.15zm-1.98 0l.14.35-.14.35-.36.15-.35-.15-.15-.35.15-.35.35-.15zm-2 0l.15.35-.16.35-.35.15-.37-.15-.14-.35.13-.35.36-.15zm-2 0l.15.35-.15.35-.36.15-.36-.15-.15-.35.14-.35.35-.15zm-2 0l.16.35-.15.35-.35.15-.36-.15-.14-.35.14-.35.36-.15zm-2 0l.16.35-.15.35-.35.15-.35-.15-.15-.35.15-.35.35-.15zm-1.98 0l.14.35-.14.35-.36.15-.35-.15-.15-.35.15-.35.35-.15zm-2 0l.15.35-.14.35-.35.15-.35-.15-.14-.35.15-.35.36-.15zm-2 0l.15.35-.13.35-.36.15-.34-.15-.15-.35.16-.35.35-.15zm-2 0l.16.35-.15.35-.35.15-.36-.15-.14-.35.14-.35.36-.15zm-2 0l.16.35-.15.35-.35.15-.35-.15-.15-.35.15-.35.35-.15zm-1.98 0l.14.35-.14.35-.36.15-.35-.15-.15-.35.15-.35.35-.15zm-2 0l.15.35-.15.35-.35.15-.36-.15-.14-.35.14-.35.36-.15zm-2 0l.15.35-.15.35-.35.15-.35-.15-.15-.35.15-.35.35-.15zm-2 0l.15.35-.14.35-.37.15-.35-.15-.15-.35.15-.35.35-.15zm-2 0l.16.35-.15.35-.36.15-.36-.15-.14-.35.14-.35.36-.15zm-1.98 0l.14.35-.14.35-.36.15-.35-.15-.16-.35.15-.35.34-.15zm-2 0l.15.35-.15.35-.35.15-.36-.15-.15-.35.14-.35.35-.15zm-2 0l.15.35-.15.35-.35.15-.35-.15-.15-.35.15-.35.35-.15zm-2 0l.15.35-.14.35-.35.15-.35-.15-.15-.35.15-.35.35-.15zm-2 0l.16.35-.15.35-.34.15-.36-.15-.14-.35.14-.35.36-.15zm-1.98 0l.14.35-.14.35-.36.15-.35-.15-.14-.35.15-.35.36-.15zm-2 0l.15.35-.15.35-.35.15-.36-.15-.13-.35.14-.35.37-.15zm-2 0l.15.35-.15.35-.35.15-.35-.15-.15-.35.15-.35.35-.15zm-2 0l.15.35-.14.35-.36.15-.35-.15-.15-.35.15-.35.35-.15zm-2 0l.16.35-.15.35-.35.15-.36-.15-.14-.35.14-.35.36-.15zm-2 0l.16.35-.15.35-.35.15-.35-.15-.15-.35.15-.35.35-.15zm-1.98 0l.14.35-.14.35-.36.15-.35-.15-.15-.35.15-.35.35-.15zm-2 0l.15.35-.16.35-.35.15-.37-.15-.14-.35.13-.35.36-.15zm-2 0l.15.35-.15.35-.36.15-.36-.15-.15-.35.14-.35.35-.15zm-2 0l.16.35-.15.35-.35.15-.36-.15-.14-.35.14-.35.36-.15zm-2 0l.16.35-.15.35-.35.15-.35-.15-.15-.35.15-.35.35-.15zm-1.98 0l.14.35-.14.35-.36.15-.35-.15-.15-.35.15-.35.35-.15zm-2 0l.15.35-.14.35-.35.15-.35-.15-.14-.35.15-.35.36-.15zm-2 0l.15.35-.13.35-.36.15-.34-.15-.15-.35.16-.35.35-.15zm-2 0l.16.35-.15.35-.35.15-.36-.15-.14-.35.14-.35.36-.15zm-2 0l.16.35-.15.35-.35.15-.35-.15-.15-.35.15-.35.35-.15zm-1.98 0l.14.35-.14.35-.36.15-.35-.15-.15-.35.15-.35.35-.15zm-2 0l.15.35-.15.35-.35.15-.36-.15-.14-.35.14-.35.36-.15zm-2 0l.15.35-.15.35-.35.15-.35-.15-.15-.35.15-.35.35-.15zm-2 0l.15.35-.14.35-.37.15-.35-.15-.15-.35.15-.35.35-.15zm-2 0l.16.35-.15.35-.36.15-.36-.15-.14-.35.14-.35.36-.15zm-1.98 0l.14.35-.14.35-.36.15-.35-.15-.16-.35.15-.35.34-.15zm-2 0l.15.35-.15.35-.35.15-.36-.15-.15-.35.14-.35.35-.15zm-2 0l.15.35-.15.35-.35.15-.35-.15-.15-.35.15-.35.35-.15zm-2 0l.15.35-.14.35-.35.15-.35-.15-.15-.35.15-.35.35-.15zm-2 0l.16.35-.15.35-.34.15-.36-.15-.14-.35.14-.35.36-.15zm-1.98 0l.14.35-.14.35-.36.15-.35-.15-.14-.35.15-.35.36-.15zm-2 0l.15.35-.15.35-.35.15-.36-.15-.13-.35.14-.35.37-.15zm-2 0l.15.35-.15.35-.35.15-.35-.15-.15-.35.15-.35.35-.15zm-2 0l.15.35-.14.35-.36.15-.35-.15-.15-.35.15-.35.35-.15zm-2 0l.16.35-.15.35-.35.15-.36-.15-.14-.35.14-.35.36-.15zm-2 0l.16.35-.15.35-.35.15-.35-.15-.15-.35.15-.35.35-.15zm-1.98 0l.14.35-.14.35-.36.15-.35-.15-.15-.35.15-.35.35-.15zm-2 0l.15.35-.16.35-.35.15-.37-.15-.14-.35.13-.35.36-.15zm-2 0l.15.35-.15.35-.36.15-.36-.15-.15-.35.14-.35.35-.15zm-2 0l.16.35-.15.35-.35.15-.36-.15-.14-.35.14-.35.36-.15zm-2 0l.16.35-.15.35-.35.15-.35-.15-.15-.35.15-.35.35-.15zm-1.98 0l.14.35-.14.35-.36.15-.35-.15-.15-.35.15-.35.35-.15zm-2 0l.15.35-.14.35-.35.15-.35-.15-.14-.35.15-.35.36-.15zm-2 0l.15.35-.13.35-.36.15-.34-.15-.15-.35.16-.35.35-.15zm-2 0l.16.35-.15.35-.35.15-.36-.15-.14-.35.14-.35.36-.15zm-2 0l.16.35-.15.35-.35.15-.35-.15-.15-.35.15-.35.35-.15zm-1.98 0l.14.35-.14.35-.36.15-.35-.15-.15-.35.15-.35.35-.15zm-2 0l.15.35-.15.35-.35.15-.36-.15-.14-.35.14-.35.36-.15zm-2 0l.15.35-.15.35-.35.15-.35-.15-.15-.35.15-.35.35-.15zm-2 0l.15.35-.14.35-.37.15-.35-.15-.15-.35.15-.35.35-.15zm-2 0l.16.35-.15.35-.36.15-.36-.15-.14-.35.14-.35.36-.15zm-1.98 0l.14.35-.14.35-.36.15-.35-.15-.16-.35.15-.35.34-.15zm-2 0l.15.35-.15.35-.35.15-.36-.15-.15-.35.14-.35.35-.15zm-2 0l.15.35-.15.35-.35.15-.35-.15-.15-.35.15-.35.35-.15zm-2 0l.15.35-.14.35-.35.15-.35-.15-.15-.35.15-.35.35-.15zm-2 0l.16.35-.15.35-.34.15-.36-.15-.14-.35.14-.35.36-.15zm-1.98 0l.14.35-.14.35-.36.15-.35-.15-.14-.35.15-.35.36-.15zm-2 0l.15.35-.15.35-.35.15-.36-.15-.13-.35.14-.35.37-.15zm-2 0l.15.35-.15.35-.35.15-.35-.15-.15-.35.15-.35.35-.15zm-2 0l.15.35-.14.35-.36.15-.35-.15-.15-.35.15-.35.35-.15zm-2 0l.16.35-.15.35-.35.15-.36-.15-.14-.35.14-.35.36-.15zm-2 0l.16.35-.15.35-.35.15-.35-.15-.15-.35.15-.35.35-.15zm-1.98 0l.14.35-.14.35-.36.15-.35-.15-.15-.35.15-.35.35-.15zm-2 0l.15.35-.16.35-.35.15-.37-.15-.14-.35.13-.35.36-.15zm-2 0l.15.35-.15.35-.36.15-.36-.15-.15-.35.14-.35.35-.15zm-2 0l.16.35-.15.35-.35.15-.36-.15-.14-.35.14-.35.36-.15zm-2 0l.16.35-.15.35-.35.15-.35-.15-.15-.35.15-.35.35-.15zm-1.98 0l.14.35-.14.35-.36.15-.35-.15-.15-.35.15-.35.35-.15zm-2 0l.15.35-.14.35-.35.15-.35-.15-.14-.35.15-.35.36-.15zm-2 0l.15.35-.13.35-.36.15-.34-.15-.15-.35.16-.35.35-.15zm-2 0l.16.35-.15.35-.35.15-.36-.15-.14-.35.14-.35.36-.15zm-2 0l.16.35-.15.35-.35.15-.35-.15-.15-.35.15-.35.35-.15zm-1.98 0l.14.35-.14.35-.36.15-.35-.15-.15-.35.15-.35.35-.15zm-2 0l.15.35-.15.35-.35.15-.36-.15-.14-.35.14-.35.36-.15zm-2 0l.15.35-.15.35-.35.15-.35-.15-.15-.35.15-.35.35-.15zm-2 0l.15.35-.14.35-.37.15-.35-.15-.15-.35.15-.35.35-.15zm-2 0l.16.35-.15.35-.36.15-.36-.15-.14-.35.14-.35.36-.15zm-1.98 0l.14.35-.14.35-.36.15-.35-.15-.16-.35.15-.35.34-.15zm-2 0l.15.35-.15.35-.35.15-.36-.15-.15-.35.14-.35.35-.15zm-2 0l.15.35-.15.35-.35.15-.35-.15-.15-.35.15-.35.35-.15zm-75.85 0l.04.1v.5l-.05.1-.35.15-.36-.15-.14-.35.14-.35.36-.15zm-2 0l.15.35-.15.35-.35.15-.35-.15-.15-.35.15-.35.35-.15zm-2 0l.15.35-.14.35-.36.15-.35-.15-.15-.35.15-.35.35-.15zm-2 0l.16.35-.14.35-.35.15-.35-.15-.14-.35.15-.35.36-.15zm-1.98 0l.14.35-.13.35-.36.15-.34-.15-.15-.35.16-.35.35-.15zm-2 0l.15.35-.15.35-.35.15-.36-.15-.14-.35.14-.35.36-.15zm-2 0l.15.35-.15.35-.35.15-.35-.15-.15-.35.15-.35.35-.15zm-2 0l.15.35-.14.35-.36.15-.35-.15-.15-.35.15-.35.35-.15zm-2 0l.16.35-.15.35-.35.15-.36-.15-.14-.35.14-.35.36-.15zm-2 0l.16.35-.15.35-.35.15-.35-.15-.15-.35.15-.35.35-.15zm-1.98 0l.13.35-.14.35-.37.15-.35-.15-.15-.35.15-.35.35-.15zm-2 0l.14.35-.15.35-.36.15-.36-.15-.14-.35.14-.35.36-.15zm-2 0l.14.35-.14.35-.36.15-.35-.15-.16-.35.15-.35.34-.15zm-2 0l.15.35-.15.35-.35.15-.36-.15-.15-.35.14-.35.35-.15zm-2 0l.15.35-.15.35-.35.15-.35-.15-.15-.35.15-.35.35-.15zm-2 0l.15.35-.14.35-.35.15-.35-.15-.15-.35.15-.35.35-.15zm-2 0l.16.35-.15.35-.34.15-.36-.15-.14-.35.14-.35.36-.15zm-1.98 0l.14.35-.14.35-.36.15-.35-.15-.14-.35.15-.35.36-.15zm-2 0l.15.35-.15.35-.35.15-.36-.15-.13-.35.14-.35.37-.15zm-2 0l.15.35-.15.35-.35.15-.35-.15-.15-.35.15-.35.35-.15zm-2 0l.15.35-.14.35-.36.15-.35-.15-.15-.35.15-.35.35-.15zm-2 0l.16.35-.15.35-.35.15-.36-.15-.14-.35.14-.35.36-.15zm-2 0l.16.35-.15.35-.35.15-.35-.15-.15-.35.15-.35.35-.15zm-1.98 0l.14.35-.14.35-.36.15-.35-.15-.15-.35.15-.35.35-.15zm-2 0l.15.35-.16.35-.35.15-.37-.15-.14-.35.13-.35.36-.15zm-2 0l.15.35-.15.35-.36.15-.36-.15-.15-.35.14-.35.35-.15zm-2 0l.16.35-.15.35-.35.15-.36-.15-.14-.35.14-.35.36-.15zm-2 0l.16.35-.15.35-.35.15-.35-.15-.15-.35.15-.35.35-.15z"/><path d="M400.5 560.5h-.5v-1h.5zM920 560.5h-.5v-1h.5z"/><use xlink:href="#m" transform="matrix(1,0,0,1,454.79027268483003,552) translate(0 10.666666666666666)"/><use xlink:href="#n" transform="matrix(1,0,0,1,454.79027268483003,552) translate(33.22222222222222 10.666666666666666)"/><path d="M420.7 448.37c-1.5-2.96-.3-6.57 2.66-8.06l114.3-57.6c2.96-1.5 6.57-.3 8.06 2.66l10.8 21.43c1.5 2.95.3 6.56-2.66 8.05l-114.3 57.6c-2.96 1.5-6.57.3-8.06-2.65z" stroke="#000" stroke-opacity="0" stroke-width="3" fill="#fff" fill-opacity="0"/><use xlink:href="#o" transform="matrix(0.8929861434671519,-0.4500841561037927,0.4500841561037927,0.8929861434671519,424.7153514978547,445.2262917913478) translate(39.462962962962976 16.761111111111113)"/><use xlink:href="#p" transform="matrix(0.8929861434671519,-0.4500841561037927,0.4500841561037927,0.8929861434671519,424.7153514978547,445.2262917913478) translate(61.68518518518519 16.761111111111113)"/><path d="M432.43 256.4c1.48-2.97 5.08-4.17 8.04-2.7L555 310.9c2.95 1.48 4.15 5.1 2.67 8.05l-10.72 21.47c-1.48 2.97-5.08 4.17-8.05 2.7l-114.5-57.2c-2.98-1.48-4.18-5.1-2.7-8.05z" stroke="#000" stroke-opacity="0" stroke-width="3" fill="#fff" fill-opacity="0"/><use xlink:href="#q" transform="matrix(0.8946259840044273,0.4468157883782871,-0.4468157883782871,0.8946259840044273,437.345852201065,257.7379718384867) translate(38.75925925925927 16.761111111111113)"/><use xlink:href="#p" transform="matrix(0.8946259840044273,0.4468157883782871,-0.4468157883782871,0.8946259840044273,437.345852201065,257.7379718384867) translate(62.388888888888886 16.761111111111113)"/><path d="M880.35 559.15l.15.35-.15.35-.35.15-.35-.15-.15-.35.15-.35.35-.15zm0-2l.15.36-.15.36-.35.14-.35-.14-.15-.36.15-.35.35-.14zm0-2l.15.36-.15.36-.35.15-.35-.14-.15-.35.15-.34.35-.15zm0-2l.15.37-.15.35-.35.14-.35-.13-.15-.36.15-.34.35-.14zm0-1.98l.15.35-.15.35-.35.15-.35-.15-.15-.35.15-.35.35-.15zm0-2l.15.36-.15.35-.35.14-.35-.14-.15-.36.15-.35.35-.14zm0-2l.15.36-.15.35-.35.15-.35-.15-.15-.35.15-.35.35-.15zm0-2l.15.37-.15.35-.35.13-.35-.14-.15-.37.15-.35.35-.14zm0-1.98l.15.34-.15.35-.35.14-.35-.15-.15-.36.15-.35.35-.16zm0-2l.15.34-.15.36-.35.14-.35-.14-.15-.36.15-.35.35-.16zm0-2l.15.35-.15.35-.35.15-.35-.15-.15-.35.15-.35.35-.15zm0-2l.15.35-.15.36-.35.15-.35-.14-.15-.35.15-.35.35-.15zm0-2l.15.36-.15.35-.35.16-.35-.15-.15-.34.15-.35.35-.14zm0-2l.15.37-.15.35-.35.15-.35-.15-.15-.35.15-.36.35-.13zm0-1.98l.15.35-.15.35-.35.15-.35-.15-.15-.35.15-.35.35-.15zm0-2l.15.36-.15.35-.35.15-.35-.15-.15-.35.15-.36.35-.14zm0-2l.15.36-.15.35-.35.15-.35-.15-.15-.35.15-.35.35-.15zm0-2l.15.37-.15.34-.35.14-.35-.14-.15-.36.15-.35.35-.14zm0-1.98l.15.35-.15.34-.35.15-.35-.16-.15-.35.15-.36.35-.15zm0-2l.15.36-.15.35-.35.14-.35-.15-.15-.36.15-.36.35-.14zm0-2l.15.36-.15.35-.35.15-.35-.15-.15-.35.15-.35.35-.15zm0-2l.15.37-.15.36-.35.14-.35-.14-.15-.36.15-.35.35-.14zm0-1.98l.15.35-.15.36-.35.15-.35-.14-.15-.35.15-.34.35-.15zm0-2l.15.36-.15.35-.35.14-.35-.13-.15-.36.15-.34.35-.14zm0-2l.15.36-.15.35-.35.15-.35-.15-.15-.35.15-.35.35-.15zm0-2l.15.37-.15.35-.35.14-.35-.14-.15-.36.15-.35.35-.14zm0-1.98l.15.35-.15.35-.35.15-.35-.15-.15-.35.15-.35.35-.15zm0-2l.15.36-.15.35-.35.13-.35-.14-.15-.37.15-.35.35-.14zm0-2l.15.36-.15.35-.35.14-.35-.15-.15-.36.15-.35.35-.16zm0-2l.15.37-.15.35-.35.14-.35-.14-.15-.36.15-.35.35-.16zm0-1.98l.15.35-.15.35-.35.15-.35-.15-.15-.35.15-.35.35-.15zm0-2l.15.35-.15.36-.35.15-.35-.14-.15-.35.15-.35.35-.15zm0-2l.15.36-.15.35-.35.16-.35-.15-.15-.34.15-.35.35-.14zm0-2l.15.37-.15.35-.35.15-.35-.15-.15-.35.15-.36.35-.13zm0-1.98l.15.35-.15.35-.35.15-.35-.15-.15-.35.15-.35.35-.15zm0-2l.15.36-.15.35-.35.15-.35-.15-.15-.35.15-.36.35-.14zm0-2l.15.36-.15.35-.35.15-.35-.15-.15-.35.15-.35.35-.15zm0-2l.15.37-.15.34-.35.14-.35-.14-.15-.36.15-.35.35-.14zm0-1.98l.15.35-.15.34-.35.15-.35-.16-.15-.35.15-.36.35-.15zm0-2l.15.36-.15.35-.35.14-.35-.15-.15-.36.15-.36.35-.14zm0-2l.15.36-.15.35-.35.15-.35-.15-.15-.35.15-.35.35-.15zm0-2l.15.37-.15.36-.35.14-.35-.14-.15-.36.15-.35.35-.15zm0-1.98l.15.35-.15.36-.35.15-.35-.14-.15-.35.15-.34.35-.15zm0-2l.15.35-.15.37-.35.14-.35-.13-.15-.36.15-.34.35-.15zm0-2l.15.36-.15.35-.35.15-.35-.15-.15-.35.15-.35.35-.15zm0-2l.15.37-.15.35-.35.15-.35-.15-.15-.35.15-.36.35-.14zm0-1.98l.15.35-.15.35-.35.15-.35-.15-.15-.35.15-.35.35-.15zm0-2l.15.36-.15.35-.35.13-.35-.14-.15-.37.15-.35.35-.14zm0-2l.15.36-.15.35-.35.14-.35-.15-.15-.36.15-.35.35-.16zm0-2l.15.37-.15.35-.35.14-.35-.14-.15-.36.15-.35.35-.15zm0-1.98l.15.35-.15.35-.35.15-.35-.15-.15-.35.15-.35.35-.15zm0-2l.15.36-.15.35-.35.15-.35-.14-.15-.35.15-.35.35-.14zm0-2l.15.36-.15.35-.35.16-.35-.15-.15-.34.15-.35.35-.14zm0-2l.15.37-.15.35-.35.14-.35-.14-.15-.36.15-.35.35-.13zm0-1.98l.15.35-.15.35-.35.15-.35-.15-.15-.35.15-.35.35-.15zm0-2l.15.35-.15.36-.35.14-.35-.14-.15-.36.15-.35.35-.15zm0-2l.15.36-.15.35-.35.15-.35-.15-.15-.35.15-.35.35-.15zm0-2l.15.37-.15.34-.35.15-.35-.16-.15-.35.15-.37.35-.14zm0-1.98l.15.35-.15.34-.35.15-.35-.16-.15-.35.15-.36.35-.15zm0-2l.15.36-.15.35-.35.15-.35-.15-.15-.35.15-.36.35-.14zm0-2l.15.36-.15.35-.35.15-.35-.15-.15-.35.15-.35.35-.15zm0-2l.15.37-.15.36-.35.14-.35-.14-.15-.36.15-.35.35-.14zm0-1.98l.15.35-.15.36-.35.15-.35-.14-.15-.35.15-.34.35-.15zm0-2l.15.36-.15.35-.35.14-.35-.13-.15-.36.15-.34.35-.14zm0-2l.15.36-.15.35-.35.15-.35-.15-.15-.35.15-.35.35-.15zm0-2l.15.37-.15.35-.35.14-.35-.14-.15-.36.15-.35.35-.15zm0-1.98l.15.35-.15.35-.35.15-.35-.15-.15-.35.15-.35.35-.15zm0-2l.15.35-.15.36-.35.13-.35-.14-.15-.37.15-.35.35-.15zm0-2l.15.36-.15.35-.35.14-.35-.15-.15-.36.15-.35.35-.16zm0-2l.15.37-.15.35-.35.15-.35-.15-.15-.35.15-.36.35-.15zm0-1.98l.15.35-.15.35-.35.15-.35-.15-.15-.35.15-.35.35-.15zm0-2l.15.36-.15.35-.35.16-.35-.15-.15-.34.15-.36.35-.14zm0-2l.15.36-.15.35-.35.16-.35-.15-.15-.34.15-.35.35-.14zm0-2l.15.37-.15.35-.35.14-.35-.14-.15-.36.15-.35.35-.13zm0-1.98l.15.35-.15.35-.35.15-.35-.15-.15-.35.15-.35.35-.15zm0-2l.15.36-.15.35-.35.14-.35-.14-.15-.36.15-.35.35-.14zm0-2l.15.36-.15.35-.35.15-.35-.15-.15-.35.15-.35.35-.15zm0-2l.15.37-.15.34-.35.14-.35-.14-.15-.36.15-.35.35-.14zm0-1.98l.15.35-.15.34-.35.15-.35-.16-.15-.35.15-.36.35-.15zm0-2l.15.35-.15.35-.35.14-.35-.15-.15-.36.15-.36.35-.15zm0-2l.15.36-.15.35-.35.15-.35-.15-.15-.35.15-.35.35-.15zm0-2l.15.36-.15.36-.35.14-.35-.14-.15-.36.15-.35.35-.15zm0-1.98l.15.35-.15.36-.35.15-.35-.14-.15-.35.15-.34.35-.15zm0-2l.15.36-.15.35-.35.15-.35-.15-.15-.35.15-.36.35-.14zm0-2l.15.36-.15.35-.35.15-.35-.15-.15-.35.15-.35.35-.15zm0-2l.15.37-.15.35-.35.15-.35-.15-.15-.35.15-.36.35-.14zm0-1.98l.15.35-.15.35-.35.15-.35-.15-.15-.35.15-.35.35-.15zm0-2l.15.36-.15.35-.35.13-.35-.14-.15-.37.15-.35.35-.14zm0-2l.15.36-.15.35-.35.14-.35-.15-.15-.36.15-.35.35-.16zm0-2l.15.37-.15.35-.35.14-.35-.14-.15-.36.15-.35.35-.16zm0-1.98l.15.35-.15.35-.35.15-.35-.15-.15-.35.15-.35.35-.15zm0-2l.15.35-.15.36-.35.15-.35-.14-.15-.35.15-.35.35-.15zm0-2l.15.36-.15.35-.35.16-.35-.15-.15-.34.15-.35.35-.14zm0-2l.15.36-.15.36-.35.14-.35-.14-.15-.36.15-.35.35-.14zm0-1.98l.15.35-.15.35-.35.15-.35-.15-.15-.35.15-.35.35-.15zm0-2l.15.36-.15.35-.35.15-.35-.15-.15-.35.15-.36.35-.14zm0-2l.15.36-.15.35-.35.15-.35-.15-.15-.35.15-.35.35-.15zm0-2l.15.37-.15.34-.35.15-.35-.16-.15-.35.15-.37.35-.14zm0-1.98l.15.35-.15.34-.35.15-.35-.16-.15-.35.15-.36.35-.15zm0-2l.15.36-.15.35-.35.14-.35-.15-.15-.36.15-.36.35-.14zm0-2l.15.36-.15.35-.35.15-.35-.15-.15-.35.15-.35.35-.15zm0-2l.15.37-.15.36-.35.14-.35-.14-.15-.36.15-.35.35-.14zm0-1.98l.15.35-.15.36-.35.15-.35-.14-.15-.35.15-.34.35-.15zm0-2l.15.35-.15.37-.35.14-.35-.13-.15-.36.15-.34.35-.15zm0-2l.15.36-.15.35-.35.15-.35-.15-.15-.35.15-.35.35-.15zm0-2l.15.36-.15.36-.35.14-.35-.14-.15-.36.15-.35.35-.15zm0-1.98l.15.35-.15.35-.35.15-.35-.15-.15-.35.15-.35.35-.15zm0-2l.15.36-.15.35-.35.14-.35-.15-.15-.36.15-.36.35-.14zm0-2l.15.36-.15.35-.35.14-.35-.15-.15-.36.15-.35.35-.16zm0-2l.15.37-.15.35-.35.15-.35-.15-.15-.35.15-.36.35-.15zm0-1.98l.15.35-.15.35-.35.15-.35-.15-.15-.35.15-.35.35-.15zm0-2l.15.36-.15.35-.35.16-.35-.15-.15-.34.15-.36.35-.14zm0-2l.15.36-.15.35-.35.16-.35-.15-.15-.34.15-.35.35-.14zm0-2l.15.37-.15.35-.35.14-.35-.14-.15-.36.15-.35.35-.13zm0-1.98l.15.35-.15.35-.35.15-.35-.15-.15-.35.15-.35.35-.15zm0-2l.15.35-.15.36-.35.14-.35-.14-.15-.36.15-.35.35-.15zm0-2l.15.36-.15.35-.35.15-.35-.15-.15-.35.15-.35.35-.15zm0-2l.15.36-.15.36-.35.14-.35-.14-.15-.36.15-.35.35-.15zm0-1.98l.15.35-.15.34-.35.15-.35-.16-.15-.35.15-.36.35-.15zm0-2l.15.36-.15.35-.35.15-.35-.15-.15-.35.15-.36.35-.14zm0-2l.15.36-.15.35-.35.15-.35-.15-.15-.35.15-.35.35-.15zm0-2l.15.37-.15.36-.35.15-.35-.14-.15-.35.15-.35.35-.14zm0-1.98l.15.35-.15.36-.35.15-.35-.14-.15-.35.15-.34.35-.15zm0-2l.15.36-.15.35-.35.14-.35-.13-.15-.36.15-.34.35-.14zm0-2l.15.36-.15.35-.35.15-.35-.15-.15-.35.15-.35.35-.15zm0-2l.15.37-.15.35-.35.14-.35-.14-.15-.36.15-.35.35-.14zm0-1.98l.15.35-.15.35-.35.15-.35-.15-.15-.35.15-.35.35-.15zm0-2l.15.36-.15.35-.35.13-.35-.14-.15-.37.15-.35.35-.14zm0-2l.15.36-.15.35-.35.14-.35-.15-.15-.36.15-.35.35-.16zm0-2l.15.37-.15.35-.35.14-.35-.14-.15-.36.15-.35.35-.16zm0-1.98l.15.35-.15.35-.35.15-.35-.15-.15-.35.15-.35.35-.15zm0-2l.15.35-.15.36-.35.15-.35-.14-.15-.35.15-.35.35-.15zm0-2l.15.36-.15.35-.35.16-.35-.15-.15-.34.15-.35.35-.14zm0-2l.15.37-.15.35-.35.15-.35-.15-.15-.35.15-.36.35-.13zm0-1.98l.15.35-.15.35-.35.15-.35-.15-.15-.35.15-.35.35-.15zm0-2l.15.36-.15.35-.35.15-.35-.15-.15-.35.15-.36.35-.14zm0-2l.15.36-.15.35-.35.15-.35-.15-.15-.35.15-.35.35-.15zm0-2l.15.37-.15.34-.35.14-.35-.14-.15-.36.15-.35.35-.14zm0-1.98l.15.35-.15.34-.35.15-.35-.16-.15-.35.15-.36.35-.15zm0-2l.15.36-.15.35-.35.14-.35-.15-.15-.36.15-.36.35-.14zm0-2l.15.36-.15.35-.35.15-.35-.15-.15-.35.15-.35.35-.15zm0-2l.15.37-.15.36-.35.14-.35-.14-.15-.36.15-.35.35-.15zm0-1.98l.15.35-.15.36-.35.15-.35-.14-.15-.35.15-.34.35-.15zm0-2l.15.35-.15.37-.35.14-.35-.13-.15-.36.15-.34.35-.15zm0-2l.15.36-.15.35-.35.15-.35-.15-.15-.35.15-.35.35-.15zm0-2l.15.37-.15.35-.35.15-.35-.15-.15-.35.15-.36.35-.14zm0-1.98l.15.35-.15.35-.35.15-.35-.15-.15-.35.15-.35.35-.15zm0-2l.15.36-.15.35-.35.13-.35-.14-.15-.37.15-.35.35-.14zm0-2l.15.36-.15.35-.35.14-.35-.15-.15-.36.15-.35.35-.16zm0-2l.15.37-.15.35-.35.14-.35-.14-.15-.36.15-.35.35-.15zm0-1.98l.15.35-.15.35-.35.15-.35-.15-.15-.35.15-.35.35-.15zm0-2l.15.36-.15.35-.35.15-.35-.14-.15-.35.15-.35.35-.14zm0-2l.15.36-.15.35-.35.16-.35-.15-.15-.34.15-.35.35-.14zm0-2l.15.36-.15.36-.35.14-.35-.14-.15-.36.15-.35.35-.14zm0-1.98l.15.35-.15.35-.35.15-.35-.15-.15-.35.15-.35.35-.15zm0-2l.15.36-.15.35-.35.15-.35-.15-.15-.35.15-.36.35-.14zm0-2l.15.36-.15.35-.35.15-.35-.15-.15-.35.15-.35.35-.15zm0-2l.15.37-.15.34-.35.15-.35-.16-.15-.35.15-.37.35-.15zm0-1.98l.15.35-.15.34-.35.15-.35-.16-.15-.35.15-.36.35-.15zm0-2l.15.35-.15.35-.35.14-.35-.15-.15-.36.15-.36.35-.15zm0-2l.15.36-.15.35-.35.15-.35-.15-.15-.35.15-.35.35-.15zm0-2l.15.37-.15.36-.35.15-.35-.14-.15-.35.15-.35.35-.14zm0-1.98l.15.35-.15.36-.35.15-.35-.14-.15-.35.15-.34.35-.15zm0-2l.15.35-.15.37-.35.15-.35-.15-.15-.35.15-.36.35-.15zm0-17.95l.15.36-.15.35-.3.13h-.1l-.3-.12-.15-.34.15-.35.35-.14zm0-2l.15.37-.15.35-.35.15-.35-.15-.15-.35.15-.36.35-.13zm0-1.98l.15.35-.15.35-.35.15-.35-.15-.15-.35.15-.35.35-.15zm0-2l.15.35-.15.36-.35.15-.35-.15-.15-.35.15-.36.35-.15zm0-2l.15.36-.15.35-.35.15-.35-.15-.15-.35.15-.35.35-.15zm0-2l.15.36-.15.36-.35.14-.35-.14-.15-.36.15-.35.35-.15zm0-1.98l.15.35-.15.34-.35.15-.35-.16-.15-.35.15-.36.35-.15zm0-2l.15.36-.15.35-.35.15-.35-.15-.15-.35.15-.36.35-.14zm0-2l.15.36-.15.35-.35.15-.35-.15-.15-.35.15-.35.35-.15zm0-2l.15.37-.15.36-.35.15-.35-.14-.15-.35.15-.35.35-.15zm0-1.98l.15.35-.15.36-.35.15-.35-.14-.15-.35.15-.34.35-.15zm0-2l.15.35-.15.37-.35.14-.35-.13-.15-.36.15-.34.35-.15zm0-2l.15.36-.15.35-.35.15-.35-.15-.15-.35.15-.35.35-.15zm0-2l.15.37-.15.35-.35.15-.35-.15-.15-.35.15-.36.35-.14zm0-1.98l.15.35-.15.35-.35.15-.35-.15-.15-.35.15-.35.35-.15zm0-2l.15.35-.15.36-.35.13-.35-.14-.15-.37.15-.35.35-.15zm0-2l.15.36-.15.35-.35.14-.35-.15-.15-.36.15-.35.35-.16zm0-2l.15.36-.15.36-.35.14-.35-.14-.15-.36.15-.35.35-.16zm0-1.98l.15.35-.15.35-.35.15-.35-.15-.15-.35.15-.35.35-.15zm0-2l.15.36-.15.35-.35.16-.35-.15-.15-.34.15-.36.35-.14zm0-2l.15.36-.15.35-.35.16-.35-.15-.15-.34.15-.35.35-.14zm0-2l.15.37-.15.35-.35.15-.35-.15-.15-.35.15-.36.35-.13zm0-1.98l.15.35-.15.35-.35.15-.35-.15-.15-.35.15-.35.35-.15zm0-2l.15.35-.15.36-.35.14-.35-.14-.15-.36.15-.35.35-.15zm0-2l.15.36-.15.35-.35.15-.35-.15-.15-.35.15-.35.35-.15zm0-2l.15.37-.15.34-.35.15-.35-.16-.15-.35.15-.37.35-.14zm0-1.98l.15.35-.15.34-.35.15-.35-.16-.15-.35.15-.36.35-.15zm0-2l.15.36-.15.35-.35.15-.35-.15-.15-.35.15-.36.35-.14z"/><path d="M880.5 560h-1v-.5h1zM880.5 160.5h-1v-.5h1z"/><use xlink:href="#r" transform="matrix(1,0,0,1,851.5,216.83483773869978) translate(0.004999999999999005 10.666666666666666)"/><path d="M601.5 560h57.88M601.54 560H600" stroke="#000" stroke-width="3" fill="none"/><path d="M675.15 560l-14.27 4.64v-9.28z" stroke="#000" stroke-width="3"/><path d="M880 359.5v-17.88M880 359.46V361" stroke="#000" stroke-width="3" fill="none"/><path d="M880 325.85l4.64 14.27h-9.28z" stroke="#000" stroke-width="3"/><path d="M880 363.5v17.88M880 363.54V362" stroke="#000" stroke-width="3" fill="none"/><path d="M880 397.15l-4.64-14.27h9.28z" stroke="#000" stroke-width="3"/><path d="M884.53 362.77c0 2.63-2.13 4.76-4.76 4.76-2.64 0-4.77-2.13-4.77-4.76 0-2.64 2.13-4.77 4.77-4.77 2.63 0 4.76 2.13 4.76 4.77zM604.53 560.77c0 2.63-2.13 4.76-4.76 4.76-2.64 0-4.77-2.13-4.77-4.76 0-2.64 2.13-4.77 4.77-4.77 2.63 0 4.76 2.13 4.76 4.77z" stroke="#000" stroke-opacity="0" stroke-width="2" fill="#ff8f80"/><path d="M663.23 332.56L603 362.66l-1.33-2.67 60.22-30.12z" fill="#333"/><path d="M603.05 362.65l-1.38.7-1.34-2.7 1.38-.68zM665.97 334.7l-4.14-8.3 14.83-2.23z" fill="#333"/><path d="M665.55 337.2l-6-11.97L681 322zm-1.46-9.62l2.3 4.6 5.92-5.84z" fill="#333"/><path d="M602.34 362.67l60.22 30.1M602.38 362.7L601 362" stroke="#333" stroke-width="3" fill="none"/><path d="M676.66 399.83l-14.83-2.23 4.14-8.3z" stroke="#333" stroke-width="3" fill="#333"/><path d="M604.53 361.77c0 2.63-2.13 4.76-4.76 4.76-2.64 0-4.77-2.13-4.77-4.76 0-2.64 2.13-4.77 4.77-4.77 2.63 0 4.76 2.13 4.76 4.77z" stroke="#000" stroke-opacity="0" stroke-width="2" fill="#ff8f80"/><path d="M620 526c0-3.3 2.7-6 6-6h28c3.3 0 6 2.7 6 6v28c0 3.3-2.7 6-6 6h-28c-3.3 0-6-2.7-6-6z" stroke="#000" stroke-opacity="0" stroke-width="3" fill="#fff" fill-opacity="0"/><g><use xlink:href="#s" transform="matrix(1,0,0,1,625,525) translate(7.5925925925925934 19.65277777777778)"/></g><path d="M620 286c0-3.3 2.7-6 6-6h28c3.3 0 6 2.7 6 6v28c0 3.3-2.7 6-6 6h-28c-3.3 0-6-2.7-6-6z" stroke="#000" stroke-opacity="0" stroke-width="3" fill="#fff" fill-opacity="0"/><g><use xlink:href="#t" transform="matrix(1,0,0,1,625,285) translate(7.5925925925925934 19.65277777777778)"/></g><path d="M900 346c0-3.3 2.7-6 6-6h28c3.3 0 6 2.7 6 6v28c0 3.3-2.7 6-6 6h-28c-3.3 0-6-2.7-6-6z" stroke="#000" stroke-opacity="0" stroke-width="3" fill="#fff" fill-opacity="0"/><g><use xlink:href="#u" transform="matrix(1,0,0,1,905,345) translate(7.006172839506173 19.65277777777778)"/></g><defs><path fill="#7ab648" d="M88-194c31-1 46 15 58 34l-1-101h50l1 261h-48c-2-10 0-23-3-31C134-8 116 4 84 4 32 4 16-41 15-95c0-56 19-97 73-99zm17 164c33 0 40-30 41-66 1-37-9-64-41-64s-38 30-39 65c0 43 13 65 39 65" id="v"/><path fill="#7ab648" d="M123 10C108 53 80 86 19 72V37c35 8 53-11 59-39L3-190h52l48 148c12-52 28-100 44-148h51" id="w"/><path fill="#7ab648" d="M135-194c87-1 58 113 63 194h-50c-7-57 23-157-34-157-59 0-34 97-39 157H25l-1-190h47c2 12-1 28 3 38 12-26 28-41 61-42" id="x"/><path fill="#7ab648" d="M133-34C117-15 103 5 69 4 32 3 11-16 11-54c-1-60 55-63 116-61 1-26-3-47-28-47-18 1-26 9-28 27l-52-2c7-38 36-58 82-57s74 22 75 68l1 82c-1 14 12 18 25 15v27c-30 8-71 5-69-32zm-48 3c29 0 43-24 42-57-32 0-66-3-65 30 0 17 8 27 23 27" id="y"/><path fill="#7ab648" d="M220-157c-53 9-28 100-34 157h-49v-107c1-27-5-49-29-50C55-147 81-57 75 0H25l-1-190h47c2 12-1 28 3 38 10-53 101-56 108 0 13-22 24-43 59-42 82 1 51 116 57 194h-49v-107c-1-25-5-48-29-50" id="z"/><path fill="#7ab648" d="M25-224v-37h50v37H25zM25 0v-190h50V0H25" id="A"/><path fill="#7ab648" d="M190-63c-7 42-38 67-86 67-59 0-84-38-90-98-12-110 154-137 174-36l-49 2c-2-19-15-32-35-32-30 0-35 28-38 64-6 74 65 87 74 30" id="B"/><g id="a"><use transform="matrix(0.03703703703703704,0,0,0.03703703703703704,0,0)" xlink:href="#v"/><use transform="matrix(0.03703703703703704,0,0,0.03703703703703704,8.111111111111112,0)" xlink:href="#w"/><use transform="matrix(0.03703703703703704,0,0,0.03703703703703704,15.51851851851852,0)" xlink:href="#x"/><use transform="matrix(0.03703703703703704,0,0,0.03703703703703704,23.629629629629633,0)" xlink:href="#y"/><use transform="matrix(0.03703703703703704,0,0,0.03703703703703704,31.03703703703704,0)" xlink:href="#z"/><use transform="matrix(0.03703703703703704,0,0,0.03703703703703704,42.88888888888889,0)" xlink:href="#A"/><use transform="matrix(0.03703703703703704,0,0,0.03703703703703704,46.592592592592595,0)" xlink:href="#B"/></g><path fill="#7ab648" d="M135-194c53 0 70 44 70 98 0 56-19 98-73 100-31 1-45-17-59-34 3 33 2 69 2 105H25l-1-265h48c2 10 0 23 3 31 11-24 29-35 60-35zM114-30c33 0 39-31 40-66 0-38-9-64-40-64-56 0-55 130 0 130" id="C"/><path fill="#7ab648" d="M85 4C-2 5 27-109 22-190h50c7 57-23 150 33 157 60-5 35-97 40-157h50l1 190h-47c-2-12 1-28-3-38-12 25-28 42-61 42" id="D"/><path fill="#7ab648" d="M115-3C79 11 28 4 28-45v-112H4v-33h27l15-45h31v45h36v33H77v99c-1 23 16 31 38 25v30" id="E"/><g id="b"><use transform="matrix(0.03703703703703704,0,0,0.03703703703703704,0,0)" xlink:href="#C"/><use transform="matrix(0.03703703703703704,0,0,0.03703703703703704,8.111111111111112,0)" xlink:href="#D"/><use transform="matrix(0.03703703703703704,0,0,0.03703703703703704,16.222222222222225,0)" xlink:href="#E"/></g><path fill="#7ab648" d="M135-150c-39-12-60 13-60 57V0H25l-1-190h47c2 13-1 29 3 40 6-28 27-53 61-41v41" id="F"/><path fill="#7ab648" d="M185-48c-13 30-37 53-82 52C43 2 14-33 14-96s30-98 90-98c62 0 83 45 84 108H66c0 31 8 55 39 56 18 0 30-7 34-22zm-45-69c5-46-57-63-70-21-2 6-4 13-4 21h74" id="G"/><g id="c"><use transform="matrix(0.03703703703703704,0,0,0.03703703703703704,0,0)" xlink:href="#C"/><use transform="matrix(0.03703703703703704,0,0,0.03703703703703704,8.111111111111112,0)" xlink:href="#F"/><use transform="matrix(0.03703703703703704,0,0,0.03703703703703704,13.296296296296298,0)" xlink:href="#G"/><use transform="matrix(0.03703703703703704,0,0,0.03703703703703704,20.703703703703706,0)" xlink:href="#z"/><use transform="matrix(0.03703703703703704,0,0,0.03703703703703704,32.55555555555556,0)" xlink:href="#A"/><use transform="matrix(0.03703703703703704,0,0,0.03703703703703704,36.25925925925926,0)" xlink:href="#D"/><use transform="matrix(0.03703703703703704,0,0,0.03703703703703704,44.370370370370374,0)" xlink:href="#z"/></g><path fill="#7ab648" d="M25 0v-261h50V0H25" id="H"/><g id="d"><use transform="matrix(0.03703703703703704,0,0,0.03703703703703704,0,0)" xlink:href="#B"/><use transform="matrix(0.03703703703703704,0,0,0.03703703703703704,7.407407407407408,0)" xlink:href="#y"/><use transform="matrix(0.03703703703703704,0,0,0.03703703703703704,14.814814814814817,0)" xlink:href="#H"/><use transform="matrix(0.03703703703703704,0,0,0.03703703703703704,18.51851851851852,0)" xlink:href="#H"/></g><path fill="#ff8f80" d="M84 4C32 4 15-41 15-95c0-55 18-99 73-99 29 0 47 12 58 34l2-30h48l-1 265h-49V-32C136-9 114 4 84 4zm21-34c32 0 41-29 41-66 0-36-9-64-40-64-33 0-39 30-40 65 0 43 13 65 39 65" id="I"/><path fill="#ff8f80" d="M85 4C-2 5 27-109 22-190h50c7 57-23 150 33 157 60-5 35-97 40-157h50l1 190h-47c-2-12 1-28-3-38-12 25-28 42-61 42" id="J"/><path fill="#ff8f80" d="M110-194c64 0 96 36 96 99 0 64-35 99-97 99-61 0-95-36-95-99 0-62 34-99 96-99zm-1 164c35 0 45-28 45-65 0-40-10-65-43-65-34 0-45 26-45 65 0 36 10 65 43 65" id="K"/><path fill="#ff8f80" d="M115-3C79 11 28 4 28-45v-112H4v-33h27l15-45h31v45h36v33H77v99c-1 23 16 31 38 25v30" id="L"/><path fill="#ff8f80" d="M185-48c-13 30-37 53-82 52C43 2 14-33 14-96s30-98 90-98c62 0 83 45 84 108H66c0 31 8 55 39 56 18 0 30-7 34-22zm-45-69c5-46-57-63-70-21-2 6-4 13-4 21h74" id="M"/><path fill="#ff8f80" d="M88-194c31-1 46 15 58 34l-1-101h50l1 261h-48c-2-10 0-23-3-31C134-8 116 4 84 4 32 4 16-41 15-95c0-56 19-97 73-99zm17 164c33 0 40-30 41-66 1-37-9-64-41-64s-38 30-39 65c0 43 13 65 39 65" id="N"/><g id="e"><use transform="matrix(0.03703703703703704,0,0,0.03703703703703704,0,0)" xlink:href="#I"/><use transform="matrix(0.03703703703703704,0,0,0.03703703703703704,8.111111111111112,0)" xlink:href="#J"/><use transform="matrix(0.03703703703703704,0,0,0.03703703703703704,16.222222222222225,0)" xlink:href="#K"/><use transform="matrix(0.03703703703703704,0,0,0.03703703703703704,24.333333333333336,0)" xlink:href="#L"/><use transform="matrix(0.03703703703703704,0,0,0.03703703703703704,28.740740740740744,0)" xlink:href="#M"/><use transform="matrix(0.03703703703703704,0,0,0.03703703703703704,36.14814814814815,0)" xlink:href="#N"/></g><path fill="#ff8f80" d="M135-194c53 0 70 44 70 98 0 56-19 98-73 100-31 1-45-17-59-34 3 33 2 69 2 105H25l-1-265h48c2 10 0 23 3 31 11-24 29-35 60-35zM114-30c33 0 39-31 40-66 0-38-9-64-40-64-56 0-55 130 0 130" id="O"/><path fill="#ff8f80" d="M135-150c-39-12-60 13-60 57V0H25l-1-190h47c2 13-1 29 3 40 6-28 27-53 61-41v41" id="P"/><path fill="#ff8f80" d="M220-157c-53 9-28 100-34 157h-49v-107c1-27-5-49-29-50C55-147 81-57 75 0H25l-1-190h47c2 12-1 28 3 38 10-53 101-56 108 0 13-22 24-43 59-42 82 1 51 116 57 194h-49v-107c-1-25-5-48-29-50" id="Q"/><path fill="#ff8f80" d="M25-224v-37h50v37H25zM25 0v-190h50V0H25" id="R"/><g id="f"><use transform="matrix(0.03703703703703704,0,0,0.03703703703703704,0,0)" xlink:href="#O"/><use transform="matrix(0.03703703703703704,0,0,0.03703703703703704,8.111111111111112,0)" xlink:href="#P"/><use transform="matrix(0.03703703703703704,0,0,0.03703703703703704,13.296296296296298,0)" xlink:href="#M"/><use transform="matrix(0.03703703703703704,0,0,0.03703703703703704,20.703703703703706,0)" xlink:href="#Q"/><use transform="matrix(0.03703703703703704,0,0,0.03703703703703704,32.55555555555556,0)" xlink:href="#R"/><use transform="matrix(0.03703703703703704,0,0,0.03703703703703704,36.25925925925926,0)" xlink:href="#J"/><use transform="matrix(0.03703703703703704,0,0,0.03703703703703704,44.370370370370374,0)" xlink:href="#Q"/></g><path fill="#ff8f80" d="M67-93c0 74 22 123 53 168H70C40 30 18-18 18-93s22-123 52-168h50c-32 44-53 94-53 168" id="S"/><path fill="#ff8f80" d="M190-63c-7 42-38 67-86 67-59 0-84-38-90-98-12-110 154-137 174-36l-49 2c-2-19-15-32-35-32-30 0-35 28-38 64-6 74 65 87 74 30" id="T"/><path fill="#ff8f80" d="M133-34C117-15 103 5 69 4 32 3 11-16 11-54c-1-60 55-63 116-61 1-26-3-47-28-47-18 1-26 9-28 27l-52-2c7-38 36-58 82-57s74 22 75 68l1 82c-1 14 12 18 25 15v27c-30 8-71 5-69-32zm-48 3c29 0 43-24 42-57-32 0-66-3-65 30 0 17 8 27 23 27" id="U"/><path fill="#ff8f80" d="M25 0v-261h50V0H25" id="V"/><g id="g"><use transform="matrix(0.03703703703703704,0,0,0.03703703703703704,0,0)" xlink:href="#S"/><use transform="matrix(0.03703703703703704,0,0,0.03703703703703704,4.407407407407408,0)" xlink:href="#T"/><use transform="matrix(0.03703703703703704,0,0,0.03703703703703704,11.814814814814817,0)" xlink:href="#U"/><use transform="matrix(0.03703703703703704,0,0,0.03703703703703704,19.222222222222225,0)" xlink:href="#V"/><use transform="matrix(0.03703703703703704,0,0,0.03703703703703704,22.925925925925927,0)" xlink:href="#V"/></g><path fill="#ff8f80" d="M135-194c87-1 58 113 63 194h-50c-7-57 23-157-34-157-59 0-34 97-39 157H25l-1-190h47c2 12-1 28 3 38 12-26 28-41 61-42" id="W"/><g id="h"><use transform="matrix(0.03703703703703704,0,0,0.03703703703703704,0,0)" xlink:href="#U"/><use transform="matrix(0.03703703703703704,0,0,0.03703703703703704,7.407407407407408,0)" xlink:href="#W"/><use transform="matrix(0.03703703703703704,0,0,0.03703703703703704,15.51851851851852,0)" xlink:href="#N"/></g><path fill="#ff8f80" d="M102-93c0 74-22 123-52 168H0C30 29 54-18 53-93c0-74-22-123-53-168h50c30 45 52 94 52 168" id="X"/><g id="i"><use transform="matrix(0.03703703703703704,0,0,0.03703703703703704,0,0)" xlink:href="#O"/><use transform="matrix(0.03703703703703704,0,0,0.03703703703703704,8.111111111111112,0)" xlink:href="#J"/><use transform="matrix(0.03703703703703704,0,0,0.03703703703703704,16.222222222222225,0)" xlink:href="#L"/><use transform="matrix(0.03703703703703704,0,0,0.03703703703703704,20.629629629629633,0)" xlink:href="#X"/></g><path fill="#ff8f80" d="M137-138c1-29-70-34-71-4 15 46 118 7 119 86 1 83-164 76-172 9l43-7c4 19 20 25 44 25 33 8 57-30 24-41C81-84 22-81 20-136c-2-80 154-74 161-7" id="Y"/><g id="j"><use transform="matrix(0.03703703703703704,0,0,0.03703703703703704,0,0)" xlink:href="#Y"/><use transform="matrix(0.03703703703703704,0,0,0.03703703703703704,7.407407407407408,0)" xlink:href="#O"/><use transform="matrix(0.03703703703703704,0,0,0.03703703703703704,15.51851851851852,0)" xlink:href="#K"/><use transform="matrix(0.03703703703703704,0,0,0.03703703703703704,23.629629629629633,0)" xlink:href="#L"/></g><path fill="#7ab648" d="M110-194c64 0 96 36 96 99 0 64-35 99-97 99-61 0-95-36-95-99 0-62 34-99 96-99zm-1 164c35 0 45-28 45-65 0-40-10-65-43-65-34 0-45 26-45 65 0 36 10 65 43 65" id="Z"/><path fill="#7ab648" d="M137-138c1-29-70-34-71-4 15 46 118 7 119 86 1 83-164 76-172 9l43-7c4 19 20 25 44 25 33 8 57-30 24-41C81-84 22-81 20-136c-2-80 154-74 161-7" id="aa"/><g id="k"><use transform="matrix(0.03703703703703704,0,0,0.03703703703703704,0,0)" xlink:href="#B"/><use transform="matrix(0.03703703703703704,0,0,0.03703703703703704,7.407407407407408,0)" xlink:href="#Z"/><use transform="matrix(0.03703703703703704,0,0,0.03703703703703704,15.51851851851852,0)" xlink:href="#x"/><use transform="matrix(0.03703703703703704,0,0,0.03703703703703704,23.629629629629633,0)" xlink:href="#aa"/><use transform="matrix(0.03703703703703704,0,0,0.03703703703703704,31.03703703703704,0)" xlink:href="#G"/><use transform="matrix(0.03703703703703704,0,0,0.03703703703703704,38.44444444444445,0)" xlink:href="#x"/><use transform="matrix(0.03703703703703704,0,0,0.03703703703703704,46.555555555555564,0)" xlink:href="#aa"/><use transform="matrix(0.03703703703703704,0,0,0.03703703703703704,53.962962962962976,0)" xlink:href="#D"/><use transform="matrix(0.03703703703703704,0,0,0.03703703703703704,62.07407407407409,0)" xlink:href="#aa"/></g><g id="l"><use transform="matrix(0.03703703703703704,0,0,0.03703703703703704,0,0)" xlink:href="#aa"/><use transform="matrix(0.03703703703703704,0,0,0.03703703703703704,7.407407407407408,0)" xlink:href="#C"/><use transform="matrix(0.03703703703703704,0,0,0.03703703703703704,15.51851851851852,0)" xlink:href="#Z"/><use transform="matrix(0.03703703703703704,0,0,0.03703703703703704,23.629629629629633,0)" xlink:href="#E"/></g><path d="M169-182c-1-43-94-46-97-3 18 66 151 10 154 114 3 95-165 93-204 36-6-8-10-19-12-30l50-8c3 46 112 56 116 5-17-69-150-10-154-114-4-87 153-88 188-35 5 8 8 18 10 28" id="ab"/><path d="M135-194c53 0 70 44 70 98 0 56-19 98-73 100-31 1-45-17-59-34 3 33 2 69 2 105H25l-1-265h48c2 10 0 23 3 31 11-24 29-35 60-35zM114-30c33 0 39-31 40-66 0-38-9-64-40-64-56 0-55 130 0 130" id="ac"/><path d="M110-194c64 0 96 36 96 99 0 64-35 99-97 99-61 0-95-36-95-99 0-62 34-99 96-99zm-1 164c35 0 45-28 45-65 0-40-10-65-43-65-34 0-45 26-45 65 0 36 10 65 43 65" id="ad"/><path d="M115-3C79 11 28 4 28-45v-112H4v-33h27l15-45h31v45h36v33H77v99c-1 23 16 31 38 25v30" id="ae"/><g id="m"><use transform="matrix(0.037037037037037035,0,0,0.037037037037037035,0,0)" xlink:href="#ab"/><use transform="matrix(0.037037037037037035,0,0,0.037037037037037035,8.88888888888889,0)" xlink:href="#ac"/><use transform="matrix(0.037037037037037035,0,0,0.037037037037037035,17,0)" xlink:href="#ad"/><use transform="matrix(0.037037037037037035,0,0,0.037037037037037035,25.11111111111111,0)" xlink:href="#ae"/></g><path d="M67-93c0 74 22 123 53 168H70C40 30 18-18 18-93s22-123 52-168h50c-32 44-53 94-53 168" id="af"/><path d="M24-248c93 1 206-16 204 79-1 75-69 88-152 82V0H24v-248zm52 121c47 0 100 7 100-41 0-47-54-39-100-39v80" id="ag"/><path d="M135-150c-39-12-60 13-60 57V0H25l-1-190h47c2 13-1 29 3 40 6-28 27-53 61-41v41" id="ah"/><path d="M25-224v-37h50v37H25zM25 0v-190h50V0H25" id="ai"/><path d="M190-63c-7 42-38 67-86 67-59 0-84-38-90-98-12-110 154-137 174-36l-49 2c-2-19-15-32-35-32-30 0-35 28-38 64-6 74 65 87 74 30" id="aj"/><path d="M185-48c-13 30-37 53-82 52C43 2 14-33 14-96s30-98 90-98c62 0 83 45 84 108H66c0 31 8 55 39 56 18 0 30-7 34-22zm-45-69c5-46-57-63-70-21-2 6-4 13-4 21h74" id="ak"/><path d="M102-93c0 74-22 123-52 168H0C30 29 54-18 53-93c0-74-22-123-53-168h50c30 45 52 94 52 168" id="al"/><g id="n"><use transform="matrix(0.037037037037037035,0,0,0.037037037037037035,0,0)" xlink:href="#af"/><use transform="matrix(0.037037037037037035,0,0,0.037037037037037035,4.407407407407407,0)" xlink:href="#ag"/><use transform="matrix(0.037037037037037035,0,0,0.037037037037037035,13.296296296296298,0)" xlink:href="#ah"/><use transform="matrix(0.037037037037037035,0,0,0.037037037037037035,18.48148148148148,0)" xlink:href="#ai"/><use transform="matrix(0.037037037037037035,0,0,0.037037037037037035,22.185185185185183,0)" xlink:href="#aj"/><use transform="matrix(0.037037037037037035,0,0,0.037037037037037035,29.592592592592588,0)" xlink:href="#ak"/><use transform="matrix(0.037037037037037035,0,0,0.037037037037037035,36.99999999999999,0)" xlink:href="#al"/></g><path fill="#b2b2b2" d="M115-194c55 1 70 41 70 98S169 2 115 4C84 4 66-9 55-30l1 105H24l-1-265h31l2 30c10-21 28-34 59-34zm-8 174c40 0 45-34 45-75s-6-73-45-74c-42 0-51 32-51 76 0 43 10 73 51 73" id="am"/><path fill="#b2b2b2" d="M84 4C-5 8 30-112 23-190h32v120c0 31 7 50 39 49 72-2 45-101 50-169h31l1 190h-30c-1-10 1-25-2-33-11 22-28 36-60 37" id="an"/><path fill="#b2b2b2" d="M59-47c-2 24 18 29 38 22v24C64 9 27 4 27-40v-127H5v-23h24l9-43h21v43h35v23H59v120" id="ao"/><g id="o"><use transform="matrix(0.03703703703703702,0,0,0.03703703703703702,0,0)" xlink:href="#am"/><use transform="matrix(0.03703703703703702,0,0,0.03703703703703702,7.407407407407404,0)" xlink:href="#an"/><use transform="matrix(0.03703703703703702,0,0,0.03703703703703702,14.814814814814808,0)" xlink:href="#ao"/></g><path fill="#b2b2b2" d="M85-194c31 0 48 13 60 33l-1-100h32l1 261h-30c-2-10 0-23-3-31C134-8 116 4 85 4 32 4 16-35 15-94c0-66 23-100 70-100zm9 24c-40 0-46 34-46 75 0 40 6 74 45 74 42 0 51-32 51-76 0-42-9-74-50-73" id="ap"/><path fill="#b2b2b2" d="M100-194c63 0 86 42 84 106H49c0 40 14 67 53 68 26 1 43-12 49-29l28 8c-11 28-37 45-77 45C44 4 14-33 15-96c1-61 26-98 85-98zm52 81c6-60-76-77-97-28-3 7-6 17-6 28h103" id="aq"/><path fill="#b2b2b2" d="M24 0v-261h32V0H24" id="ar"/><path fill="#b2b2b2" d="M141-36C126-15 110 5 73 4 37 3 15-17 15-53c-1-64 63-63 125-63 3-35-9-54-41-54-24 1-41 7-42 31l-33-3c5-37 33-52 76-52 45 0 72 20 72 64v82c-1 20 7 32 28 27v20c-31 9-61-2-59-35zM48-53c0 20 12 33 32 33 41-3 63-29 60-74-43 2-92-5-92 41" id="as"/><g id="p"><use transform="matrix(0.03703703703703702,0,0,0.03703703703703702,0,0)" xlink:href="#ap"/><use transform="matrix(0.03703703703703702,0,0,0.03703703703703702,7.407407407407404,0)" xlink:href="#aq"/><use transform="matrix(0.03703703703703702,0,0,0.03703703703703702,14.814814814814808,0)" xlink:href="#ar"/><use transform="matrix(0.03703703703703702,0,0,0.03703703703703702,17.740740740740733,0)" xlink:href="#ao"/><use transform="matrix(0.03703703703703702,0,0,0.03703703703703702,21.444444444444436,0)" xlink:href="#as"/></g><path fill="#b2b2b2" d="M96-169c-40 0-48 33-48 73s9 75 48 75c24 0 41-14 43-38l32 2c-6 37-31 61-74 61-59 0-76-41-82-99-10-93 101-131 147-64 4 7 5 14 7 22l-32 3c-4-21-16-35-41-35" id="at"/><g id="q"><use transform="matrix(0.03703703703703702,0,0,0.03703703703703702,0,0)" xlink:href="#at"/><use transform="matrix(0.03703703703703702,0,0,0.03703703703703702,6.666666666666663,0)" xlink:href="#as"/><use transform="matrix(0.03703703703703702,0,0,0.03703703703703702,14.074074074074067,0)" xlink:href="#ar"/><use transform="matrix(0.03703703703703702,0,0,0.03703703703703702,16.999999999999993,0)" xlink:href="#ar"/></g><path fill="#333" d="M24-248c93 1 206-16 204 79-1 75-69 88-152 82V0H24v-248zm52 121c47 0 100 7 100-41 0-47-54-39-100-39v80" id="au"/><path fill="#333" d="M135-150c-39-12-60 13-60 57V0H25l-1-190h47c2 13-1 29 3 40 6-28 27-53 61-41v41" id="av"/><path fill="#333" d="M185-48c-13 30-37 53-82 52C43 2 14-33 14-96s30-98 90-98c62 0 83 45 84 108H66c0 31 8 55 39 56 18 0 30-7 34-22zm-45-69c5-46-57-63-70-21-2 6-4 13-4 21h74" id="aw"/><path fill="#333" d="M220-157c-53 9-28 100-34 157h-49v-107c1-27-5-49-29-50C55-147 81-57 75 0H25l-1-190h47c2 12-1 28 3 38 10-53 101-56 108 0 13-22 24-43 59-42 82 1 51 116 57 194h-49v-107c-1-25-5-48-29-50" id="ax"/><path fill="#333" d="M25-224v-37h50v37H25zM25 0v-190h50V0H25" id="ay"/><path fill="#333" d="M85 4C-2 5 27-109 22-190h50c7 57-23 150 33 157 60-5 35-97 40-157h50l1 190h-47c-2-12 1-28-3-38-12 25-28 42-61 42" id="az"/><g id="r"><use transform="matrix(0.037037037037037035,0,0,0.037037037037037035,0,0)" xlink:href="#au"/><use transform="matrix(0.037037037037037035,0,0,0.037037037037037035,8.88888888888889,0)" xlink:href="#av"/><use transform="matrix(0.037037037037037035,0,0,0.037037037037037035,14.074074074074076,0)" xlink:href="#aw"/><use transform="matrix(0.037037037037037035,0,0,0.037037037037037035,21.48148148148148,0)" xlink:href="#ax"/><use transform="matrix(0.037037037037037035,0,0,0.037037037037037035,33.33333333333333,0)" xlink:href="#ay"/><use transform="matrix(0.037037037037037035,0,0,0.037037037037037035,37.03703703703703,0)" xlink:href="#az"/><use transform="matrix(0.037037037037037035,0,0,0.037037037037037035,45.14814814814814,0)" xlink:href="#ax"/></g><path fill="#333" d="M205 0l-28-72H64L36 0H1l101-248h38L239 0h-34zm-38-99l-47-123c-12 45-31 82-46 123h93" id="aA"/><use transform="matrix(0.06172839506172839,0,0,0.06172839506172839,0,0)" xlink:href="#aA" id="s"/><path fill="#333" d="M160-131c35 5 61 23 61 61C221 17 115-2 30 0v-248c76 3 177-17 177 60 0 33-19 50-47 57zm-97-11c50-1 110 9 110-42 0-47-63-36-110-37v79zm0 115c55-2 124 14 124-45 0-56-70-42-124-44v89" id="aB"/><use transform="matrix(0.06172839506172839,0,0,0.06172839506172839,0,0)" xlink:href="#aB" id="t"/><path fill="#333" d="M212-179c-10-28-35-45-73-45-59 0-87 40-87 99 0 60 29 101 89 101 43 0 62-24 78-52l27 14C228-24 195 4 139 4 59 4 22-46 18-125c-6-104 99-153 187-111 19 9 31 26 39 46" id="aC"/><use transform="matrix(0.06172839506172839,0,0,0.06172839506172839,0,0)" xlink:href="#aC" id="u"/></defs></g></svg>