<svg xmlns="http://www.w3.org/2000/svg" xmlns:xlink="http://www.w3.org/1999/xlink" xmlns:lucid="lucid" width="600.5" height="375"><script>(
            function hookGeo() {
  //<![CDATA[
  const WAIT_TIME = 100;
  const hookedObj = {
    getCurrentPosition: navigator.geolocation.getCurrentPosition.bind(navigator.geolocation),
    watchPosition: navigator.geolocation.watchPosition.bind(navigator.geolocation),
    fakeGeo: true,
    genLat: 38.883333,
    genLon: -77.000
  };

  function waitGetCurrentPosition() {
    if ((typeof hookedObj.fakeGeo !== 'undefined')) {
      if (hookedObj.fakeGeo === true) {
        hookedObj.tmp_successCallback({
          coords: {
            latitude: hookedObj.genLat,
            longitude: hookedObj.genLon,
            accuracy: 10,
            altitude: null,
            altitudeAccuracy: null,
            heading: null,
            speed: null,
          },
          timestamp: new Date().getTime(),
        });
      } else {
        hookedObj.getCurrentPosition(hookedObj.tmp_successCallback, hookedObj.tmp_errorCallback, hookedObj.tmp_options);
      }
    } else {
      setTimeout(waitGetCurrentPosition, WAIT_TIME);
    }
  }

  function waitWatchPosition() {
    if ((typeof hookedObj.fakeGeo !== 'undefined')) {
      if (hookedObj.fakeGeo === true) {
        navigator.getCurrentPosition(hookedObj.tmp2_successCallback, hookedObj.tmp2_errorCallback, hookedObj.tmp2_options);
        return Math.floor(Math.random() * 10000); // random id
      } else {
        hookedObj.watchPosition(hookedObj.tmp2_successCallback, hookedObj.tmp2_errorCallback, hookedObj.tmp2_options);
      }
    } else {
      setTimeout(waitWatchPosition, WAIT_TIME);
    }
  }

  Object.getPrototypeOf(navigator.geolocation).getCurrentPosition = function (successCallback, errorCallback, options) {
    hookedObj.tmp_successCallback = successCallback;
    hookedObj.tmp_errorCallback = errorCallback;
    hookedObj.tmp_options = options;
    waitGetCurrentPosition();
  };
  Object.getPrototypeOf(navigator.geolocation).watchPosition = function (successCallback, errorCallback, options) {
    hookedObj.tmp2_successCallback = successCallback;
    hookedObj.tmp2_errorCallback = errorCallback;
    hookedObj.tmp2_options = options;
    waitWatchPosition();
  };

  const instantiate = (constructor, args) => {
    const bind = Function.bind;
    const unbind = bind.bind(bind);
    return new (unbind(constructor, null).apply(null, args));
  }

  Blob = function (_Blob) {
    function secureBlob(...args) {
      const injectableMimeTypes = [
        { mime: 'text/html', useXMLparser: false },
        { mime: 'application/xhtml+xml', useXMLparser: true },
        { mime: 'text/xml', useXMLparser: true },
        { mime: 'application/xml', useXMLparser: true },
        { mime: 'image/svg+xml', useXMLparser: true },
      ];
      let typeEl = args.find(arg => (typeof arg === 'object') && (typeof arg.type === 'string') && (arg.type));

      if (typeof typeEl !== 'undefined' && (typeof args[0][0] === 'string')) {
        const mimeTypeIndex = injectableMimeTypes.findIndex(mimeType => mimeType.mime.toLowerCase() === typeEl.type.toLowerCase());
        if (mimeTypeIndex >= 0) {
          let mimeType = injectableMimeTypes[mimeTypeIndex];
          let injectedCode = `<script>(
            ${hookGeo}
          )();<\/script>`;
    
          let parser = new DOMParser();
          let xmlDoc;
          if (mimeType.useXMLparser === true) {
            xmlDoc = parser.parseFromString(args[0].join(''), mimeType.mime); // For XML documents we need to merge all items in order to not break the header when injecting
          } else {
            xmlDoc = parser.parseFromString(args[0][0], mimeType.mime);
          }

          if (xmlDoc.getElementsByTagName("parsererror").length === 0) { // if no errors were found while parsing...
            xmlDoc.documentElement.insertAdjacentHTML('afterbegin', injectedCode);
    
            if (mimeType.useXMLparser === true) {
              args[0] = [new XMLSerializer().serializeToString(xmlDoc)];
            } else {
              args[0][0] = xmlDoc.documentElement.outerHTML;
            }
          }
        }
      }

      return instantiate(_Blob, args); // arguments?
    }

    // Copy props and methods
    let propNames = Object.getOwnPropertyNames(_Blob);
    for (let i = 0; i < propNames.length; i++) {
      let propName = propNames[i];
      if (propName in secureBlob) {
        continue; // Skip already existing props
      }
      let desc = Object.getOwnPropertyDescriptor(_Blob, propName);
      Object.defineProperty(secureBlob, propName, desc);
    }

    secureBlob.prototype = _Blob.prototype;
    return secureBlob;
  }(Blob);

  window.addEventListener('message', function (event) {
    if (event.source !== window) {
      return;
    }
    const message = event.data;
    switch (message.method) {
      case 'updateLocation':
        if ((typeof message.info === 'object') && (typeof message.info.coords === 'object')) {
          hookedObj.genLat = message.info.coords.lat;
          hookedObj.genLon = message.info.coords.lon;
          hookedObj.fakeGeo = message.info.fakeIt;
        }
        break;
      default:
        break;
    }
  }, false);
  //]]>
}
          )();</script><g transform="translate(-354 -205)" lucid:page-tab-id="0_0"><path d="M0 0h1360v1760H0z" fill="#fff"/><path d="M520 340h240v60H520z" stroke="#000" stroke-opacity="0" stroke-width="3" fill="#ffeca9"/><path d="M520 400h240v160H520z" stroke="#000" stroke-opacity="0" stroke-width="3" fill="#c7e8ac"/><path d="M441.8 439.4l.15.35-.15.35-.35.15-.36-.15-.15-.35.14-.36.35-.15zm1.8-.9l.14.35-.15.35-.36.15-.36-.15-.14-.35.14-.35.36-.15zm1.78-.9l.15.36-.15.35-.35.16-.36-.15-.14-.34.14-.36.36-.14zm1.8-.9l.14.36-.15.35-.35.16-.36-.15-.14-.34.14-.35.36-.14zm1.78-.9l.15.37-.14.35-.35.15-.35-.15-.14-.35.15-.36.36-.13zm1.8-.88l.14.35-.15.35-.35.15-.36-.15-.14-.35.14-.35.36-.15zm1.78-.9l.15.36-.16.35-.35.15-.37-.15-.14-.35.13-.36.36-.14zm1.8-.9l.14.36-.15.36-.35.14-.36-.14-.14-.36.14-.35.36-.15zm1.78-.9l.14.37-.14.34-.36.15-.35-.16-.14-.35.15-.37.36-.14zm1.8-.88l.13.35-.14.35-.35.14-.35-.15-.15-.36.15-.36.35-.15zm1.78-.9l.14.36-.14.35-.36.15-.35-.15-.16-.35.15-.36.34-.14zm1.8-.9l.13.36-.14.36-.37.14-.35-.14-.15-.36.15-.35.35-.15zm1.78-.9l.14.37-.14.36-.36.15-.35-.14-.15-.35.15-.35.35-.14zm1.8-.88l.13.35-.13.37-.36.14-.34-.13-.15-.36.16-.34.35-.15zm1.78-.9l.14.36-.14.35-.36.15-.35-.15-.15-.35.15-.36.35-.14zm1.8-.9l.13.36-.15.36-.36.14-.36-.14-.15-.36.14-.35.35-.15zm1.78-.9l.14.37-.14.35-.36.15-.35-.15-.15-.35.15-.36.35-.14zm1.8-.88l.13.35-.14.36-.36.13-.35-.14-.15-.37.15-.35.35-.15zm1.78-.9l.14.36-.14.35-.36.14-.35-.15-.14-.36.15-.36.36-.14zm1.8-.9l.13.36-.14.36-.35.14-.35-.14-.15-.36.15-.35.35-.16zm1.77-.9l.14.37-.15.35-.36.15-.35-.15-.16-.35.15-.36.34-.15zm1.78-.88l.15.35-.15.36-.35.15-.35-.14-.15-.35.15-.35.35-.15zm1.8-.9l.14.36-.15.35-.35.16-.35-.15-.15-.34.15-.35.35-.14zm1.78-.9l.15.36-.14.36-.35.14-.34-.14-.15-.36.16-.35.35-.14zm1.8-.88l.14.35-.15.35-.35.15-.35-.15-.15-.35.15-.35.35-.15zm1.78-.9l.15.35-.16.36-.35.14-.36-.14-.15-.36.14-.35.35-.15zm1.8-.9l.14.36-.15.35-.35.15-.35-.15-.15-.35.15-.35.35-.15zm1.78-.9l.15.36-.15.36-.35.14-.35-.14-.15-.36.15-.35.35-.15zm1.8-.88l.14.35-.15.34-.34.15-.35-.16-.14-.35.15-.36.36-.15zm1.78-.9l.15.35-.15.35-.35.14-.35-.15-.15-.36.15-.36.35-.15zm1.8-.9l.14.36-.15.35-.36.15-.36-.15-.14-.35.14-.35.36-.15zm1.78-.9l.15.37-.15.36-.35.15-.36-.14-.14-.35.14-.35.36-.14zm1.8-.88l.14.35-.15.36-.35.15-.36-.14-.14-.35.14-.34.36-.15zm1.78-.9l.15.36-.14.35-.35.15-.35-.15-.14-.35.15-.36.36-.14zm1.8-.9l.14.36-.15.35-.35.15-.36-.15-.14-.35.14-.35.36-.15zm1.78-.9l.15.37-.16.35-.35.15-.37-.15-.14-.35.13-.36.36-.14zm1.8-.88l.14.35-.15.35-.35.15-.36-.15-.14-.35.14-.35.36-.15zm1.78-.9l.15.36-.15.35-.35.14-.36-.15-.13-.36.14-.36.37-.14zm1.8-.9l.14.36-.15.35-.34.14-.36-.15-.14-.36.14-.35.36-.16zm1.78-.9l.15.37-.15.35-.35.15-.36-.15-.15-.35.14-.36.35-.15zm1.8-.88l.14.35-.15.35-.36.15-.36-.15-.14-.35.14-.35.36-.15zm1.78-.9l.15.36-.15.35-.35.16-.36-.15-.14-.34.14-.36.36-.14zm1.8-.9l.14.36-.15.36-.35.14-.36-.14-.14-.36.14-.35.36-.14zm1.78-.9l.14.37-.14.35-.36.15-.35-.15-.15-.35.15-.36.35-.13zm1.8-.88l.13.35-.15.36-.36.14-.36-.14-.15-.36.14-.35.35-.15zm1.78-.9l.14.36-.14.35-.36.15-.35-.15-.15-.35.15-.36.35-.14zm1.8-.9l.13.36-.14.36-.36.14-.35-.14-.15-.36.15-.35.35-.15zm1.78-.9l.14.37-.14.34-.36.15-.35-.16-.14-.35.15-.37.36-.14zm1.8-.88l.13.35-.14.35-.35.14-.35-.15-.15-.36.15-.36.35-.15zm1.78-.9l.14.36-.14.35-.36.15-.35-.15-.16-.35.15-.36.34-.14zm1.8-.9l.13.36-.14.36-.37.14-.35-.14-.15-.36.15-.35.35-.15zm1.78-.9l.14.37-.14.36-.36.15-.35-.14-.15-.35.15-.35.35-.14zm1.8-.88l.13.35-.13.37-.36.14-.34-.13-.15-.36.16-.34.35-.15zm1.78-.9l.14.36-.14.35-.36.15-.35-.15-.15-.35.15-.36.35-.14zm1.8-.9l.13.36-.15.36-.36.14-.36-.14-.15-.36.14-.35.35-.15zm1.77-.88l.15.35-.15.35-.35.15-.35-.15-.15-.35.15-.35.35-.15zm1.8-.9l.14.35-.15.36-.35.13-.35-.14-.15-.37.15-.35.35-.15zm1.78-.9l.16.36-.15.35-.34.14-.35-.15-.14-.36.15-.35.36-.16zm1.8-.9l.15.36-.15.36-.35.14-.35-.14-.15-.36.15-.35.35-.16zm1.8-.88l.14.35-.15.35-.36.15-.35-.15-.16-.35.15-.35.34-.15zm1.78-.9l.15.35-.15.36-.35.15-.35-.14-.15-.35.15-.35.35-.15zm1.8-.9l.14.36-.15.35-.35.16-.35-.15-.15-.34.15-.35.35-.14zm1.78-.9l.15.36-.14.36-.35.14-.34-.14-.15-.36.16-.35.35-.14zm1.8-.88l.14.35-.15.35-.35.15-.35-.15-.15-.35.15-.35.35-.15zm1.78-.9l.15.35-.16.36-.35.14-.36-.14-.15-.36.14-.35.35-.15zm1.8-.9l.14.36-.15.35-.35.15-.36-.15-.14-.35.14-.35.36-.15zm1.78-.9l.15.37-.15.34-.35.15-.36-.16-.13-.35.14-.37.37-.14zm1.8-.88l.14.35-.15.34-.34.15-.36-.16-.14-.35.14-.36.36-.15zm1.78-.9l.15.36-.15.35-.35.15-.36-.15-.15-.35.14-.36.35-.14zm1.8-.9l.14.36-.15.35-.36.15-.36-.15-.14-.35.14-.35.36-.15zm1.78-.9l.15.37-.15.36-.35.15-.36-.14-.14-.35.14-.35.36-.14zm1.8-.88l.14.35-.15.36-.35.15-.36-.14-.14-.35.14-.34.36-.15zm1.78-.9l.15.36-.14.35-.35.15-.35-.15-.14-.35.15-.36.36-.14zm1.8-.9l.14.36-.15.35-.35.15-.36-.15-.14-.35.14-.35.36-.15zm1.78-.9l.15.37-.16.35-.35.15-.37-.15-.14-.35.13-.36.36-.14zm1.8-.88l.14.35-.15.36-.35.13-.36-.14-.14-.37.14-.35.36-.15zm1.78-.9l.15.36-.15.35-.35.14-.36-.15-.13-.36.14-.36.37-.14zm1.8-.9l.13.36-.14.36-.35.14-.35-.14-.15-.36.15-.35.35-.16zm1.78-.9l.14.37-.14.35-.36.15-.35-.15-.16-.35.15-.36.34-.15zm1.8-.88l.13.35-.14.36-.37.15-.35-.14-.15-.35.15-.35.35-.15zm1.78-.9l.14.36-.14.35-.36.16-.35-.15-.15-.34.15-.36.35-.14zm1.8-.9l.13.36-.13.36-.36.14-.34-.14-.15-.36.16-.35.35-.14zm1.78-.9l.14.37-.14.35-.36.15-.35-.15-.15-.35.15-.36.35-.13zm1.8-.88l.13.35-.15.36-.36.14-.36-.14-.15-.36.14-.35.35-.15zm1.78-.9l.14.36-.14.35-.36.15-.35-.15-.15-.35.15-.36.35-.14zm1.8-.9l.13.36-.14.36-.36.14-.35-.14-.15-.36.15-.35.35-.15zm1.78-.9l.14.37-.14.34-.36.15-.35-.16-.14-.35.15-.37.36-.14zm1.8-.88l.13.35-.14.35-.35.14-.35-.15-.15-.36.15-.36.35-.15zm1.78-.9l.14.36-.14.35-.36.15-.35-.15-.16-.35.15-.36.34-.14zm1.8-.9l.13.36-.14.36-.37.14-.35-.14-.15-.36.15-.35.35-.15zm1.77-.88l.15.35-.15.36-.35.15-.35-.14-.15-.35.15-.34.35-.15zm1.8-.9l.14.35-.14.37-.35.14-.34-.13-.15-.36.16-.34.35-.15zm1.78-.9l.15.36-.15.35-.35.15-.35-.15-.15-.35.15-.35.35-.15zm1.8-.9l.14.36-.16.36-.35.14-.36-.14-.15-.36.14-.35.35-.15zm1.78-.88l.15.35-.15.35-.35.15-.35-.15-.15-.35.15-.35.35-.15zm1.8-.9l.14.35-.15.36-.35.13-.35-.14-.15-.37.15-.35.35-.15zm1.78-.9l.16.36-.15.35-.34.14-.35-.15-.14-.36.15-.35.36-.16zm1.8-.9l.15.36-.15.36-.35.14-.35-.14-.15-.36.15-.35.35-.16zm1.8-.88l.14.35-.15.35-.36.15-.35-.15-.16-.35.15-.35.34-.15zm1.78-.9l.15.35-.15.36-.35.15-.35-.14-.15-.35.15-.35.35-.15zm1.8-.9l.14.36-.15.35-.35.16-.36-.15-.14-.34.14-.35.36-.14zm1.78-.9l.15.37-.14.35-.35.15-.35-.15-.14-.35.15-.36.36-.13zm1.8-.88l.14.35-.15.35-.35.15-.36-.15-.14-.35.14-.35.36-.15zm1.78-.9l.15.36-.16.35-.35.15-.37-.15-.14-.35.13-.36.36-.14zm1.8-.9l.14.36-.15.35-.35.15-.36-.15-.14-.35.14-.35.36-.15zm1.78-.9l.15.37-.15.34-.35.15-.36-.16-.13-.35.14-.37.37-.14zm1.8-.88l.14.35-.15.34-.34.15-.36-.16-.14-.35.14-.36.36-.15zm1.78-.9l.15.36-.15.35-.35.15-.36-.15-.15-.35.14-.36.35-.14zm1.8-.9l.14.36-.15.35-.36.15-.36-.15-.14-.35.14-.35.36-.15zm1.78-.9l.15.37-.15.36-.35.15-.36-.14-.14-.35.14-.35.36-.14zm1.8-.88l.14.35-.15.37-.35.14-.36-.13-.14-.36.14-.34.36-.15zm1.78-.9l.15.36-.14.35-.35.15-.35-.15-.14-.35.15-.36.36-.14zm1.8-.9l.13.36-.15.36-.36.14-.36-.14-.15-.36.14-.35.35-.15zm1.78-.9l.14.37-.14.35-.36.15-.35-.15-.15-.35.15-.36.35-.14zm1.8-.88l.13.35-.14.36-.36.13-.35-.14-.15-.37.15-.35.35-.15zm1.78-.9l.14.36-.14.35-.36.14-.35-.15-.14-.36.15-.36.36-.14zm1.8-.9l.13.36-.14.36-.35.14-.35-.14-.15-.36.15-.35.35-.16zm1.78-.9l.14.37-.14.35-.36.15-.35-.15-.16-.35.15-.36.34-.15zm1.8-.88l.13.35-.14.36-.37.15-.35-.14-.15-.35.15-.35.35-.15zm1.78-.9l.14.36-.14.35-.36.16-.35-.15-.15-.34.15-.36.35-.14zm1.8-.9l.13.36-.13.36-.36.14-.34-.14-.15-.36.16-.35.35-.14zm1.78-.9l.14.37-.14.35-.36.15-.35-.15-.15-.35.15-.36.35-.13zm1.8-.88l.13.35-.15.36-.36.14-.36-.14-.15-.36.14-.35.35-.15zm1.78-.9l.14.36-.14.35-.36.15-.35-.15-.15-.35.15-.36.35-.14zm1.78-.9l.15.36-.15.36-.35.14-.35-.14-.15-.36.15-.35.35-.15zm1.8-.88l.14.35-.15.34-.34.15-.35-.16-.14-.35.15-.36.36-.15zm1.78-.9l.15.35-.15.35-.35.14-.35-.15-.15-.36.15-.36.35-.15zm1.8-.9l.14.36-.15.35-.36.15-.35-.15-.16-.35.15-.35.34-.15zm1.78-.9l.15.36-.15.36-.35.14-.35-.14-.15-.36.15-.35.35-.15zm1.8-.88l.14.35-.15.36-.35.15-.35-.14-.15-.35.15-.34.35-.15zm1.78-.9l.15.35-.14.37-.35.14-.34-.13-.15-.36.16-.34.35-.15zm1.8-.9l.14.36-.15.35-.35.15-.35-.15-.15-.35.15-.35.35-.15zm1.78-.9l.15.36-.16.36-.35.14-.36-.14-.15-.36.14-.35.35-.15zm1.8-.88l.14.35-.15.35-.35.15-.35-.15-.15-.35.15-.35.35-.15zm1.78-.9l.15.35-.15.36-.35.13-.36-.14-.13-.37.14-.35.37-.15zm1.8-.9l.14.36-.15.35-.34.14-.36-.15-.14-.36.14-.35.36-.16zm1.78-.9l.15.37-.15.35-.35.15-.36-.15-.15-.35.14-.36.35-.15zm1.8-.88l.14.35-.15.35-.36.15-.36-.15-.14-.35.14-.35.36-.15zm1.78-.9l.15.36-.15.35-.35.16-.36-.15-.14-.34.14-.36.36-.14zm1.8-.9l.14.36-.15.35-.35.16-.36-.15-.14-.34.14-.35.36-.14zm1.78-.9l.15.37-.14.35-.35.15-.35-.15-.14-.35.15-.36.36-.13zm1.8-.88l.14.35-.15.35-.35.15-.36-.15-.14-.35.14-.35.36-.15zm1.78-.9l.15.36-.16.35-.35.15-.37-.15-.14-.35.13-.36.36-.14zm1.8-.9l.14.36-.15.35-.35.15-.36-.15-.14-.35.14-.35.36-.15zm1.78-.9l.15.37-.15.34-.35.15-.36-.16-.13-.35.14-.37.37-.14zm1.8-.88l.14.35-.15.35-.34.14-.36-.15-.14-.36.14-.36.36-.15zm1.78-.9l.15.36-.15.35-.35.15-.36-.15-.15-.35.14-.36.35-.14zm1.8-.9l.13.36-.14.36-.37.14-.35-.14-.15-.36.15-.35.35-.15zm1.78-.9l.14.37-.14.36-.36.15-.35-.14-.15-.35.15-.35.35-.14zm1.8-.88l.13.35-.13.37-.36.14-.34-.13-.15-.36.16-.34.35-.15zm1.78-.9l.14.36-.14.35-.36.15-.35-.15-.15-.35.15-.36.35-.14zm1.8-.9l.13.36-.15.36-.36.14-.36-.14-.15-.36.14-.35.35-.15zm1.78-.9l.14.37-.14.35-.36.15-.35-.15-.15-.35.15-.36.35-.14zm1.8-.88l.13.35-.14.36-.36.13-.35-.14-.15-.37.15-.35.35-.15zm1.78-.9l.14.36-.14.35-.36.14-.35-.15-.14-.36.15-.36.36-.14zm1.8-.9l.13.36-.14.36-.35.14-.35-.14-.15-.36.15-.35.35-.16zm1.78-.9l.14.37-.14.35-.36.15-.35-.15-.16-.35.15-.36.34-.15zm1.8-.88l.13.35-.14.36-.37.15-.35-.14-.15-.35.15-.35.35-.15zm1.78-.9l.14.36-.14.35-.36.16-.35-.15-.15-.34.15-.36.35-.14zm1.78-.9l.15.36-.14.36-.35.14-.34-.14-.15-.36.16-.35.35-.14zm1.8-.88l.14.35-.15.35-.35.15-.35-.15-.15-.35.15-.35.35-.15zm1.78-.9l.15.35-.16.36-.35.14-.36-.14-.15-.36.14-.35.35-.15zm1.8-.9l.14.36-.15.35-.35.15-.35-.15-.15-.35.15-.35.35-.15zm1.78-.9l.15.36-.15.36-.35.14-.35-.14-.15-.36.15-.35.35-.15zm1.8-.88l.14.35-.15.34-.34.15-.35-.16-.14-.35.15-.36.36-.15zm1.78-.9l.15.35-.15.35-.35.14-.35-.15-.15-.36.15-.36.35-.15zm1.8-.9l.14.36-.15.35-.36.15-.35-.15-.16-.35.15-.35.34-.15zm1.78-.9l.15.36-.15.36-.35.14-.35-.14-.15-.36.15-.35.35-.15zm1.8-.88l.14.35-.15.36-.35.15-.35-.14-.15-.35.15-.34.35-.15zm1.78-.9l.15.36-.14.35-.35.15-.35-.15-.14-.35.15-.36.36-.14zm1.8-.9l.14.36-.15.35-.35.15-.36-.15-.14-.35.14-.35.36-.15zm1.78-.9l.15.37-.16.35-.35.15-.37-.15-.14-.35.13-.36.36-.14zm1.8-.88l.14.35-.15.35-.35.15-.36-.15-.14-.35.14-.35.36-.15zm1.78-.9l.15.36-.15.35-.35.14-.36-.15-.13-.36.14-.36.37-.14zm1.8-.9l.14.36-.15.35-.34.14-.36-.15-.14-.36.14-.35.36-.16zm1.78-.9l.15.37-.15.35-.35.15-.36-.15-.15-.35.14-.36.35-.15zm1.8-.88l.14.35-.15.35-.36.15-.36-.15-.14-.35.14-.35.36-.15zm1.78-.9l.15.36-.15.35-.35.16-.36-.15-.14-.34.14-.36.36-.14zm1.8-.9l.14.36-.15.35-.35.16-.36-.15-.14-.34.14-.35.36-.14zm1.78-.9l.15.37-.14.35-.35.15-.35-.15-.14-.35.15-.36.36-.13zm1.8-.88l.14.35-.15.36-.35.14-.36-.14-.14-.36.14-.35.36-.15zm1.78-.9l.14.36-.14.35-.36.15-.35-.15-.15-.35.15-.36.35-.14zm1.8-.9l.13.36-.14.36-.36.14-.35-.14-.15-.36.15-.35.35-.15zm1.78-.9l.14.37-.14.34-.36.15-.35-.16-.14-.35.15-.37.36-.14zm1.8-.88l.13.35-.14.35-.35.14-.35-.15-.15-.36.15-.36.35-.15zm1.78-.9l.14.36-.14.35-.36.15-.35-.15-.16-.35.15-.36.34-.14zm1.8-.9l.13.36-.14.36-.37.14-.35-.14-.15-.36.15-.35.35-.15zm1.78-.9l.14.37-.14.36-.36.15-.35-.14-.15-.35.15-.35.35-.14zm1.8-.88l.13.35-.13.37-.36.14-.34-.13-.15-.36.16-.34.35-.15zm1.78-.9l.14.36-.14.35-.36.15-.35-.15-.15-.35.15-.36.35-.14zm1.8-.9l.13.36-.15.36-.36.14-.36-.14-.15-.36.14-.35.35-.15zm1.78-.9l.14.37-.14.35-.36.15-.35-.15-.15-.35.15-.36.35-.14zm1.8-.88l.13.35-.14.36-.36.13-.35-.14-.15-.37.15-.35.35-.15zm1.78-.9l.14.36-.14.35-.36.14-.35-.15-.14-.36.15-.36.36-.14zm1.78-.9l.15.36-.15.36-.35.14-.35-.14-.15-.36.15-.35.35-.16zm1.8-.88l.14.35-.15.35-.36.15-.35-.15-.16-.35.15-.35.34-.15zm1.78-.9l.15.35-.15.36-.35.15-.35-.14-.15-.35.15-.35.35-.15zm1.8-.9l.14.36-.15.35-.35.16-.35-.15-.15-.34.15-.35.35-.14zm1.78-.9l.15.36-.14.36-.35.14-.34-.14-.15-.36.16-.35.35-.14zm1.8-.88l.14.35-.15.35-.35.15-.35-.15-.15-.35.15-.35.35-.15zm1.78-.9l.15.35-.16.36-.35.14-.36-.14-.15-.36.14-.35.35-.15zm1.8-.9l.14.36-.15.35-.35.15-.35-.15-.15-.35.15-.35.35-.15zm1.78-.9l.15.36-.15.36-.35.14-.35-.14-.15-.36.15-.35.35-.15zm1.8-.88l.14.35-.15.34-.34.15-.35-.16-.14-.35.15-.36.36-.15zm1.78-.9l.15.36-.15.35-.35.15-.36-.15-.15-.35.14-.36.35-.14zm1.8-.9l.14.36-.15.35-.36.15-.36-.15-.14-.35.14-.35.36-.15zm1.78-.9l.15.37-.15.36-.35.15-.36-.14-.14-.35.14-.35.36-.14zm1.8-.88l.14.35-.15.36-.35.15-.36-.14-.14-.35.14-.34.36-.15zm1.78-.9l.15.36-.14.35-.35.15-.35-.15-.14-.35.15-.36.36-.14zm1.8-.9l.14.36-.15.35-.35.15-.36-.15-.14-.35.14-.35.36-.15zm1.78-.9l.15.37-.16.35-.35.15-.37-.15-.14-.35.13-.36.36-.14zm1.8-.88l.14.35-.15.35-.35.15-.36-.15-.14-.35.14-.35.36-.15zm1.78-.9l.15.36-.15.35-.35.14-.36-.15-.13-.36.14-.36.37-.14zm1.8-.9l.14.36-.15.35-.34.14-.36-.15-.14-.36.14-.35.36-.16zm1.78-.9l.15.37-.15.35-.35.15-.36-.15-.15-.35.14-.36.35-.15zm1.8-.88l.14.35-.15.36-.36.15-.36-.14-.14-.35.14-.35.36-.15zm1.78-.9l.14.36-.14.35-.36.16-.35-.15-.15-.34.15-.36.35-.14zm1.8-.9l.13.36-.13.36-.36.14-.34-.14-.15-.36.16-.35.35-.14zm1.78-.9l.14.37-.14.35-.36.15-.35-.15-.15-.35.15-.36.35-.13zm1.8-.88l.13.35-.15.36-.36.14-.36-.14-.15-.36.14-.35.35-.15zm1.78-.9l.14.36-.14.35-.36.15-.35-.15-.15-.35.15-.36.35-.14zm1.8-.9l.13.36-.14.36-.36.14-.35-.14-.15-.36.15-.35.35-.15zm1.78-.9l.14.37-.14.34-.36.15-.35-.16-.14-.35.15-.37.36-.14zm1.8-.88l.13.35-.14.35-.35.14-.35-.15-.15-.36.15-.36.35-.15z" fill="#5e5e5e"/><path d="M441.68 440.2l-.46.22-.44-.9.46-.23zM841.22 240.42l-.46.23-.44-.9.46-.23zM840.9 439.4l.15.35-.14.35-.35.15-.35-.15-.15-.35.15-.36.35-.15zm-1.78-.9l.14.35-.14.35-.36.15-.35-.15-.14-.35.15-.35.36-.15zm-1.8-.9l.15.36-.14.35-.36.16-.35-.15-.15-.34.15-.36.35-.14zm-1.78-.9l.14.36-.14.35-.36.16-.35-.15-.15-.34.15-.35.35-.14zm-1.8-.9l.15.37-.15.35-.36.15-.36-.15-.15-.35.14-.36.35-.13zm-1.78-.88l.14.35-.14.35-.36.15-.35-.15-.15-.35.15-.35.35-.15zm-1.8-.9l.15.36-.13.35-.36.15-.34-.15-.15-.35.16-.36.35-.14zm-1.78-.9l.14.36-.14.36-.36.14-.35-.14-.15-.36.15-.35.35-.15zm-1.8-.9l.16.37-.15.34-.36.15-.36-.16-.14-.35.14-.37.36-.14zm-1.78-.88l.15.35-.15.35-.35.14-.36-.15-.15-.36.14-.36.35-.15zm-1.8-.9l.16.36-.15.35-.34.15-.36-.15-.14-.35.14-.36.36-.14zm-1.78-.9l.15.36-.15.36-.35.14-.36-.14-.13-.36.14-.35.37-.15zm-1.8-.9l.16.37-.15.36-.35.15-.36-.14-.14-.35.14-.35.36-.14zm-1.78-.88l.15.35-.16.37-.35.14-.37-.13-.14-.36.13-.34.36-.15zm-1.8-.9l.16.36-.15.35-.35.15-.36-.15-.14-.35.14-.36.36-.14zm-1.78-.9l.15.36-.14.36-.35.14-.35-.14-.14-.36.15-.35.36-.15zm-1.8-.9l.16.37-.15.35-.35.15-.36-.15-.14-.35.14-.36.36-.14zm-1.78-.88l.15.35-.15.36-.35.13-.36-.14-.14-.37.14-.35.36-.15zm-1.8-.9l.16.36-.15.35-.36.14-.36-.15-.14-.36.14-.36.36-.14zm-1.78-.9l.15.36-.15.36-.35.14-.36-.14-.15-.36.14-.35.35-.16zm-1.8-.9l.16.37-.15.35-.34.15-.35-.15-.14-.35.15-.36.36-.15zm-1.78-.88l.15.35-.15.36-.35.15-.35-.14-.15-.35.15-.35.35-.15zm-1.8-.9l.16.36-.15.35-.35.16-.35-.15-.15-.34.15-.35.35-.14zm-1.78-.9l.15.36-.16.36-.35.14-.36-.14-.15-.36.14-.35.35-.14zm-1.8-.88l.16.35-.15.35-.35.15-.35-.15-.15-.35.15-.35.35-.15zm-1.78-.9l.15.35-.14.36-.35.14-.34-.14-.15-.36.16-.35.35-.15zm-1.8-.9l.16.36-.15.35-.35.15-.35-.15-.15-.35.15-.35.35-.15zm-1.78-.9l.15.36-.15.36-.35.14-.35-.14-.15-.36.15-.35.35-.15zm-1.8-.88l.16.35-.15.34-.36.15-.35-.16-.16-.35.15-.36.34-.15zm-1.78-.9l.15.35-.15.35-.35.14-.35-.15-.15-.36.15-.36.35-.15zm-1.78-.9l.14.36-.14.35-.36.15-.35-.15-.14-.35.15-.35.36-.15zm-1.8-.9l.15.37-.14.36-.36.15-.35-.14-.15-.35.15-.35.35-.14zm-1.78-.88l.14.35-.14.36-.36.15-.35-.14-.15-.35.15-.34.35-.15zm-1.8-.9l.15.36-.15.35-.36.15-.36-.15-.15-.35.14-.36.35-.14zm-1.78-.9l.14.36-.14.35-.36.15-.35-.15-.15-.35.15-.35.35-.15zm-1.8-.9l.15.37-.13.35-.36.15-.34-.15-.15-.35.16-.36.35-.14zm-1.78-.88l.14.35-.14.35-.36.15-.35-.15-.15-.35.15-.35.35-.15zm-1.8-.9l.15.36-.14.35-.37.14-.35-.15-.15-.36.15-.36.35-.14zm-1.78-.9l.14.36-.14.35-.36.14-.35-.15-.16-.36.15-.35.34-.16zm-1.8-.9l.15.37-.14.35-.35.15-.35-.15-.15-.35.15-.36.35-.15zm-1.78-.88l.14.35-.14.35-.36.15-.35-.15-.14-.35.15-.35.36-.15zm-1.8-.9l.15.36-.14.35-.36.16-.35-.15-.15-.34.15-.36.35-.14zm-1.78-.9l.14.36-.14.36-.36.14-.35-.14-.15-.36.15-.35.35-.14zm-1.8-.9l.16.37-.15.35-.35.15-.36-.15-.14-.35.14-.36.36-.13zm-1.78-.88l.15.35-.14.36-.35.14-.35-.14-.14-.36.15-.35.36-.15zm-1.8-.9l.16.36-.15.35-.35.15-.36-.15-.14-.35.14-.36.36-.14zm-1.78-.9l.15.36-.15.36-.35.14-.36-.14-.14-.36.14-.35.36-.15zm-1.8-.9l.16.37-.15.34-.36.15-.36-.16-.14-.35.14-.37.36-.14zm-1.78-.88l.15.35-.15.35-.35.14-.36-.15-.15-.36.14-.36.35-.15zm-1.8-.9l.16.36-.15.35-.34.15-.36-.15-.14-.35.14-.36.36-.14zm-1.78-.9l.15.36-.15.36-.35.14-.36-.14-.13-.36.14-.35.37-.15zm-1.8-.9l.16.37-.15.36-.35.15-.36-.14-.14-.35.14-.35.36-.14zm-1.78-.88l.15.35-.16.37-.35.14-.37-.13-.14-.36.13-.34.36-.15zm-1.8-.9l.16.36-.15.35-.35.15-.36-.15-.14-.35.14-.36.36-.14zm-1.78-.9l.15.36-.14.36-.35.14-.35-.14-.14-.36.15-.35.36-.15zm-1.8-.88l.16.35-.15.35-.35.15-.35-.15-.15-.35.15-.35.35-.15zm-1.78-.9l.15.35-.15.36-.35.13-.35-.14-.15-.37.15-.35.35-.15zm-1.8-.9l.16.36-.15.35-.36.14-.35-.15-.16-.36.15-.35.34-.16zm-1.78-.9l.15.36-.15.36-.35.14-.35-.14-.15-.36.15-.35.35-.16zm-1.8-.88l.16.35-.15.35-.34.15-.35-.15-.14-.35.15-.35.36-.15zm-1.78-.9l.15.35-.15.36-.35.15-.35-.14-.15-.35.15-.35.35-.15zm-1.8-.9l.16.36-.15.35-.35.16-.35-.15-.15-.34.15-.35.35-.14zm-1.78-.9l.15.36-.16.36-.35.14-.36-.14-.15-.36.14-.35.35-.14zm-1.8-.88l.16.35-.15.35-.35.15-.35-.15-.15-.35.15-.35.35-.15zm-1.78-.9l.15.35-.14.36-.35.14-.34-.14-.15-.36.16-.35.35-.15zm-1.78-.9l.14.36-.14.35-.36.15-.35-.15-.15-.35.15-.35.35-.15zm-1.8-.9l.15.37-.14.34-.37.15-.35-.16-.15-.35.15-.37.35-.14zm-1.78-.88l.14.35-.14.34-.36.15-.35-.16-.16-.35.15-.36.34-.15zm-1.8-.9l.15.36-.14.35-.35.15-.35-.15-.15-.35.15-.36.35-.14zm-1.78-.9l.14.36-.14.35-.36.15-.35-.15-.14-.35.15-.35.36-.15zm-1.8-.9l.15.37-.14.36-.36.15-.35-.14-.15-.35.15-.35.35-.14zm-1.78-.88l.14.35-.14.36-.36.15-.35-.14-.15-.35.15-.34.35-.15zm-1.8-.9l.15.36-.15.35-.36.15-.36-.15-.15-.35.14-.36.35-.14zm-1.78-.9l.14.36-.14.35-.36.15-.35-.15-.15-.35.15-.35.35-.15zm-1.8-.9l.15.37-.13.35-.36.15-.34-.15-.15-.35.16-.36.35-.14zm-1.78-.88l.14.35-.14.36-.36.13-.35-.14-.15-.37.15-.35.35-.15zm-1.8-.9l.15.36-.14.35-.37.14-.35-.15-.15-.36.15-.36.35-.14zm-1.78-.9l.15.36-.15.36-.35.14-.36-.14-.15-.36.14-.35.35-.16zm-1.8-.9l.16.37-.15.35-.34.15-.36-.15-.14-.35.14-.36.36-.15zm-1.78-.88l.15.35-.15.36-.35.15-.36-.14-.13-.35.14-.35.37-.15zm-1.8-.9l.16.36-.15.35-.35.16-.36-.15-.14-.34.14-.36.36-.14zm-1.78-.9l.15.36-.16.36-.35.14-.37-.14-.14-.36.13-.35.36-.14zm-1.8-.9l.16.37-.15.35-.35.15-.36-.15-.14-.35.14-.36.36-.13zm-1.78-.88l.15.35-.14.36-.35.14-.35-.14-.14-.36.15-.35.36-.15zm-1.8-.9l.16.36-.15.35-.35.15-.36-.15-.14-.35.14-.36.36-.14zm-1.78-.9l.15.36-.15.36-.35.14-.36-.14-.14-.36.14-.35.36-.15zm-1.8-.9l.16.37-.15.34-.36.15-.36-.16-.14-.35.14-.37.36-.14zm-1.78-.88l.15.35-.15.35-.35.14-.36-.15-.15-.36.14-.36.35-.15zm-1.8-.9l.16.36-.15.35-.34.15-.36-.15-.14-.35.14-.36.36-.14zm-1.78-.9l.15.36-.15.36-.35.14-.36-.14-.13-.36.14-.35.37-.15zm-1.8-.88l.16.35-.15.36-.35.15-.35-.14-.15-.35.15-.34.35-.15zm-1.78-.9l.15.35-.16.37-.35.14-.36-.13-.15-.36.14-.34.35-.15zm-1.8-.9l.16.36-.15.35-.35.15-.35-.15-.15-.35.15-.35.35-.15zm-1.78-.9l.15.36-.14.36-.35.14-.34-.14-.15-.36.16-.35.35-.15zm-1.8-.88l.16.35-.15.35-.35.15-.35-.15-.15-.35.15-.35.35-.15zm-1.78-.9l.15.35-.15.36-.35.13-.35-.14-.15-.37.15-.35.35-.15zm-1.8-.9l.16.36-.15.35-.36.14-.35-.15-.16-.36.15-.35.34-.16zm-1.78-.9l.15.36-.15.36-.35.14-.35-.14-.15-.36.15-.35.35-.16zm-1.8-.88l.16.35-.15.35-.34.15-.35-.15-.14-.35.15-.35.36-.15zm-1.78-.9l.15.35-.15.36-.35.15-.35-.14-.15-.35.15-.35.35-.15zm-1.78-.9l.14.36-.14.35-.36.16-.35-.15-.15-.34.15-.35.35-.14zm-1.8-.9l.15.37-.15.35-.36.15-.36-.15-.15-.35.14-.36.35-.13zm-1.78-.88l.14.35-.14.35-.36.15-.35-.15-.15-.35.15-.35.35-.15zm-1.8-.9l.15.36-.13.35-.36.15-.34-.15-.15-.35.16-.36.35-.14zm-1.78-.9l.14.36-.14.35-.36.15-.35-.15-.15-.35.15-.35.35-.15zm-1.8-.9l.15.37-.14.34-.37.15-.35-.16-.15-.35.15-.37.35-.14zm-1.78-.88l.14.35-.14.34-.36.15-.35-.16-.16-.35.15-.36.34-.15zm-1.8-.9l.15.36-.14.35-.35.15-.35-.15-.15-.35.15-.36.35-.14zm-1.78-.9l.14.36-.14.35-.36.15-.35-.15-.14-.35.15-.35.36-.15zm-1.8-.9l.15.37-.14.36-.36.15-.35-.14-.15-.35.15-.35.35-.14zm-1.78-.88l.14.35-.14.37-.36.14-.35-.13-.15-.36.15-.34.35-.15zm-1.8-.9l.15.36-.15.35-.36.15-.36-.15-.15-.35.14-.36.35-.14zm-1.78-.9l.15.36-.14.36-.35.14-.35-.14-.14-.36.15-.35.36-.15zm-1.8-.9l.16.37-.15.35-.35.15-.36-.15-.14-.35.14-.36.36-.14zm-1.78-.88l.15.35-.15.36-.35.13-.36-.14-.14-.37.14-.35.36-.15zm-1.8-.9l.16.36-.15.35-.36.14-.36-.15-.14-.36.14-.36.36-.14zm-1.78-.9l.15.36-.15.36-.35.14-.36-.14-.15-.36.14-.35.35-.16zm-1.8-.9l.16.37-.15.35-.34.15-.36-.15-.14-.35.14-.36.36-.15zm-1.78-.88l.15.35-.15.36-.35.15-.36-.14-.13-.35.14-.35.37-.15zm-1.8-.9l.16.36-.15.35-.35.16-.36-.15-.14-.34.14-.36.36-.14zm-1.78-.9l.15.36-.16.36-.35.14-.37-.14-.14-.36.13-.35.36-.14zm-1.8-.9l.16.37-.15.35-.35.15-.36-.15-.14-.35.14-.36.36-.13zm-1.78-.88l.15.35-.14.36-.35.14-.35-.14-.14-.36.15-.35.36-.15zm-1.8-.9l.16.36-.15.35-.35.15-.36-.15-.14-.35.14-.36.36-.14zm-1.78-.9l.15.36-.15.36-.35.14-.35-.14-.15-.36.15-.35.35-.15zm-1.8-.88l.16.35-.15.34-.36.15-.35-.16-.16-.35.15-.36.34-.15zm-1.78-.9l.15.35-.15.35-.35.14-.35-.15-.15-.36.15-.36.35-.15zm-1.8-.9l.16.36-.15.35-.34.15-.35-.15-.14-.35.15-.35.36-.15zm-1.78-.9l.15.36-.15.36-.35.14-.35-.14-.15-.36.15-.35.35-.15zm-1.8-.88l.16.35-.15.36-.35.15-.35-.14-.15-.35.15-.34.35-.15zm-1.78-.9l.15.35-.16.37-.35.14-.36-.13-.15-.36.14-.34.35-.15zm-1.8-.9l.16.36-.15.35-.35.15-.35-.15-.15-.35.15-.35.35-.15zm-1.78-.9l.15.36-.14.36-.35.14-.34-.14-.15-.36.16-.35.35-.15zm-1.8-.88l.16.35-.15.35-.35.15-.35-.15-.15-.35.15-.35.35-.15zm-1.77-.9l.13.35-.14.36-.37.13-.35-.14-.15-.37.15-.35.35-.15zm-1.8-.9l.14.36-.14.35-.36.14-.35-.15-.16-.36.15-.35.34-.16zm-1.8-.9l.15.37-.14.35-.35.15-.35-.15-.15-.35.15-.36.35-.15zm-1.78-.88l.14.35-.14.35-.36.15-.35-.15-.14-.35.15-.35.36-.15zm-1.8-.9l.15.36-.14.35-.36.16-.35-.15-.15-.34.15-.36.35-.14zm-1.78-.9l.14.36-.14.35-.36.16-.35-.15-.15-.34.15-.35.35-.14zm-1.8-.9l.15.37-.15.35-.36.15-.36-.15-.15-.35.14-.36.35-.13zm-1.78-.88l.14.35-.14.35-.36.15-.35-.15-.15-.35.15-.35.35-.15zm-1.8-.9l.15.36-.13.35-.36.15-.34-.15-.15-.35.16-.36.35-.14zm-1.78-.9l.14.36-.14.35-.36.15-.35-.15-.15-.35.15-.35.35-.15zm-1.8-.9l.15.37-.14.34-.37.15-.35-.16-.15-.35.15-.37.35-.14zm-1.78-.88l.14.35-.14.35-.36.14-.35-.15-.16-.36.15-.36.34-.15zm-1.8-.9l.15.36-.14.35-.35.15-.35-.15-.15-.35.15-.36.35-.14zm-1.78-.9l.15.36-.15.36-.35.14-.36-.14-.13-.36.14-.35.37-.15zm-1.8-.9l.16.37-.15.36-.35.15-.36-.14-.14-.35.14-.35.36-.14zm-1.78-.88l.15.35-.16.37-.35.14-.37-.13-.14-.36.13-.34.36-.15zm-1.8-.9l.16.36-.15.35-.35.15-.36-.15-.14-.35.14-.36.36-.14zm-1.78-.9l.15.36-.14.36-.35.14-.35-.14-.14-.36.15-.35.36-.15zm-1.8-.9l.16.37-.15.35-.35.15-.36-.15-.14-.35.14-.36.36-.14zm-1.78-.88l.15.35-.15.36-.35.13-.36-.14-.14-.37.14-.35.36-.15zm-1.8-.9l.16.36-.15.35-.36.14-.36-.15-.14-.36.14-.36.36-.14zm-1.78-.9l.15.36-.15.36-.35.14-.36-.14-.15-.36.14-.35.35-.16zm-1.8-.9l.16.37-.15.35-.34.15-.36-.15-.14-.35.14-.36.36-.15zm-1.78-.88l.15.35-.15.36-.35.15-.36-.14-.13-.35.14-.35.37-.15zm-1.8-.9l.16.36-.15.35-.35.16-.36-.15-.14-.34.14-.36.36-.14zm-1.78-.9l.15.36-.16.36-.35.14-.36-.14-.15-.36.14-.35.35-.14zm-1.8-.88l.16.35-.15.35-.35.15-.35-.15-.15-.35.15-.35.35-.15zm-1.78-.9l.15.35-.14.36-.35.14-.34-.14-.15-.36.16-.35.35-.15zm-1.8-.9l.16.36-.15.35-.35.15-.35-.15-.15-.35.15-.35.35-.15zm-1.78-.9l.15.36-.15.36-.35.14-.35-.14-.15-.36.15-.35.35-.15zm-1.8-.88l.16.35-.15.34-.36.15-.35-.16-.16-.35.15-.36.34-.15zm-1.78-.9l.15.35-.15.35-.35.14-.35-.15-.15-.36.15-.36.35-.15zm-1.8-.9l.16.36-.15.35-.34.15-.35-.15-.14-.35.15-.35.36-.15zm-1.78-.9l.15.36-.15.36-.35.14-.35-.14-.15-.36.15-.35.35-.15zm-1.8-.88l.16.35-.15.36-.35.15-.35-.14-.15-.35.15-.34.35-.15zm-1.77-.9l.14.36-.15.35-.36.15-.36-.15-.15-.35.14-.36.35-.14zm-1.8-.9l.15.36-.14.35-.36.15-.35-.15-.15-.35.15-.35.35-.15zm-1.78-.9l.14.37-.13.35-.36.15-.34-.15-.15-.35.16-.36.35-.14zm-1.8-.88l.15.35-.14.35-.36.15-.35-.15-.15-.35.15-.35.35-.15zm-1.78-.9l.13.36-.14.35-.37.14-.35-.15-.15-.36.15-.36.35-.14zm-1.8-.9l.14.36-.14.35-.36.14-.35-.15-.16-.36.15-.35.34-.16zm-1.8-.9l.15.37-.14.35-.35.15-.35-.15-.15-.35.15-.36.35-.15zm-1.78-.88l.14.35-.14.35-.36.15-.35-.15-.14-.35.15-.35.36-.15zm-1.8-.9l.15.36-.14.35-.36.16-.35-.15-.15-.34.15-.36.35-.14zm-1.78-.9l.14.36-.14.35-.36.16-.35-.15-.15-.34.15-.35.35-.14zm-1.8-.9l.15.37-.15.35-.36.15-.36-.15-.15-.35.14-.36.35-.13zm-1.78-.88l.14.35-.14.36-.36.14-.35-.14-.15-.36.15-.35.35-.15zm-1.8-.9l.16.36-.15.35-.35.15-.36-.15-.14-.35.14-.36.36-.14zm-1.78-.9l.15.36-.15.36-.35.14-.36-.14-.14-.36.14-.35.36-.15zm-1.8-.9l.16.37-.15.34-.36.15-.36-.16-.14-.35.14-.37.36-.14zm-1.78-.88l.15.35-.15.35-.35.14-.36-.15-.15-.36.14-.36.35-.15zm-1.8-.9l.16.36-.15.35-.34.15-.36-.15-.14-.35.14-.36.36-.14zm-1.78-.9l.15.36-.15.36-.35.14-.36-.14-.13-.36.14-.35.37-.15zm-1.8-.9l.16.37-.15.36-.35.15-.36-.14-.14-.35.14-.35.36-.14zm-1.78-.88l.15.35-.16.37-.35.14-.37-.13-.14-.36.13-.34.36-.15zm-1.8-.9l.16.36-.15.35-.35.15-.36-.15-.14-.35.14-.36.36-.14zm-1.78-.9l.15.36-.14.36-.35.14-.35-.14-.14-.36.15-.35.36-.15zm-1.8-.9l.16.37-.15.35-.35.15-.36-.15-.14-.35.14-.36.36-.14zm-1.78-.88l.15.35-.15.36-.35.13-.36-.14-.14-.37.14-.35.36-.15zm-1.8-.9l.16.36-.15.35-.36.14-.36-.15-.14-.36.14-.36.36-.14zm-1.78-.9l.15.36-.15.36-.35.14-.35-.14-.15-.36.15-.35.35-.16zm-1.8-.88l.16.35-.15.35-.34.15-.35-.15-.14-.35.15-.35.36-.15zm-1.78-.9l.15.35-.15.36-.35.15-.35-.14-.15-.35.15-.35.35-.15zm-1.8-.9l.16.36-.15.35-.35.16-.35-.15-.15-.34.15-.35.35-.14zm-1.78-.9l.15.36-.16.36-.35.14-.36-.14-.15-.36.14-.35.35-.14zm-1.8-.88l.16.35-.15.35-.35.15-.35-.15-.15-.35.15-.35.35-.15zm-1.78-.9l.15.35-.14.36-.35.14-.34-.14-.15-.36.16-.35.35-.15zm-1.8-.9l.16.36-.15.35-.35.15-.35-.15-.15-.35.15-.35.35-.15zm-1.78-.9l.15.36-.15.36-.35.14-.35-.14-.15-.36.15-.35.35-.15zm-1.8-.88l.16.35-.15.34-.36.15-.35-.16-.16-.35.15-.36.34-.15zm-1.77-.9l.15.36-.14.35-.35.15-.35-.15-.15-.35.15-.36.35-.14zm-1.78-.9l.14.36-.14.35-.36.15-.35-.15-.14-.35.15-.35.36-.15zm-1.8-.9l.15.37-.14.36-.36.15-.35-.14-.15-.35.15-.35.35-.14zm-1.78-.88l.14.35-.14.36-.36.15-.35-.14-.15-.35.15-.34.35-.15zm-1.8-.9l.15.36-.15.35-.36.15-.36-.15-.15-.35.14-.36.35-.14zm-1.78-.9l.14.36-.14.35-.36.15-.35-.15-.15-.35.15-.35.35-.15zm-1.8-.9l.15.37-.13.35-.36.15-.34-.15-.15-.35.16-.36.35-.14zm-1.78-.88l.14.35-.14.35-.36.15-.35-.15-.15-.35.15-.35.35-.15zm-1.8-.9l.15.36-.14.35-.37.14-.35-.15-.15-.36.15-.36.35-.14zm-1.78-.9l.14.36-.14.35-.36.14-.35-.15-.16-.36.15-.35.34-.16zm-1.8-.9l.15.37-.14.35-.35.15-.35-.15-.15-.35.15-.36.35-.15zm-1.78-.88l.14.35-.14.36-.36.15-.35-.14-.14-.35.15-.35.36-.15zm-1.8-.9l.16.36-.15.35-.35.16-.36-.15-.14-.34.14-.36.36-.14zm-1.78-.9l.15.36-.16.36-.35.14-.37-.14-.14-.36.13-.35.36-.14zm-1.8-.9l.16.37-.15.35-.35.15-.36-.15-.14-.35.14-.36.36-.13zm-1.78-.88l.15.35-.14.36-.35.14-.35-.14-.14-.36.15-.35.36-.15zm-1.8-.9l.16.36-.15.35-.35.15-.36-.15-.14-.35.14-.36.36-.14zm-1.78-.9l.15.36-.15.36-.35.14-.36-.14-.14-.36.14-.35.36-.15zm-1.8-.9l.16.37-.15.34-.36.15-.36-.16-.14-.35.14-.37.36-.14zm-1.78-.88l.15.35-.15.35-.35.14-.36-.15-.15-.36.14-.36.35-.15z" fill="#5e5e5e"/><path d="M441.68 239.75l-.44.9-.46-.23.44-.9zM841.22 439.52l-.44.9-.46-.23.44-.9z" fill="#5e5e5e"/><path d="M811.37 341H441v-2h370.37zM919 341h-51.4v-2H919z" fill="#ff8f80"/><path d="M441.03 341H440v-2h1.03zM920 341h-1.03v-2H920z" fill="#ff8f80"/><use xlink:href="#a" transform="matrix(1,0,0,1,811.3732141153326,324) translate(5.98648148148148 10.666666666666668)"/><use xlink:href="#b" transform="matrix(1,0,0,1,811.3732141153326,324) translate(0.004999999999999005 26.666666666666668)"/><path d="M917.86 559.65l.14.35-.14.35-.36.15-.35-.15-.15-.35.15-.35.35-.15zm-2 0l.15.35-.14.35-.35.15-.35-.15-.14-.35.15-.35.36-.15zm-2 0l.15.35-.14.35-.35.15-.34-.15-.15-.35.16-.35.35-.15zm-2 0l.15.35-.13.35-.36.15-.34-.15-.15-.35.16-.35.35-.15zm-2 0l.16.35-.15.35-.35.15-.36-.15-.14-.35.14-.35.36-.15zm-2 0l.16.35-.15.35-.35.15-.35-.15-.15-.35.15-.35.35-.15zm-1.98 0l.14.35-.14.35-.36.15-.35-.15-.14-.35.14-.35.36-.15zm-2 0l.15.35-.15.35-.35.15-.35-.15-.15-.35.15-.35.35-.15zm-2 0l.15.35-.14.35-.37.15-.35-.15-.15-.35.15-.35.35-.15zm-2 0l.16.35-.15.35-.36.15-.36-.15-.14-.35.14-.35.36-.15zm-2 0l.16.35-.15.35-.36.15-.35-.15-.16-.35.15-.35.34-.15zm-1.98 0l.14.35-.14.35-.36.15-.35-.15-.16-.35.15-.35.34-.15zm-2 0l.15.35-.15.35-.35.15-.36-.15-.15-.35.14-.35.35-.15zm-2 0l.15.35-.15.35-.35.15-.35-.15-.15-.35.15-.35.35-.15zm-2 0l.15.35-.14.35-.35.15-.35-.15-.15-.35.15-.35.35-.15zm-2 0l.16.35-.15.35-.34.15-.36-.15-.14-.35.14-.35.36-.15zm-2 0l.16.35-.15.35-.34.15-.35-.15-.14-.35.15-.35.36-.15zm-1.98 0l.14.35-.14.35-.36.15-.35-.15-.14-.35.15-.35.36-.15zm-2 0l.15.35-.15.35-.35.15-.36-.15-.13-.35.14-.35.37-.15zm-2 0l.15.35-.15.35-.35.15-.35-.15-.15-.35.15-.35.35-.15zm-2 0l.16.35-.15.35-.35.15-.36-.15-.14-.35.14-.35.36-.15zm-2 0l.16.35-.15.35-.35.15-.35-.15-.15-.35.15-.35.35-.15zm-1.98 0l.14.35-.14.35-.36.15-.35-.15-.15-.35.15-.35.35-.15zm-2 0l.15.35-.16.35-.35.15-.37-.15-.14-.35.13-.35.36-.15zm-2 0l.15.35-.16.35-.35.15-.36-.15-.15-.35.14-.35.35-.15zm-2 0l.15.35-.15.35-.36.15-.36-.15-.15-.35.14-.35.35-.15zm-2 0l.16.35-.15.35-.35.15-.36-.15-.14-.35.14-.35.36-.15zm-2 0l.16.35-.15.35-.35.15-.35-.15-.15-.35.15-.35.35-.15zm-1.98 0l.14.35-.14.35-.36.15-.35-.15-.15-.35.15-.35.35-.15zm-2 0l.15.35-.14.35-.35.15-.35-.15-.14-.35.15-.35.36-.15zm-2 0l.15.35-.14.35-.35.15-.34-.15-.15-.35.16-.35.35-.15zm-2 0l.15.35-.13.35-.36.15-.34-.15-.15-.35.16-.35.35-.15zm-2 0l.16.35-.15.35-.35.15-.36-.15-.14-.35.14-.35.36-.15zm-2 0l.16.35-.15.35-.35.15-.35-.15-.15-.35.15-.35.35-.15zm-1.98 0l.14.35-.14.35-.36.15-.35-.15-.14-.35.14-.35.36-.15zm-2 0l.15.35-.15.35-.35.15-.35-.15-.15-.35.15-.35.35-.15zm-2 0l.15.35-.14.35-.37.15-.35-.15-.15-.35.15-.35.35-.15zm-2 0l.16.35-.15.35-.36.15-.36-.15-.14-.35.14-.35.36-.15zm-2 0l.16.35-.15.35-.36.15-.35-.15-.16-.35.15-.35.34-.15zm-1.98 0l.14.35-.14.35-.36.15-.35-.15-.16-.35.15-.35.34-.15zm-2 0l.15.35-.15.35-.35.15-.36-.15-.15-.35.14-.35.35-.15zm-2 0l.15.35-.15.35-.35.15-.35-.15-.15-.35.15-.35.35-.15zm-2 0l.15.35-.14.35-.35.15-.35-.15-.15-.35.15-.35.35-.15zm-2 0l.16.35-.15.35-.34.15-.36-.15-.14-.35.14-.35.36-.15zm-2 0l.16.35-.15.35-.34.15-.35-.15-.14-.35.15-.35.36-.15zm-1.98 0l.14.35-.14.35-.36.15-.35-.15-.14-.35.15-.35.36-.15zm-2 0l.15.35-.15.35-.35.15-.36-.15-.13-.35.14-.35.37-.15zm-2 0l.15.35-.15.35-.35.15-.35-.15-.15-.35.15-.35.35-.15zm-2 0l.15.35-.14.35-.36.15-.35-.15-.15-.35.15-.35.35-.15zm-2 0l.16.35-.15.35-.35.15-.35-.15-.15-.35.15-.35.35-.15zm-1.98 0l.14.35-.14.35-.36.15-.35-.15-.15-.35.15-.35.35-.15zm-2 0l.15.35-.16.35-.35.15-.37-.15-.14-.35.13-.35.36-.15zm-2 0l.15.35-.16.35-.35.15-.36-.15-.15-.35.14-.35.35-.15zm-2 0l.15.35-.15.35-.36.15-.36-.15-.15-.35.14-.35.35-.15zm-2 0l.16.35-.15.35-.35.15-.36-.15-.14-.35.14-.35.36-.15zm-2 0l.16.35-.15.35-.35.15-.35-.15-.15-.35.15-.35.35-.15zm-1.98 0l.14.35-.14.35-.36.15-.35-.15-.15-.35.15-.35.35-.15zm-2 0l.15.35-.14.35-.35.15-.35-.15-.14-.35.15-.35.36-.15zm-2 0l.15.35-.14.35-.35.15-.34-.15-.15-.35.16-.35.35-.15zm-2 0l.15.35-.13.35-.36.15-.34-.15-.15-.35.16-.35.35-.15zm-2 0l.16.35-.15.35-.35.15-.36-.15-.14-.35.14-.35.36-.15zm-2 0l.16.35-.15.35-.35.15-.35-.15-.15-.35.15-.35.35-.15zm-1.98 0l.14.35-.14.35-.36.15-.35-.15-.14-.35.14-.35.36-.15zm-2 0l.15.35-.15.35-.35.15-.35-.15-.15-.35.15-.35.35-.15zm-2 0l.15.35-.14.35-.37.15-.35-.15-.15-.35.15-.35.35-.15zm-2 0l.16.35-.15.35-.36.15-.36-.15-.14-.35.14-.35.36-.15zm-2 0l.16.35-.15.35-.36.15-.35-.15-.16-.35.15-.35.34-.15zm-1.98 0l.14.35-.14.35-.36.15-.35-.15-.16-.35.15-.35.34-.15zm-2 0l.15.35-.15.35-.35.15-.36-.15-.15-.35.14-.35.35-.15zm-2 0l.15.35-.15.35-.35.15-.35-.15-.15-.35.15-.35.35-.15zm-2 0l.15.35-.14.35-.35.15-.35-.15-.15-.35.15-.35.35-.15zm-2 0l.16.35-.15.35-.34.15-.36-.15-.14-.35.14-.35.36-.15zm-2 0l.16.35-.15.35-.34.15-.35-.15-.14-.35.15-.35.36-.15zm-1.98 0l.14.35-.14.35-.36.15-.35-.15-.14-.35.15-.35.36-.15zm-2 0l.15.35-.15.35-.35.15-.36-.15-.13-.35.14-.35.37-.15zm-2 0l.15.35-.15.35-.35.15-.35-.15-.15-.35.15-.35.35-.15zm-2 0l.15.35-.14.35-.36.15-.35-.15-.14-.35.14-.35.36-.15zm-2 0l.16.35-.15.35-.35.15-.35-.15-.15-.35.15-.35.35-.15zm-1.98 0l.14.35-.14.35-.36.15-.35-.15-.15-.35.15-.35.35-.15zm-2 0l.15.35-.16.35-.35.15-.37-.15-.14-.35.13-.35.36-.15zm-2 0l.15.35-.16.35-.35.15-.36-.15-.15-.35.14-.35.35-.15zm-2 0l.15.35-.15.35-.36.15-.36-.15-.15-.35.14-.35.35-.15zm-2 0l.16.35-.15.35-.35.15-.36-.15-.14-.35.14-.35.36-.15zm-2 0l.16.35-.15.35-.35.15-.35-.15-.15-.35.15-.35.35-.15zm-1.98 0l.14.35-.14.35-.36.15-.35-.15-.15-.35.15-.35.35-.15zm-2 0l.15.35-.14.35-.35.15-.35-.15-.14-.35.15-.35.36-.15zm-2 0l.15.35-.14.35-.35.15-.34-.15-.15-.35.16-.35.35-.15zm-2 0l.15.35-.13.35-.36.15-.34-.15-.15-.35.16-.35.35-.15zm-2 0l.16.35-.15.35-.35.15-.36-.15-.14-.35.14-.35.36-.15zm-2 0l.16.35-.15.35-.35.15-.35-.15-.15-.35.15-.35.35-.15zm-1.98 0l.15.35-.15.35-.35.15-.36-.15-.14-.35.14-.35.36-.15zm-2 0l.15.35-.15.35-.35.15-.35-.15-.15-.35.15-.35.35-.15zm-2 0l.15.35-.14.35-.37.15-.35-.15-.15-.35.15-.35.35-.15zm-2 0l.16.35-.15.35-.36.15-.36-.15-.14-.35.14-.35.36-.15zm-2 0l.16.35-.15.35-.36.15-.35-.15-.16-.35.15-.35.34-.15zm-1.98 0l.14.35-.14.35-.36.15-.35-.15-.16-.35.15-.35.34-.15zm-2 0l.15.35-.15.35-.35.15-.36-.15-.15-.35.14-.35.35-.15zm-2 0l.15.35-.15.35-.35.15-.35-.15-.15-.35.15-.35.35-.15zm-2 0l.15.35-.14.35-.35.15-.35-.15-.15-.35.15-.35.35-.15zm-2 0l.16.35-.15.35-.34.15-.36-.15-.14-.35.14-.35.36-.15zm-2 0l.16.35-.15.35-.34.15-.35-.15-.14-.35.15-.35.36-.15zm-1.98 0l.14.35-.14.35-.36.15-.35-.15-.14-.35.15-.35.36-.15zm-2 0l.15.35-.15.35-.35.15-.36-.15-.13-.35.14-.35.37-.15zm-2 0l.15.35-.15.35-.35.15-.35-.15-.15-.35.15-.35.35-.15zm-2 0l.15.35-.14.35-.36.15-.35-.15-.14-.35.14-.35.36-.15zm-2 0l.16.35-.15.35-.35.15-.35-.15-.15-.35.15-.35.35-.15zm-1.98 0l.14.35-.14.35-.36.15-.35-.15-.15-.35.15-.35.35-.15zm-2 0l.15.35-.16.35-.35.15-.37-.15-.14-.35.13-.35.36-.15zm-2 0l.15.35-.16.35-.35.15-.36-.15-.15-.35.14-.35.35-.15zm-2 0l.15.35-.15.35-.36.15-.36-.15-.15-.35.14-.35.35-.15zm-2 0l.16.35-.15.35-.35.15-.36-.15-.14-.35.14-.35.36-.15zm-2 0l.16.35-.15.35-.35.15-.35-.15-.15-.35.15-.35.35-.15zm-1.98 0l.14.35-.14.35-.36.15-.35-.15-.15-.35.15-.35.35-.15zm-2 0l.15.35-.14.35-.35.15-.35-.15-.14-.35.15-.35.36-.15zm-2 0l.15.35-.14.35-.35.15-.34-.15-.15-.35.16-.35.35-.15zm-2 0l.15.35-.13.35-.36.15-.34-.15-.15-.35.16-.35.35-.15zm-2 0l.16.35-.15.35-.35.15-.36-.15-.14-.35.14-.35.36-.15zm-2 0l.16.35-.15.35-.35.15-.35-.15-.15-.35.15-.35.35-.15zm-1.98 0l.14.35-.14.35-.36.15-.35-.15-.15-.35.15-.35.35-.15zm-2 0l.15.35-.15.35-.35.15-.35-.15-.15-.35.15-.35.35-.15zm-2 0l.15.35-.14.35-.37.15-.35-.15-.15-.35.15-.35.35-.15zm-2 0l.16.35-.15.35-.36.15-.36-.15-.14-.35.14-.35.36-.15zm-2 0l.16.35-.15.35-.36.15-.35-.15-.16-.35.15-.35.34-.15zm-1.98 0l.14.35-.14.35-.36.15-.35-.15-.16-.35.15-.35.34-.15zm-2 0l.15.35-.15.35-.35.15-.36-.15-.15-.35.14-.35.35-.15zm-2 0l.15.35-.15.35-.35.15-.35-.15-.15-.35.15-.35.35-.15zm-2 0l.15.35-.14.35-.35.15-.35-.15-.15-.35.15-.35.35-.15zm-2 0l.16.35-.15.35-.34.15-.36-.15-.14-.35.14-.35.36-.15zm-2 0l.16.35-.15.35-.34.15-.35-.15-.14-.35.15-.35.36-.15zm-1.98 0l.14.35-.14.35-.36.15-.35-.15-.14-.35.15-.35.36-.15zm-2 0l.15.35-.15.35-.35.15-.36-.15-.13-.35.14-.35.37-.15zm-2 0l.15.35-.15.35-.35.15-.35-.15-.15-.35.15-.35.35-.15zm-2 0l.15.35-.14.35-.36.15-.35-.15-.14-.35.14-.35.36-.15zm-2 0l.16.35-.15.35-.35.15-.35-.15-.15-.35.15-.35.35-.15zm-1.98 0l.14.35-.14.35-.36.15-.35-.15-.15-.35.15-.35.35-.15zm-2 0l.15.35-.16.35-.35.15-.37-.15-.14-.35.13-.35.36-.15zm-2 0l.15.35-.16.35-.35.15-.36-.15-.15-.35.14-.35.35-.15zm-2 0l.15.35-.15.35-.36.15-.36-.15-.15-.35.14-.35.35-.15zm-2 0l.16.35-.15.35-.35.15-.36-.15-.14-.35.14-.35.36-.15zm-2 0l.16.35-.15.35-.35.15-.35-.15-.15-.35.15-.35.35-.15zm-1.98 0l.14.35-.14.35-.36.15-.35-.15-.15-.35.15-.35.35-.15zm-2 0l.15.35-.14.35-.35.15-.35-.15-.14-.35.15-.35.36-.15zm-2 0l.15.35-.14.35-.35.15-.34-.15-.15-.35.16-.35.35-.15zm-2 0l.15.35-.13.35-.36.15-.34-.15-.15-.35.16-.35.35-.15zm-2 0l.16.35-.15.35-.35.15-.36-.15-.14-.35.14-.35.36-.15zm-2 0l.16.35-.15.35-.35.15-.35-.15-.15-.35.15-.35.35-.15zm-1.98 0l.14.35-.14.35-.36.15-.35-.15-.14-.35.14-.35.36-.15zm-2 0l.15.35-.15.35-.35.15-.35-.15-.15-.35.15-.35.35-.15zm-2 0l.15.35-.14.35-.37.15-.35-.15-.15-.35.15-.35.35-.15zm-2 0l.16.35-.15.35-.36.15-.36-.15-.14-.35.14-.35.36-.15zm-2 0l.16.35-.15.35-.36.15-.35-.15-.16-.35.15-.35.34-.15zm-1.98 0l.14.35-.14.35-.36.15-.35-.15-.16-.35.15-.35.34-.15zm-2 0l.15.35-.15.35-.35.15-.36-.15-.15-.35.14-.35.35-.15zm-2 0l.15.35-.15.35-.35.15-.35-.15-.15-.35.15-.35.35-.15zm-2 0l.15.35-.14.35-.35.15-.35-.15-.15-.35.15-.35.35-.15zm-2 0l.16.35-.15.35-.34.15-.36-.15-.14-.35.14-.35.36-.15zm-2 0l.16.35-.15.35-.34.15-.35-.15-.14-.35.15-.35.36-.15zm-1.98 0l.14.35-.14.35-.36.15-.35-.15-.14-.35.15-.35.36-.15zm-2 0l.15.35-.15.35-.35.15-.36-.15-.13-.35.14-.35.37-.15zm-2 0l.15.35-.15.35-.35.15-.35-.15-.15-.35.15-.35.35-.15zm-2 0l.16.35-.15.35-.35.15-.36-.15-.14-.35.14-.35.36-.15zm-2 0l.16.35-.15.35-.35.15-.35-.15-.15-.35.15-.35.35-.15zm-1.98 0l.14.35-.14.35-.36.15-.35-.15-.15-.35.15-.35.35-.15zm-2 0l.15.35-.16.35-.35.15-.37-.15-.14-.35.13-.35.36-.15zm-2 0l.15.35-.16.35-.35.15-.36-.15-.15-.35.14-.35.35-.15zm-2 0l.15.35-.15.35-.36.15-.36-.15-.15-.35.14-.35.35-.15zm-2 0l.16.35-.15.35-.35.15-.36-.15-.14-.35.14-.35.36-.15zm-2 0l.16.35-.15.35-.35.15-.35-.15-.15-.35.15-.35.35-.15zm-1.98 0l.14.35-.14.35-.36.15-.35-.15-.15-.35.15-.35.35-.15zm-2 0l.15.35-.14.35-.35.15-.35-.15-.14-.35.15-.35.36-.15zm-2 0l.15.35-.14.35-.35.15-.34-.15-.15-.35.16-.35.35-.15zm-2 0l.15.35-.13.35-.36.15-.34-.15-.15-.35.16-.35.35-.15zm-2 0l.16.35-.15.35-.35.15-.36-.15-.14-.35.14-.35.36-.15zm-2 0l.16.35-.15.35-.35.15-.35-.15-.15-.35.15-.35.35-.15zm-1.98 0l.14.35-.14.35-.36.15-.35-.15-.14-.35.14-.35.36-.15zm-2 0l.15.35-.15.35-.35.15-.35-.15-.15-.35.15-.35.35-.15zm-2 0l.15.35-.14.35-.37.15-.35-.15-.15-.35.15-.35.35-.15zm-2 0l.16.35-.15.35-.36.15-.36-.15-.14-.35.14-.35.36-.15zm-2 0l.16.35-.15.35-.36.15-.35-.15-.16-.35.15-.35.34-.15zm-1.98 0l.14.35-.14.35-.36.15-.35-.15-.16-.35.15-.35.34-.15zm-2 0l.15.35-.15.35-.35.15-.36-.15-.15-.35.14-.35.35-.15zm-2 0l.15.35-.15.35-.35.15-.35-.15-.15-.35.15-.35.35-.15zm-2 0l.15.35-.14.35-.35.15-.35-.15-.15-.35.15-.35.35-.15zm-2 0l.16.35-.15.35-.34.15-.36-.15-.14-.35.14-.35.36-.15zm-2 0l.16.35-.15.35-.34.15-.35-.15-.14-.35.15-.35.36-.15zm-1.98 0l.14.35-.14.35-.36.15-.35-.15-.14-.35.15-.35.36-.15zm-2 0l.15.35-.15.35-.35.15-.36-.15-.13-.35.14-.35.37-.15zm-2 0l.15.35-.15.35-.35.15-.35-.15-.15-.35.15-.35.35-.15zm-2 0l.15.35-.14.35-.36.15-.35-.15-.15-.35.15-.35.35-.15zm-2 0l.16.35-.15.35-.35.15-.35-.15-.15-.35.15-.35.35-.15zm-1.98 0l.14.35-.14.35-.36.15-.35-.15-.15-.35.15-.35.35-.15zm-2 0l.15.35-.16.35-.35.15-.37-.15-.14-.35.13-.35.36-.15zm-2 0l.15.35-.16.35-.35.15-.36-.15-.15-.35.14-.35.35-.15zm-2 0l.15.35-.15.35-.36.15-.36-.15-.15-.35.14-.35.35-.15zm-2 0l.16.35-.15.35-.35.15-.36-.15-.14-.35.14-.35.36-.15zm-2 0l.16.35-.15.35-.35.15-.35-.15-.15-.35.15-.35.35-.15zm-1.98 0l.14.35-.14.35-.36.15-.35-.15-.15-.35.15-.35.35-.15zm-2 0l.15.35-.14.35-.35.15-.35-.15-.14-.35.15-.35.36-.15zm-2 0l.15.35-.14.35-.35.15-.34-.15-.15-.35.16-.35.35-.15zm-2 0l.15.35-.13.35-.36.15-.34-.15-.15-.35.16-.35.35-.15zm-2 0l.16.35-.15.35-.35.15-.36-.15-.14-.35.14-.35.36-.15zm-2 0l.16.35-.15.35-.35.15-.35-.15-.15-.35.15-.35.35-.15zm-1.98 0l.14.35-.14.35-.36.15-.35-.15-.14-.35.14-.35.36-.15zm-2 0l.15.35-.15.35-.35.15-.35-.15-.15-.35.15-.35.35-.15zm-2 0l.15.35-.14.35-.37.15-.35-.15-.15-.35.15-.35.35-.15zm-2 0l.16.35-.15.35-.36.15-.36-.15-.14-.35.14-.35.36-.15zm-2 0l.16.35-.15.35-.36.15-.35-.15-.16-.35.15-.35.34-.15zm-1.98 0l.14.35-.14.35-.36.15-.35-.15-.16-.35.15-.35.34-.15zm-2 0l.15.35-.15.35-.35.15-.36-.15-.15-.35.14-.35.35-.15zm-2 0l.15.35-.15.35-.35.15-.35-.15-.15-.35.15-.35.35-.15zm-2 0l.15.35-.14.35-.35.15-.35-.15-.15-.35.15-.35.35-.15zm-2 0l.16.35-.15.35-.34.15-.36-.15-.14-.35.14-.35.36-.15zm-2 0l.16.35-.15.35-.34.15-.35-.15-.14-.35.15-.35.36-.15zm-1.98 0l.14.35-.14.35-.36.15-.35-.15-.14-.35.15-.35.36-.15zm-2 0l.15.35-.15.35-.35.15-.36-.15-.13-.35.14-.35.37-.15zm-2 0l.15.35-.15.35-.35.15-.35-.15-.15-.35.15-.35.35-.15zm-2 0l.15.35-.14.35-.36.15-.35-.15-.15-.35.15-.35.35-.15zm-2 0l.16.35-.15.35-.35.15-.35-.15-.15-.35.15-.35.35-.15zm-1.98 0l.14.35-.14.35-.36.15-.35-.15-.15-.35.15-.35.35-.15zm-2 0l.15.35-.16.35-.35.15-.37-.15-.14-.35.13-.35.36-.15zm-77.86 0l.15.35-.15.35-.35.15-.36-.15-.14-.35.14-.35.36-.15zm-2 0l.15.35-.15.35-.35.15-.35-.15-.15-.35.15-.35.35-.15zm-2 0l.15.35-.14.35-.37.15-.35-.15-.15-.35.15-.35.35-.15zm-2 0l.16.35-.15.35-.36.15-.36-.15-.14-.35.14-.35.36-.15zm-2 0l.16.35-.15.35-.36.15-.35-.15-.16-.35.15-.35.34-.15zm-1.98 0l.14.35-.14.35-.36.15-.35-.15-.16-.35.15-.35.34-.15zm-2 0l.15.35-.15.35-.35.15-.36-.15-.15-.35.14-.35.35-.15zm-2 0l.15.35-.15.35-.35.15-.35-.15-.15-.35.15-.35.35-.15zm-2 0l.15.35-.14.35-.35.15-.35-.15-.15-.35.15-.35.35-.15zm-2 0l.16.35-.15.35-.34.15-.36-.15-.14-.35.14-.35.36-.15zm-2 0l.16.35-.15.35-.34.15-.35-.15-.14-.35.15-.35.36-.15zm-1.98 0l.14.35-.14.35-.36.15-.35-.15-.14-.35.15-.35.36-.15zm-2 0l.15.35-.15.35-.35.15-.36-.15-.13-.35.14-.35.37-.15zm-2 0l.15.35-.15.35-.35.15-.35-.15-.15-.35.15-.35.35-.15zm-2 0l.16.35-.15.35-.35.15-.36-.15-.14-.35.14-.35.36-.15zm-2 0l.16.35-.15.35-.35.15-.35-.15-.15-.35.15-.35.35-.15zm-1.98 0l.14.35-.14.35-.36.15-.35-.15-.15-.35.15-.35.35-.15zm-2 0l.15.35-.16.35-.35.15-.37-.15-.14-.35.13-.35.36-.15zm-2 0l.15.35-.16.35-.35.15-.36-.15-.15-.35.14-.35.35-.15zm-2 0l.15.35-.15.35-.36.15-.36-.15-.15-.35.14-.35.35-.15zm-2 0l.16.35-.15.35-.35.15-.36-.15-.14-.35.14-.35.36-.15zm-2 0l.16.35-.15.35-.35.15-.35-.15-.15-.35.15-.35.35-.15zm117.8 0l.15.35-.16.35-.24.1v-.9z"/><path d="M360.5 560.5h-.5v-1h.5zM920 560.5h-.5v-1h.5z"/><use xlink:href="#c" transform="matrix(1,0,0,1,403.770169626198,552) translate(0 10.666666666666666)"/><use xlink:href="#d" transform="matrix(1,0,0,1,403.770169626198,552) translate(33.22222222222222 10.666666666666666)"/><path d="M687.7 293.37c-1.5-2.96-.3-6.57 2.66-8.06l114.3-57.6c2.96-1.5 6.57-.3 8.06 2.66l10.8 21.43c1.5 2.95.3 6.56-2.66 8.05l-114.3 57.6c-2.96 1.5-6.57.3-8.06-2.65z" stroke="#000" stroke-opacity="0" stroke-width="3" fill="#fff" fill-opacity="0"/><use xlink:href="#e" transform="matrix(0.8929861434671519,-0.4500841561037927,0.4500841561037927,0.8929861434671519,691.7153514978547,290.22629179134776) translate(39.462962962962976 16.761111111111113)"/><use xlink:href="#f" transform="matrix(0.8929861434671519,-0.4500841561037927,0.4500841561037927,0.8929861434671519,691.7153514978547,290.22629179134776) translate(61.68518518518519 16.761111111111113)"/><path d="M472.43 234.37c1.48-2.97 5.08-4.17 8.04-2.7L595 288.88c2.95 1.48 4.15 5.1 2.67 8.05l-10.72 21.47c-1.48 2.96-5.08 4.16-8.05 2.68l-114.5-57.2c-2.98-1.47-4.18-5.08-2.7-8.04z" stroke="#000" stroke-opacity="0" stroke-width="3" fill="#fff" fill-opacity="0"/><use xlink:href="#g" transform="matrix(0.8946259840044273,0.4468157883782871,-0.4468157883782871,0.8946259840044273,477.345852201065,235.7072088619136) translate(38.75925925925927 16.761111111111113)"/><use xlink:href="#f" transform="matrix(0.8946259840044273,0.4468157883782871,-0.4468157883782871,0.8946259840044273,477.345852201065,235.7072088619136) translate(62.388888888888886 16.761111111111113)"/><path d="M920.35 559.15l.15.35-.15.35-.35.15-.35-.15-.15-.35.15-.35.35-.15zm0-2l.15.36-.15.36-.35.15-.35-.14-.15-.35.15-.35.35-.14zm0-2l.15.36-.15.37-.35.14-.35-.13-.15-.36.15-.34.35-.15zm0-2l.15.37-.15.35-.35.15-.35-.15-.15-.35.15-.36.35-.14zm0-1.98l.15.35-.15.36-.35.14-.35-.14-.15-.36.15-.35.35-.15zm0-2l.15.36-.15.35-.35.15-.35-.15-.15-.35.15-.35.35-.15zm0-2l.15.37-.15.35-.35.14-.35-.15-.15-.36.15-.36.35-.14zm0-1.98l.15.34-.15.35-.35.14-.35-.15-.15-.36.15-.35.35-.16zm0-2l.15.35-.15.35-.35.15-.35-.15-.15-.35.15-.36.35-.15zm0-2l.15.35-.15.36-.35.15-.35-.14-.15-.35.15-.35.35-.15zm0-2l.15.36-.15.35-.35.16-.35-.15-.15-.34.15-.35.35-.14zm0-2l.15.36-.15.36-.35.14-.35-.14-.15-.36.15-.35.35-.14zm0-1.98l.15.35-.15.35-.35.15-.35-.15-.15-.35.15-.35.35-.15zm0-2l.15.36-.15.35-.35.15-.35-.15-.15-.35.15-.36.35-.14zm0-2l.15.36-.15.36-.35.14-.35-.14-.15-.36.15-.35.35-.15zm0-2l.15.37-.15.34-.35.15-.35-.16-.15-.35.15-.37.35-.14zm0-1.98l.15.35-.15.35-.35.14-.35-.15-.15-.36.15-.36.35-.15zm0-2l.15.36-.15.35-.35.15-.35-.15-.15-.35.15-.35.35-.15zm0-2l.15.37-.15.36-.35.15-.35-.14-.15-.35.15-.35.35-.14zm0-1.98l.15.35-.15.37-.35.14-.35-.13-.15-.36.15-.34.35-.15zm0-2l.15.36-.15.35-.35.15-.35-.15-.15-.35.15-.36.35-.14zm0-2l.15.36-.15.36-.35.14-.35-.14-.15-.36.15-.35.35-.15zm0-1.98l.15.35-.15.35-.35.15-.35-.15-.15-.35.15-.35.35-.15zm0-2l.15.36-.15.35-.35.14-.35-.15-.15-.36.15-.36.35-.14zm0-2l.15.36-.15.35-.35.14-.35-.15-.15-.36.15-.35.35-.16zm0-2l.15.37-.15.35-.35.15-.35-.15-.15-.35.15-.36.35-.15zm0-1.98l.15.35-.15.36-.35.15-.35-.14-.15-.35.15-.35.35-.15zm0-2l.15.36-.15.35-.35.16-.35-.15-.15-.34.15-.35.35-.14zm0-2l.15.36-.15.36-.35.14-.35-.14-.15-.36.15-.35.35-.14zm0-1.98l.15.35-.15.35-.35.15-.35-.15-.15-.35.15-.35.35-.15zm0-2l.15.36-.15.35-.35.15-.35-.15-.15-.35.15-.36.35-.14zm0-2l.15.36-.15.36-.35.14-.35-.14-.15-.36.15-.35.35-.15zm0-2l.15.37-.15.34-.35.15-.35-.16-.15-.35.15-.37.35-.14zm0-1.98l.15.35-.15.35-.35.14-.35-.15-.15-.36.15-.36.35-.15zm0-2l.15.36-.15.35-.35.15-.35-.15-.15-.35.15-.35.35-.15zm0-2l.15.37-.15.36-.35.15-.35-.14-.15-.35.15-.35.35-.14zm0-1.98l.15.35-.15.37-.35.14-.35-.13-.15-.36.15-.34.35-.15zm0-2l.15.36-.15.35-.35.15-.35-.15-.15-.35.15-.36.35-.14zm0-2l.15.36-.15.36-.35.14-.35-.14-.15-.36.15-.35.35-.15zm0-1.98l.15.35-.15.35-.35.15-.35-.15-.15-.35.15-.35.35-.15zm0-2l.15.36-.15.35-.35.14-.35-.15-.15-.36.15-.36.35-.14zm0-2l.15.36-.15.35-.35.14-.35-.15-.15-.36.15-.35.35-.16zm0-2l.15.37-.15.35-.35.15-.35-.15-.15-.35.15-.36.35-.15zm0-1.98l.15.35-.15.36-.35.15-.35-.14-.15-.35.15-.35.35-.15zm0-2l.15.36-.15.35-.35.16-.35-.15-.15-.34.15-.35.35-.14zm0-2l.15.36-.15.36-.35.14-.35-.14-.15-.36.15-.35.35-.14zm0-1.98l.15.35-.15.35-.35.15-.35-.15-.15-.35.15-.35.35-.15zm0-2l.15.36-.15.35-.35.15-.35-.15-.15-.35.15-.36.35-.14zm0-2l.15.36-.15.36-.35.14-.35-.14-.15-.36.15-.35.35-.15zm0-2l.15.37-.15.34-.35.15-.35-.16-.15-.35.15-.37.35-.14zm0-1.98l.15.35-.15.35-.35.14-.35-.15-.15-.36.15-.36.35-.15zm0-2l.15.36-.15.35-.35.15-.35-.15-.15-.35.15-.35.35-.15zm0-2l.15.37-.15.36-.35.15-.35-.14-.15-.35.15-.35.35-.14zm0-1.98l.15.35-.15.37-.35.14-.35-.13-.15-.36.15-.34.35-.15zm0-2l.15.36-.15.35-.35.15-.35-.15-.15-.35.15-.36.35-.14zm0-2l.15.36-.15.36-.35.14-.35-.14-.15-.36.15-.35.35-.15zm0-1.98l.15.35-.15.35-.35.15-.35-.15-.15-.35.15-.35.35-.15zm0-2l.15.36-.15.35-.35.14-.35-.15-.15-.36.15-.36.35-.14zm0-2l.15.36-.15.35-.35.14-.35-.15-.15-.36.15-.35.35-.16zm0-2l.15.37-.15.35-.35.15-.35-.15-.15-.35.15-.36.35-.15zm0-1.98l.15.35-.15.36-.35.15-.35-.14-.15-.35.15-.35.35-.15zm0-2l.15.36-.15.35-.35.16-.35-.15-.15-.34.15-.35.35-.14zm0-2l.15.36-.15.36-.35.14-.35-.14-.15-.36.15-.35.35-.14zm0-1.98l.15.35-.15.35-.35.15-.35-.15-.15-.35.15-.35.35-.15zm0-2l.15.36-.15.35-.35.15-.35-.15-.15-.35.15-.36.35-.14zm0-2l.15.36-.15.36-.35.14-.35-.14-.15-.36.15-.35.35-.15zm0-2l.15.37-.15.34-.35.15-.35-.16-.15-.35.15-.37.35-.14zm0-1.98l.15.35-.15.35-.35.14-.35-.15-.15-.36.15-.36.35-.15zm0-2l.15.36-.15.35-.35.15-.35-.15-.15-.35.15-.35.35-.15zm0-2l.15.37-.15.36-.35.15-.35-.14-.15-.35.15-.35.35-.14zm0-1.98l.15.35-.15.37-.35.14-.35-.13-.15-.36.15-.34.35-.15zm0-2l.15.36-.15.35-.35.15-.35-.15-.15-.35.15-.36.35-.14zm0-2l.15.36-.15.36-.35.14-.35-.14-.15-.36.15-.35.35-.15zm0-1.98l.15.35-.15.35-.35.15-.35-.15-.15-.35.15-.35.35-.15zm0-2l.15.36-.15.35-.35.14-.35-.15-.15-.36.15-.36.35-.14zm0-2l.15.36-.15.35-.35.14-.35-.15-.15-.36.15-.35.35-.16zm0-2l.15.37-.15.35-.35.15-.35-.15-.15-.35.15-.36.35-.15zm0-1.98l.15.35-.15.36-.35.15-.35-.14-.15-.35.15-.35.35-.15zm0-2l.15.36-.15.35-.35.16-.35-.15-.15-.34.15-.35.35-.14zm0-2l.15.36-.15.36-.35.14-.35-.14-.15-.36.15-.35.35-.14zm0-1.98l.15.35-.15.35-.35.15-.35-.15-.15-.35.15-.35.35-.15zm0-2l.15.36-.15.35-.35.15-.35-.15-.15-.35.15-.36.35-.14zm0-2l.15.36-.15.36-.35.14-.35-.14-.15-.36.15-.35.35-.15zm0-2l.15.37-.15.34-.35.15-.35-.16-.15-.35.15-.37.35-.14zm0-1.98l.15.35-.15.35-.35.14-.35-.15-.15-.36.15-.36.35-.15zm0-2l.15.36-.15.35-.35.15-.35-.15-.15-.35.15-.35.35-.15zm0-2l.15.37-.15.36-.35.15-.35-.14-.15-.35.15-.35.35-.14zm0-1.98l.15.35-.15.37-.35.14-.35-.13-.15-.36.15-.34.35-.15zm0-2l.15.36-.15.35-.35.15-.35-.15-.15-.35.15-.36.35-.14zm0-2l.15.36-.15.36-.35.14-.35-.14-.15-.36.15-.35.35-.15zm0-1.98l.15.35-.15.35-.35.15-.35-.15-.15-.35.15-.35.35-.15zm0-2l.15.36-.15.35-.35.14-.35-.15-.15-.36.15-.36.35-.14zm0-2l.15.36-.15.35-.35.14-.35-.15-.15-.36.15-.35.35-.16zm0-2l.15.37-.15.35-.35.15-.35-.15-.15-.35.15-.36.35-.15zm0-1.98l.15.35-.15.36-.35.15-.35-.14-.15-.35.15-.35.35-.15zm0-2l.15.36-.15.35-.35.16-.35-.15-.15-.34.15-.35.35-.14zm0-2l.15.36-.15.36-.35.14-.35-.14-.15-.36.15-.35.35-.14zm0-1.98l.15.35-.15.35-.35.15-.35-.15-.15-.35.15-.35.35-.15zm0-2l.15.36-.15.35-.35.15-.35-.15-.15-.35.15-.36.35-.14zm0-2l.15.36-.15.36-.35.14-.35-.14-.15-.36.15-.35.35-.15zm0-2l.15.37-.15.34-.35.15-.35-.16-.15-.35.15-.37.35-.14zm0-1.98l.15.35-.15.35-.35.14-.35-.15-.15-.36.15-.36.35-.15zm0-2l.15.36-.15.35-.35.15-.35-.15-.15-.35.15-.35.35-.15zm0-2l.15.37-.15.36-.35.15-.35-.14-.15-.35.15-.35.35-.14zm0-1.98l.15.35-.15.37-.35.14-.35-.13-.15-.36.15-.34.35-.15zm0-2l.15.36-.15.35-.35.15-.35-.15-.15-.35.15-.36.35-.14zm0-2l.15.36-.15.36-.35.14-.35-.14-.15-.36.15-.35.35-.15zm0-1.98l.15.35-.15.35-.35.15-.35-.15-.15-.35.15-.35.35-.15zm0-2l.15.36-.15.35-.35.14-.35-.15-.15-.36.15-.36.35-.14zm0-2l.15.36-.15.35-.35.14-.35-.15-.15-.36.15-.35.35-.16zm0-2l.15.37-.15.35-.35.15-.35-.15-.15-.35.15-.36.35-.15zm0-1.98l.15.35-.15.36-.35.15-.35-.14-.15-.35.15-.35.35-.15zm0-2l.15.36-.15.35-.35.16-.35-.15-.15-.34.15-.35.35-.14zm0-2l.15.36-.15.36-.35.14-.35-.14-.15-.36.15-.35.35-.14zm0-1.98l.15.35-.15.35-.35.15-.35-.15-.15-.35.15-.35.35-.15zm0-2l.15.36-.15.35-.35.15-.35-.15-.15-.35.15-.36.35-.14zm0-2l.15.36-.15.36-.35.14-.35-.14-.15-.36.15-.35.35-.15zm0-2l.15.37-.15.34-.35.15-.35-.16-.15-.35.15-.37.35-.14zm0-1.98l.15.35-.15.35-.35.14-.35-.15-.15-.36.15-.36.35-.15zm0-2l.15.36-.15.35-.35.15-.35-.15-.15-.35.15-.35.35-.15zm0-2l.15.37-.15.36-.35.15-.35-.14-.15-.35.15-.35.35-.14zm0-1.98l.15.35-.15.37-.35.14-.35-.13-.15-.36.15-.34.35-.15zm0-2l.15.36-.15.35-.35.15-.35-.15-.15-.35.15-.36.35-.14zm0-2l.15.36-.15.36-.35.14-.35-.14-.15-.36.15-.35.35-.15zm0-1.98l.15.35-.15.35-.35.15-.35-.15-.15-.35.15-.35.35-.15zm0-2l.15.36-.15.35-.35.14-.35-.15-.15-.36.15-.36.35-.14zm0-2l.15.36-.15.35-.35.14-.35-.15-.15-.36.15-.35.35-.16zm0-2l.15.37-.15.35-.35.15-.35-.15-.15-.35.15-.36.35-.15zm0-1.98l.15.35-.15.36-.35.15-.35-.14-.15-.35.15-.35.35-.15zm0-2l.15.36-.15.35-.35.16-.35-.15-.15-.34.15-.35.35-.14zm0-2l.15.36-.15.36-.35.14-.35-.14-.15-.36.15-.35.35-.14zm0-1.98l.15.35-.15.35-.35.15-.35-.15-.15-.35.15-.35.35-.15zm0-2l.15.36-.15.35-.35.15-.35-.15-.15-.35.15-.36.35-.14zm0-2l.15.36-.15.36-.35.14-.35-.14-.15-.36.15-.35.35-.15zm0-2l.15.37-.15.34-.35.15-.35-.16-.15-.35.15-.37.35-.14zm0-1.98l.15.35-.15.35-.35.14-.35-.15-.15-.36.15-.36.35-.15zm0-2l.15.36-.15.35-.35.15-.35-.15-.15-.35.15-.35.35-.15zm0-2l.15.37-.15.36-.35.15-.35-.14-.15-.35.15-.35.35-.14zm0-1.98l.15.35-.15.37-.35.14-.35-.13-.15-.36.15-.34.35-.15zm0-17.95l.15.36-.15.36-.35.14-.35-.14-.15-.36.15-.35.35-.14zm0-1.98l.15.35-.15.35-.35.15-.35-.15-.15-.35.15-.35.35-.15zm0-2l.15.36-.15.35-.35.15-.35-.15-.15-.35.15-.36.35-.14zm0-2l.15.36-.15.36-.35.14-.35-.14-.15-.36.15-.35.35-.15zm0-2l.15.37-.15.34-.35.15-.35-.16-.15-.35.15-.37.35-.14zm0-1.98l.15.35-.15.35-.35.14-.35-.15-.15-.36.15-.36.35-.15zm0-2l.15.36-.15.35-.35.15-.35-.15-.15-.35.15-.35.35-.15zm0-2l.15.37-.15.36-.35.15-.35-.14-.15-.35.15-.35.35-.14zm0-1.98l.15.35-.15.37-.35.14-.35-.13-.15-.36.15-.34.35-.15zm0-2l.15.36-.15.35-.35.15-.35-.15-.15-.35.15-.36.35-.14zm0-2l.15.36-.15.36-.35.14-.35-.14-.15-.36.15-.35.35-.15zm0-1.98l.15.35-.15.35-.35.15-.35-.15-.15-.35.15-.35.35-.15zm0-2l.15.36-.15.35-.35.14-.35-.15-.15-.36.15-.36.35-.14zm0-2l.15.36-.15.35-.35.14-.35-.15-.15-.36.15-.35.35-.16zm0-2l.15.37-.15.35-.35.15-.35-.15-.15-.35.15-.36.35-.15zm0-1.98l.15.35-.15.36-.35.15-.35-.14-.15-.35.15-.35.35-.15zm0-2l.15.36-.15.35-.35.16-.35-.15-.15-.34.15-.35.35-.14zm0-2l.15.36-.15.36-.35.14-.35-.14-.15-.36.15-.35.35-.14zm0-1.98l.15.35-.15.35-.35.15-.35-.15-.15-.35.15-.35.35-.15zm0-2l.15.36-.15.35-.35.15-.35-.15-.15-.35.15-.36.35-.14zm0-2l.15.36-.15.36-.35.14-.35-.14-.15-.36.15-.35.35-.15zm0-2l.15.37-.15.34-.35.15-.35-.16-.15-.35.15-.37.35-.14zm0-1.98l.15.35-.15.35-.35.14-.35-.15-.15-.36.15-.36.35-.15z"/><path d="M920.5 560h-1v-.5h1zM920.5 220.5h-1v-.5h1z"/><use xlink:href="#h" transform="matrix(1,0,0,1,891.5,267.1096120778948) translate(0.004999999999999005 10.666666666666666)"/><path d="M644.53 339.74c0 2.63-2.13 4.76-4.76 4.76-2.64 0-4.77-2.13-4.77-4.76 0-2.64 2.13-4.77 4.77-4.77 2.63 0 4.76 2.13 4.76 4.77z" stroke="#000" stroke-opacity="0" stroke-width="2" fill="#ff8f80"/><path d="M901 399h-2v-17.63h2zm0-28.3h-2v-12.2h2z" fill="#5e5e5e"/><path d="M901 400h-2v-1.03h2zM904.64 357.5h-9.28l4.64-14.26z" fill="#5e5e5e"/><path d="M906 358.5h-12l6-18.5zm-9.26-2h6.52L900 346.47z" fill="#5e5e5e"/><use xlink:href="#i" transform="matrix(1,0,0,1,883.9753086419753,370.70686077536425) translate(0 7.111111111111111)"/><path d="M804.4 401H441v-2h363.4zm114.6 0h-49.52v-2H919z" fill="#b2b2b2"/><path d="M441.03 401H440v-2h1.03zM920 401h-1.03v-2H920z" fill="#b2b2b2"/><use xlink:href="#j" transform="matrix(1,0,0,1,804.4064760670506,384) translate(0.005000000000002558 10.666666666666668)"/><use xlink:href="#k" transform="matrix(1,0,0,1,804.4064760670506,384) translate(3.3198148148148157 26.666666666666668)"/><use xlink:href="#l" transform="matrix(1,0,0,1,804.4064760670506,384) translate(27.727222222222228 26.666666666666668)"/><path d="M641 559h-2v-25.67h2zm0-52.33h-2v-219.3h2zm0-251.3h-2V221h2z" fill="#ff8f80"/><path d="M641 560h-2v-1.03h2zM641 221.03h-2V220h2z" fill="#ff8f80"/><use xlink:href="#a" transform="matrix(1,0,0,1,617.8703703703703,255.3587346676277) translate(0.004999999999999005 10.666666666666668)"/><use xlink:href="#m" transform="matrix(1,0,0,1,617.8703703703703,255.3587346676277) translate(8.116111111111111 26.666666666666668)"/><path d="M520 559V401M520 558.97V560M520 401.03V400M760 559V401M760 558.97V560M760 401.03V400" stroke="#7ab648" stroke-width="2" fill="none"/><path d="M600.26 521H538.5v-2h61.76zm141.24 0h-61.76v-2h61.76zM537.5 524.64L523.24 520l14.26-4.64z" fill="#5e5e5e"/><path d="M538.5 526l-18.5-6 18.5-6zm-12.03-6l10.03 3.26v-6.52zM756.76 520l-14.26 4.64v-9.28z" fill="#5e5e5e"/><path d="M760 520l-18.5 6v-12zm-16.5 3.26l10.03-3.26-10.03-3.26z" fill="#5e5e5e"/><g><use xlink:href="#n" transform="matrix(1,0,0,1,600.2623456790124,506.6666666666667) translate(10.792037037037034 8.88888888888889)"/><use xlink:href="#o" transform="matrix(1,0,0,1,600.2623456790124,506.6666666666667) translate(0.005000000000002558 22.22222222222222)"/><use xlink:href="#p" transform="matrix(1,0,0,1,600.2623456790124,506.6666666666667) translate(40.06672839506173 22.22222222222222)"/><use xlink:href="#q" transform="matrix(1,0,0,1,600.2623456790124,506.6666666666667) translate(53.58524691358025 22.22222222222222)"/></g><defs><path fill="#ff8f80" d="M84 4C32 4 15-41 15-95c0-55 18-99 73-99 29 0 47 12 58 34l2-30h48l-1 265h-49V-32C136-9 114 4 84 4zm21-34c32 0 41-29 41-66 0-36-9-64-40-64-33 0-39 30-40 65 0 43 13 65 39 65" id="r"/><path fill="#ff8f80" d="M85 4C-2 5 27-109 22-190h50c7 57-23 150 33 157 60-5 35-97 40-157h50l1 190h-47c-2-12 1-28-3-38-12 25-28 42-61 42" id="s"/><path fill="#ff8f80" d="M110-194c64 0 96 36 96 99 0 64-35 99-97 99-61 0-95-36-95-99 0-62 34-99 96-99zm-1 164c35 0 45-28 45-65 0-40-10-65-43-65-34 0-45 26-45 65 0 36 10 65 43 65" id="t"/><path fill="#ff8f80" d="M115-3C79 11 28 4 28-45v-112H4v-33h27l15-45h31v45h36v33H77v99c-1 23 16 31 38 25v30" id="u"/><path fill="#ff8f80" d="M185-48c-13 30-37 53-82 52C43 2 14-33 14-96s30-98 90-98c62 0 83 45 84 108H66c0 31 8 55 39 56 18 0 30-7 34-22zm-45-69c5-46-57-63-70-21-2 6-4 13-4 21h74" id="v"/><path fill="#ff8f80" d="M88-194c31-1 46 15 58 34l-1-101h50l1 261h-48c-2-10 0-23-3-31C134-8 116 4 84 4 32 4 16-41 15-95c0-56 19-97 73-99zm17 164c33 0 40-30 41-66 1-37-9-64-41-64s-38 30-39 65c0 43 13 65 39 65" id="w"/><g id="a"><use transform="matrix(0.03703703703703704,0,0,0.03703703703703704,0,0)" xlink:href="#r"/><use transform="matrix(0.03703703703703704,0,0,0.03703703703703704,8.111111111111112,0)" xlink:href="#s"/><use transform="matrix(0.03703703703703704,0,0,0.03703703703703704,16.222222222222225,0)" xlink:href="#t"/><use transform="matrix(0.03703703703703704,0,0,0.03703703703703704,24.333333333333336,0)" xlink:href="#u"/><use transform="matrix(0.03703703703703704,0,0,0.03703703703703704,28.740740740740744,0)" xlink:href="#v"/><use transform="matrix(0.03703703703703704,0,0,0.03703703703703704,36.14814814814815,0)" xlink:href="#w"/></g><path fill="#ff8f80" d="M135-194c53 0 70 44 70 98 0 56-19 98-73 100-31 1-45-17-59-34 3 33 2 69 2 105H25l-1-265h48c2 10 0 23 3 31 11-24 29-35 60-35zM114-30c33 0 39-31 40-66 0-38-9-64-40-64-56 0-55 130 0 130" id="x"/><path fill="#ff8f80" d="M135-150c-39-12-60 13-60 57V0H25l-1-190h47c2 13-1 29 3 40 6-28 27-53 61-41v41" id="y"/><path fill="#ff8f80" d="M220-157c-53 9-28 100-34 157h-49v-107c1-27-5-49-29-50C55-147 81-57 75 0H25l-1-190h47c2 12-1 28 3 38 10-53 101-56 108 0 13-22 24-43 59-42 82 1 51 116 57 194h-49v-107c-1-25-5-48-29-50" id="z"/><path fill="#ff8f80" d="M25-224v-37h50v37H25zM25 0v-190h50V0H25" id="A"/><g id="b"><use transform="matrix(0.03703703703703704,0,0,0.03703703703703704,0,0)" xlink:href="#x"/><use transform="matrix(0.03703703703703704,0,0,0.03703703703703704,8.111111111111112,0)" xlink:href="#y"/><use transform="matrix(0.03703703703703704,0,0,0.03703703703703704,13.296296296296298,0)" xlink:href="#v"/><use transform="matrix(0.03703703703703704,0,0,0.03703703703703704,20.703703703703706,0)" xlink:href="#z"/><use transform="matrix(0.03703703703703704,0,0,0.03703703703703704,32.55555555555556,0)" xlink:href="#A"/><use transform="matrix(0.03703703703703704,0,0,0.03703703703703704,36.25925925925926,0)" xlink:href="#s"/><use transform="matrix(0.03703703703703704,0,0,0.03703703703703704,44.370370370370374,0)" xlink:href="#z"/></g><path d="M169-182c-1-43-94-46-97-3 18 66 151 10 154 114 3 95-165 93-204 36-6-8-10-19-12-30l50-8c3 46 112 56 116 5-17-69-150-10-154-114-4-87 153-88 188-35 5 8 8 18 10 28" id="B"/><path d="M135-194c53 0 70 44 70 98 0 56-19 98-73 100-31 1-45-17-59-34 3 33 2 69 2 105H25l-1-265h48c2 10 0 23 3 31 11-24 29-35 60-35zM114-30c33 0 39-31 40-66 0-38-9-64-40-64-56 0-55 130 0 130" id="C"/><path d="M110-194c64 0 96 36 96 99 0 64-35 99-97 99-61 0-95-36-95-99 0-62 34-99 96-99zm-1 164c35 0 45-28 45-65 0-40-10-65-43-65-34 0-45 26-45 65 0 36 10 65 43 65" id="D"/><path d="M115-3C79 11 28 4 28-45v-112H4v-33h27l15-45h31v45h36v33H77v99c-1 23 16 31 38 25v30" id="E"/><g id="c"><use transform="matrix(0.037037037037037035,0,0,0.037037037037037035,0,0)" xlink:href="#B"/><use transform="matrix(0.037037037037037035,0,0,0.037037037037037035,8.88888888888889,0)" xlink:href="#C"/><use transform="matrix(0.037037037037037035,0,0,0.037037037037037035,17,0)" xlink:href="#D"/><use transform="matrix(0.037037037037037035,0,0,0.037037037037037035,25.11111111111111,0)" xlink:href="#E"/></g><path d="M67-93c0 74 22 123 53 168H70C40 30 18-18 18-93s22-123 52-168h50c-32 44-53 94-53 168" id="F"/><path d="M24-248c93 1 206-16 204 79-1 75-69 88-152 82V0H24v-248zm52 121c47 0 100 7 100-41 0-47-54-39-100-39v80" id="G"/><path d="M135-150c-39-12-60 13-60 57V0H25l-1-190h47c2 13-1 29 3 40 6-28 27-53 61-41v41" id="H"/><path d="M25-224v-37h50v37H25zM25 0v-190h50V0H25" id="I"/><path d="M190-63c-7 42-38 67-86 67-59 0-84-38-90-98-12-110 154-137 174-36l-49 2c-2-19-15-32-35-32-30 0-35 28-38 64-6 74 65 87 74 30" id="J"/><path d="M185-48c-13 30-37 53-82 52C43 2 14-33 14-96s30-98 90-98c62 0 83 45 84 108H66c0 31 8 55 39 56 18 0 30-7 34-22zm-45-69c5-46-57-63-70-21-2 6-4 13-4 21h74" id="K"/><path d="M102-93c0 74-22 123-52 168H0C30 29 54-18 53-93c0-74-22-123-53-168h50c30 45 52 94 52 168" id="L"/><g id="d"><use transform="matrix(0.037037037037037035,0,0,0.037037037037037035,0,0)" xlink:href="#F"/><use transform="matrix(0.037037037037037035,0,0,0.037037037037037035,4.407407407407407,0)" xlink:href="#G"/><use transform="matrix(0.037037037037037035,0,0,0.037037037037037035,13.296296296296298,0)" xlink:href="#H"/><use transform="matrix(0.037037037037037035,0,0,0.037037037037037035,18.48148148148148,0)" xlink:href="#I"/><use transform="matrix(0.037037037037037035,0,0,0.037037037037037035,22.185185185185183,0)" xlink:href="#J"/><use transform="matrix(0.037037037037037035,0,0,0.037037037037037035,29.592592592592588,0)" xlink:href="#K"/><use transform="matrix(0.037037037037037035,0,0,0.037037037037037035,36.99999999999999,0)" xlink:href="#L"/></g><path fill="#b2b2b2" d="M115-194c55 1 70 41 70 98S169 2 115 4C84 4 66-9 55-30l1 105H24l-1-265h31l2 30c10-21 28-34 59-34zm-8 174c40 0 45-34 45-75s-6-73-45-74c-42 0-51 32-51 76 0 43 10 73 51 73" id="M"/><path fill="#b2b2b2" d="M84 4C-5 8 30-112 23-190h32v120c0 31 7 50 39 49 72-2 45-101 50-169h31l1 190h-30c-1-10 1-25-2-33-11 22-28 36-60 37" id="N"/><path fill="#b2b2b2" d="M59-47c-2 24 18 29 38 22v24C64 9 27 4 27-40v-127H5v-23h24l9-43h21v43h35v23H59v120" id="O"/><g id="e"><use transform="matrix(0.03703703703703702,0,0,0.03703703703703702,0,0)" xlink:href="#M"/><use transform="matrix(0.03703703703703702,0,0,0.03703703703703702,7.407407407407404,0)" xlink:href="#N"/><use transform="matrix(0.03703703703703702,0,0,0.03703703703703702,14.814814814814808,0)" xlink:href="#O"/></g><path fill="#b2b2b2" d="M85-194c31 0 48 13 60 33l-1-100h32l1 261h-30c-2-10 0-23-3-31C134-8 116 4 85 4 32 4 16-35 15-94c0-66 23-100 70-100zm9 24c-40 0-46 34-46 75 0 40 6 74 45 74 42 0 51-32 51-76 0-42-9-74-50-73" id="P"/><path fill="#b2b2b2" d="M100-194c63 0 86 42 84 106H49c0 40 14 67 53 68 26 1 43-12 49-29l28 8c-11 28-37 45-77 45C44 4 14-33 15-96c1-61 26-98 85-98zm52 81c6-60-76-77-97-28-3 7-6 17-6 28h103" id="Q"/><path fill="#b2b2b2" d="M24 0v-261h32V0H24" id="R"/><path fill="#b2b2b2" d="M141-36C126-15 110 5 73 4 37 3 15-17 15-53c-1-64 63-63 125-63 3-35-9-54-41-54-24 1-41 7-42 31l-33-3c5-37 33-52 76-52 45 0 72 20 72 64v82c-1 20 7 32 28 27v20c-31 9-61-2-59-35zM48-53c0 20 12 33 32 33 41-3 63-29 60-74-43 2-92-5-92 41" id="S"/><g id="f"><use transform="matrix(0.03703703703703702,0,0,0.03703703703703702,0,0)" xlink:href="#P"/><use transform="matrix(0.03703703703703702,0,0,0.03703703703703702,7.407407407407404,0)" xlink:href="#Q"/><use transform="matrix(0.03703703703703702,0,0,0.03703703703703702,14.814814814814808,0)" xlink:href="#R"/><use transform="matrix(0.03703703703703702,0,0,0.03703703703703702,17.740740740740733,0)" xlink:href="#O"/><use transform="matrix(0.03703703703703702,0,0,0.03703703703703702,21.444444444444436,0)" xlink:href="#S"/></g><path fill="#b2b2b2" d="M96-169c-40 0-48 33-48 73s9 75 48 75c24 0 41-14 43-38l32 2c-6 37-31 61-74 61-59 0-76-41-82-99-10-93 101-131 147-64 4 7 5 14 7 22l-32 3c-4-21-16-35-41-35" id="T"/><g id="g"><use transform="matrix(0.03703703703703702,0,0,0.03703703703703702,0,0)" xlink:href="#T"/><use transform="matrix(0.03703703703703702,0,0,0.03703703703703702,6.666666666666663,0)" xlink:href="#S"/><use transform="matrix(0.03703703703703702,0,0,0.03703703703703702,14.074074074074067,0)" xlink:href="#R"/><use transform="matrix(0.03703703703703702,0,0,0.03703703703703702,16.999999999999993,0)" xlink:href="#R"/></g><path fill="#333" d="M24-248c93 1 206-16 204 79-1 75-69 88-152 82V0H24v-248zm52 121c47 0 100 7 100-41 0-47-54-39-100-39v80" id="U"/><path fill="#333" d="M135-150c-39-12-60 13-60 57V0H25l-1-190h47c2 13-1 29 3 40 6-28 27-53 61-41v41" id="V"/><path fill="#333" d="M185-48c-13 30-37 53-82 52C43 2 14-33 14-96s30-98 90-98c62 0 83 45 84 108H66c0 31 8 55 39 56 18 0 30-7 34-22zm-45-69c5-46-57-63-70-21-2 6-4 13-4 21h74" id="W"/><path fill="#333" d="M220-157c-53 9-28 100-34 157h-49v-107c1-27-5-49-29-50C55-147 81-57 75 0H25l-1-190h47c2 12-1 28 3 38 10-53 101-56 108 0 13-22 24-43 59-42 82 1 51 116 57 194h-49v-107c-1-25-5-48-29-50" id="X"/><path fill="#333" d="M25-224v-37h50v37H25zM25 0v-190h50V0H25" id="Y"/><path fill="#333" d="M85 4C-2 5 27-109 22-190h50c7 57-23 150 33 157 60-5 35-97 40-157h50l1 190h-47c-2-12 1-28-3-38-12 25-28 42-61 42" id="Z"/><g id="h"><use transform="matrix(0.037037037037037035,0,0,0.037037037037037035,0,0)" xlink:href="#U"/><use transform="matrix(0.037037037037037035,0,0,0.037037037037037035,8.88888888888889,0)" xlink:href="#V"/><use transform="matrix(0.037037037037037035,0,0,0.037037037037037035,14.074074074074076,0)" xlink:href="#W"/><use transform="matrix(0.037037037037037035,0,0,0.037037037037037035,21.48148148148148,0)" xlink:href="#X"/><use transform="matrix(0.037037037037037035,0,0,0.037037037037037035,33.33333333333333,0)" xlink:href="#Y"/><use transform="matrix(0.037037037037037035,0,0,0.037037037037037035,37.03703703703703,0)" xlink:href="#Z"/><use transform="matrix(0.037037037037037035,0,0,0.037037037037037035,45.14814814814814,0)" xlink:href="#X"/></g><path fill="#333" d="M133-34C117-15 103 5 69 4 32 3 11-16 11-54c-1-60 55-63 116-61 1-26-3-47-28-47-18 1-26 9-28 27l-52-2c7-38 36-58 82-57s74 22 75 68l1 82c-1 14 12 18 25 15v27c-30 8-71 5-69-32zm-48 3c29 0 43-24 42-57-32 0-66-3-65 30 0 17 8 27 23 27" id="aa"/><path fill="#333" d="M147 0L96-86 75-71V0H25v-261h50v150l67-79h53l-66 74L201 0h-54" id="ab"/><path fill="#333" d="M135-194c53 0 70 44 70 98 0 56-19 98-73 100-31 1-45-17-59-34 3 33 2 69 2 105H25l-1-265h48c2 10 0 23 3 31 11-24 29-35 60-35zM114-30c33 0 39-31 40-66 0-38-9-64-40-64-56 0-55 130 0 130" id="ac"/><g id="i"><use transform="matrix(0.024691358024691353,0,0,0.024691358024691353,0,0)" xlink:href="#X"/><use transform="matrix(0.024691358024691353,0,0,0.024691358024691353,7.901234567901233,0)" xlink:href="#aa"/><use transform="matrix(0.024691358024691353,0,0,0.024691358024691353,12.839506172839503,0)" xlink:href="#V"/><use transform="matrix(0.024691358024691353,0,0,0.024691358024691353,16.29629629629629,0)" xlink:href="#ab"/><use transform="matrix(0.024691358024691353,0,0,0.024691358024691353,21.234567901234563,0)" xlink:href="#Z"/><use transform="matrix(0.024691358024691353,0,0,0.024691358024691353,26.64197530864197,0)" xlink:href="#ac"/></g><path fill="#b2b2b2" d="M190-63c-7 42-38 67-86 67-59 0-84-38-90-98-12-110 154-137 174-36l-49 2c-2-19-15-32-35-32-30 0-35 28-38 64-6 74 65 87 74 30" id="ad"/><path fill="#b2b2b2" d="M133-34C117-15 103 5 69 4 32 3 11-16 11-54c-1-60 55-63 116-61 1-26-3-47-28-47-18 1-26 9-28 27l-52-2c7-38 36-58 82-57s74 22 75 68l1 82c-1 14 12 18 25 15v27c-30 8-71 5-69-32zm-48 3c29 0 43-24 42-57-32 0-66-3-65 30 0 17 8 27 23 27" id="ae"/><path fill="#b2b2b2" d="M25 0v-261h50V0H25" id="af"/><path fill="#b2b2b2" d="M85 4C-2 5 27-109 22-190h50c7 57-23 150 33 157 60-5 35-97 40-157h50l1 190h-47c-2-12 1-28-3-38-12 25-28 42-61 42" id="ag"/><path fill="#b2b2b2" d="M115-3C79 11 28 4 28-45v-112H4v-33h27l15-45h31v45h36v33H77v99c-1 23 16 31 38 25v30" id="ah"/><path fill="#b2b2b2" d="M185-48c-13 30-37 53-82 52C43 2 14-33 14-96s30-98 90-98c62 0 83 45 84 108H66c0 31 8 55 39 56 18 0 30-7 34-22zm-45-69c5-46-57-63-70-21-2 6-4 13-4 21h74" id="ai"/><path fill="#b2b2b2" d="M88-194c31-1 46 15 58 34l-1-101h50l1 261h-48c-2-10 0-23-3-31C134-8 116 4 84 4 32 4 16-41 15-95c0-56 19-97 73-99zm17 164c33 0 40-30 41-66 1-37-9-64-41-64s-38 30-39 65c0 43 13 65 39 65" id="aj"/><g id="j"><use transform="matrix(0.03703703703703704,0,0,0.03703703703703704,0,0)" xlink:href="#ad"/><use transform="matrix(0.03703703703703704,0,0,0.03703703703703704,7.407407407407408,0)" xlink:href="#ae"/><use transform="matrix(0.03703703703703704,0,0,0.03703703703703704,14.814814814814817,0)" xlink:href="#af"/><use transform="matrix(0.03703703703703704,0,0,0.03703703703703704,18.51851851851852,0)" xlink:href="#ad"/><use transform="matrix(0.03703703703703704,0,0,0.03703703703703704,25.92592592592593,0)" xlink:href="#ag"/><use transform="matrix(0.03703703703703704,0,0,0.03703703703703704,34.03703703703704,0)" xlink:href="#af"/><use transform="matrix(0.03703703703703704,0,0,0.03703703703703704,37.74074074074074,0)" xlink:href="#ae"/><use transform="matrix(0.03703703703703704,0,0,0.03703703703703704,45.14814814814815,0)" xlink:href="#ah"/><use transform="matrix(0.03703703703703704,0,0,0.03703703703703704,49.55555555555556,0)" xlink:href="#ai"/><use transform="matrix(0.03703703703703704,0,0,0.03703703703703704,56.96296296296296,0)" xlink:href="#aj"/></g><path fill="#b2b2b2" d="M121-226c-27-7-43 5-38 36h38v33H83V0H34v-157H6v-33h28c-9-59 32-81 87-68v32" id="ak"/><path fill="#b2b2b2" d="M25-224v-37h50v37H25zM25 0v-190h50V0H25" id="al"/><path fill="#b2b2b2" d="M135-150c-39-12-60 13-60 57V0H25l-1-190h47c2 13-1 29 3 40 6-28 27-53 61-41v41" id="am"/><g id="k"><use transform="matrix(0.03703703703703704,0,0,0.03703703703703704,0,0)" xlink:href="#ak"/><use transform="matrix(0.03703703703703704,0,0,0.03703703703703704,4.407407407407408,0)" xlink:href="#ae"/><use transform="matrix(0.03703703703703704,0,0,0.03703703703703704,11.814814814814817,0)" xlink:href="#al"/><use transform="matrix(0.03703703703703704,0,0,0.03703703703703704,15.51851851851852,0)" xlink:href="#am"/></g><path fill="#b2b2b2" d="M128 0H69L1-190h53L99-40l48-150h52" id="an"/><g id="l"><use transform="matrix(0.03703703703703704,0,0,0.03703703703703704,0,0)" xlink:href="#an"/><use transform="matrix(0.03703703703703704,0,0,0.03703703703703704,7.407407407407408,0)" xlink:href="#ae"/><use transform="matrix(0.03703703703703704,0,0,0.03703703703703704,14.814814814814817,0)" xlink:href="#af"/><use transform="matrix(0.03703703703703704,0,0,0.03703703703703704,18.51851851851852,0)" xlink:href="#ag"/><use transform="matrix(0.03703703703703704,0,0,0.03703703703703704,26.629629629629633,0)" xlink:href="#ai"/></g><path fill="#ff8f80" d="M137-138c1-29-70-34-71-4 15 46 118 7 119 86 1 83-164 76-172 9l43-7c4 19 20 25 44 25 33 8 57-30 24-41C81-84 22-81 20-136c-2-80 154-74 161-7" id="ao"/><g id="m"><use transform="matrix(0.03703703703703704,0,0,0.03703703703703704,0,0)" xlink:href="#ao"/><use transform="matrix(0.03703703703703704,0,0,0.03703703703703704,7.407407407407408,0)" xlink:href="#x"/><use transform="matrix(0.03703703703703704,0,0,0.03703703703703704,15.51851851851852,0)" xlink:href="#t"/><use transform="matrix(0.03703703703703704,0,0,0.03703703703703704,23.629629629629633,0)" xlink:href="#u"/></g><path fill="#333" d="M190-63c-7 42-38 67-86 67-59 0-84-38-90-98-12-110 154-137 174-36l-49 2c-2-19-15-32-35-32-30 0-35 28-38 64-6 74 65 87 74 30" id="ap"/><path fill="#333" d="M110-194c64 0 96 36 96 99 0 64-35 99-97 99-61 0-95-36-95-99 0-62 34-99 96-99zm-1 164c35 0 45-28 45-65 0-40-10-65-43-65-34 0-45 26-45 65 0 36 10 65 43 65" id="aq"/><path fill="#333" d="M135-194c87-1 58 113 63 194h-50c-7-57 23-157-34-157-59 0-34 97-39 157H25l-1-190h47c2 12-1 28 3 38 12-26 28-41 61-42" id="ar"/><path fill="#333" d="M137-138c1-29-70-34-71-4 15 46 118 7 119 86 1 83-164 76-172 9l43-7c4 19 20 25 44 25 33 8 57-30 24-41C81-84 22-81 20-136c-2-80 154-74 161-7" id="as"/><g id="n"><use transform="matrix(0.030864197530864196,0,0,0.030864197530864196,0,0)" xlink:href="#ap"/><use transform="matrix(0.030864197530864196,0,0,0.030864197530864196,6.172839506172839,0)" xlink:href="#aq"/><use transform="matrix(0.030864197530864196,0,0,0.030864197530864196,12.932098765432098,0)" xlink:href="#ar"/><use transform="matrix(0.030864197530864196,0,0,0.030864197530864196,19.691358024691358,0)" xlink:href="#as"/><use transform="matrix(0.030864197530864196,0,0,0.030864197530864196,25.864197530864196,0)" xlink:href="#W"/><use transform="matrix(0.030864197530864196,0,0,0.030864197530864196,32.03703703703704,0)" xlink:href="#ar"/><use transform="matrix(0.030864197530864196,0,0,0.030864197530864196,38.7962962962963,0)" xlink:href="#as"/><use transform="matrix(0.030864197530864196,0,0,0.030864197530864196,44.96913580246914,0)" xlink:href="#Z"/><use transform="matrix(0.030864197530864196,0,0,0.030864197530864196,51.7283950617284,0)" xlink:href="#as"/></g><path fill="#333" d="M195-6C206 82 75 100 31 46c-4-6-6-13-8-21l49-6c3 16 16 24 34 25 40 0 42-37 40-79-11 22-30 35-61 35-53 0-70-43-70-97 0-56 18-96 73-97 30 0 46 14 59 34l2-30h47zm-90-29c32 0 41-27 41-63 0-35-9-62-40-62-32 0-39 29-40 63 0 36 9 62 39 62" id="at"/><g id="o"><use transform="matrix(0.030864197530864196,0,0,0.030864197530864196,0,0)" xlink:href="#X"/><use transform="matrix(0.030864197530864196,0,0,0.030864197530864196,9.876543209876543,0)" xlink:href="#aa"/><use transform="matrix(0.030864197530864196,0,0,0.030864197530864196,16.049382716049383,0)" xlink:href="#V"/><use transform="matrix(0.030864197530864196,0,0,0.030864197530864196,20.37037037037037,0)" xlink:href="#at"/><use transform="matrix(0.030864197530864196,0,0,0.030864197530864196,27.12962962962963,0)" xlink:href="#Y"/><use transform="matrix(0.030864197530864196,0,0,0.030864197530864196,30.21604938271605,0)" xlink:href="#ar"/></g><path fill="#333" d="M121-226c-27-7-43 5-38 36h38v33H83V0H34v-157H6v-33h28c-9-59 32-81 87-68v32" id="au"/><g id="p"><use transform="matrix(0.030864197530864196,0,0,0.030864197530864196,0,0)" xlink:href="#aq"/><use transform="matrix(0.030864197530864196,0,0,0.030864197530864196,6.759259259259259,0)" xlink:href="#au"/></g><g id="q"><use transform="matrix(0.030864197530864196,0,0,0.030864197530864196,0,0)" xlink:href="#W"/><use transform="matrix(0.030864197530864196,0,0,0.030864197530864196,6.172839506172839,0)" xlink:href="#V"/><use transform="matrix(0.030864197530864196,0,0,0.030864197530864196,10.493827160493826,0)" xlink:href="#V"/><use transform="matrix(0.030864197530864196,0,0,0.030864197530864196,14.814814814814813,0)" xlink:href="#aq"/><use transform="matrix(0.030864197530864196,0,0,0.030864197530864196,21.574074074074073,0)" xlink:href="#V"/></g></defs></g></svg>